<?xml version="1.0" encoding="utf-8"?>
<!-- Generator: Adobe Illustrator 26.3.1, SVG Export Plug-In . SVG Version: 6.00 Build 0)  -->
<svg version="1.1" id="sv" xmlns="http://www.w3.org/2000/svg" xmlns:xlink="http://www.w3.org/1999/xlink" x="0px" y="0px"
	 viewBox="0 0 421.9 366.7" style="enable-background:new 0 0 421.9 366.7;" xml:space="preserve">
<style type="text/css">
	.st0{fill:#FFFFFF;}
	.st1{fill:#080717;}
	.st2{fill:#66CCFF;}
</style>
<g>
	<g>
		<g>
			<path class="st0" d="M235.6,189.7H34c-4.9,0-8.8-3.9-8.8-8.8V52.4c0-4.9,3.9-8.8,8.8-8.8h201.6c4.9,0,8.8,3.9,8.8,8.8v128.5
				C244.5,185.8,240.5,189.7,235.6,189.7z"/>
			<path class="st1" d="M233.1,191H36.5c-7,0-12.6-5.7-12.6-12.6V54.9c0-7,5.7-12.6,12.6-12.6h196.6c7,0,12.6,5.7,12.6,12.6v123.5
				C245.7,185.4,240.1,191,233.1,191z M36.5,44.9c-5.5,0-10,4.5-10,10v123.5c0,5.5,4.5,10,10,10h196.6c5.5,0,10-4.5,10-10V54.9
				c0-5.5-4.5-10-10-10H36.5z"/>
		</g>
		<g>
			<path class="st1" d="M39.7,61.3c-3,0-5.4-2.4-5.4-5.4s2.4-5.4,5.4-5.4s5.4,2.4,5.4,5.4S42.6,61.3,39.7,61.3z M39.7,53.1
				c-1.5,0-2.8,1.3-2.8,2.8c0,1.5,1.3,2.8,2.8,2.8c1.5,0,2.8-1.3,2.8-2.8C42.5,54.3,41.2,53.1,39.7,53.1z"/>
		</g>
		<g>
			<path class="st1" d="M53.4,61.3c-3,0-5.4-2.4-5.4-5.4s2.4-5.4,5.4-5.4c3,0,5.4,2.4,5.4,5.4S56.4,61.3,53.4,61.3z M53.4,53.1
				c-1.5,0-2.8,1.3-2.8,2.8c0,1.5,1.3,2.8,2.8,2.8c1.5,0,2.8-1.3,2.8-2.8C56.2,54.3,55,53.1,53.4,53.1z"/>
		</g>
		<g>
			<path class="st1" d="M67.2,61.3c-3,0-5.4-2.4-5.4-5.4s2.4-5.4,5.4-5.4c3,0,5.4,2.4,5.4,5.4S70.2,61.3,67.2,61.3z M67.2,53.1
				c-1.5,0-2.8,1.3-2.8,2.8c0,1.5,1.3,2.8,2.8,2.8c1.5,0,2.8-1.3,2.8-2.8C70,54.3,68.8,53.1,67.2,53.1z"/>
		</g>
	</g>
	<g>
		<g>
			<path class="st2" d="M67,96.9H47.3c-3.1,0-5.6-2.5-5.6-5.6c0-3.1,2.5-5.6,5.6-5.6H67c3.1,0,5.6,2.5,5.6,5.6
				C72.5,94.4,70,96.9,67,96.9z M47.3,88.4c-1.6,0-3,1.3-3,3c0,1.6,1.3,3,3,3H67c1.6,0,3-1.3,3-3c0-1.6-1.3-3-3-3H47.3z"/>
		</g>
		<g>
			<path class="st2" d="M84.6,96.9c-2.9,0-5.3-2.4-5.3-5.3v-0.4c0-2.9,2.4-5.3,5.3-5.3c2.9,0,5.3,2.4,5.3,5.3v0.4
				C90,94.5,87.6,96.9,84.6,96.9z M84.6,88.4c-1.5,0-2.8,1.2-2.8,2.8v0.4c0,1.5,1.2,2.8,2.8,2.8c1.5,0,2.8-1.2,2.8-2.8v-0.4
				C87.4,89.6,86.2,88.4,84.6,88.4z"/>
		</g>
		<g>
			<path class="st0" d="M89.6,119.1h119.8H89.6z"/>
			<path class="st2" d="M209.4,120.4H89.6c-0.7,0-1.3-0.6-1.3-1.3s0.6-1.3,1.3-1.3h119.8c0.7,0,1.3,0.6,1.3,1.3
				S210.1,120.4,209.4,120.4z"/>
		</g>
		<g>
			<path class="st0" d="M89.6,131.3h119.8H89.6z"/>
			<path class="st2" d="M209.4,132.6H89.6c-0.7,0-1.3-0.6-1.3-1.3c0-0.7,0.6-1.3,1.3-1.3h119.8c0.7,0,1.3,0.6,1.3,1.3
				C210.6,132,210.1,132.6,209.4,132.6z"/>
		</g>
		<g>
			<path class="st0" d="M89.6,143.5h43H89.6z"/>
			<path class="st2" d="M132.6,144.7h-43c-0.7,0-1.3-0.6-1.3-1.3c0-0.7,0.6-1.3,1.3-1.3h43c0.7,0,1.3,0.6,1.3,1.3
				C133.9,144.2,133.4,144.7,132.6,144.7z"/>
		</g>
		<g>
			<path class="st0" d="M71.3,150.3H48c-2.7,0-4.9-2.2-4.9-4.9V122c0-2.7,2.2-4.9,4.9-4.9h23.3c2.7,0,4.9,2.2,4.9,4.9v23.3
				C76.3,148.1,74.1,150.3,71.3,150.3z"/>
			<path class="st2" d="M69.9,151.6H49.4c-4.2,0-7.6-3.4-7.6-7.6v-20.5c0-4.2,3.4-7.6,7.6-7.6h20.5c4.2,0,7.6,3.4,7.6,7.6V144
				C77.6,148.2,74.1,151.6,69.9,151.6z M49.4,118.4c-2.8,0-5.1,2.3-5.1,5.1V144c0,2.8,2.3,5.1,5.1,5.1h20.5c2.8,0,5.1-2.3,5.1-5.1
				v-20.5c0-2.8-2.3-5.1-5.1-5.1H49.4z"/>
		</g>
	</g>
	<g>
		<path class="st0" d="M170.3,176.3l2.1-32.7c0.7-10.7-1.9-21.3-7.4-30.4l-27.3-45.8c-1.1-1.9-3.9-1.7-4.8,0.3l0,0
			c-1.3,3.2-1.1,6.8,0.5,9.8l8.7,16.1l-12.3-7.9l-12.6,13.7c-1.3,1.4-1,3.7,0.6,4.8l0,0l-3.2,3.4c-1,1.1-0.8,2.8,0.5,3.5l0,0
			c2.4,1.5,5.3,1.9,8.1,1.3l1.5-0.4l2.9,12.9c0.4,1.9,2.6,2.8,4.3,1.8l0.1-0.1c1.9-1.2,3.3-3.1,3.8-5.4l0.9-3.7l12,12.7l-17.6,73.4
			c1.8,16.5,17.6,27.8,33.8,24.1l90.5-20.5l-18.3-35.8l-71,6.3L170.3,176.3z"/>
		<g>
			<path class="st1" d="M158.8,229.9c-6,0-11.9-1.9-16.9-5.4c-6.7-4.8-11.1-12.3-12-20.5l0-0.2l0.1-0.2l17.4-72.7l-9.9-10.5
				l-0.3,1.4c-0.6,2.6-2.2,4.8-4.4,6.2l-0.1,0.1c-1.1,0.7-2.5,0.8-3.8,0.3c-1.2-0.5-2.1-1.6-2.4-2.9l-2.6-11.6l-0.3,0.1
				c-3.1,0.7-6.3,0.2-9-1.4c-0.9-0.6-1.5-1.5-1.7-2.6c-0.1-1.1,0.2-2.1,0.9-2.9l2.4-2.5c-0.5-0.6-0.8-1.4-0.9-2.2
				c-0.2-1.3,0.3-2.6,1.1-3.6l7.8-8.5c3.2-3.5,8.4-4.1,12.3-1.6l2.2,1.4l-6.4-11.8c-1.8-3.4-2-7.3-0.6-10.9c0.6-1.4,1.9-2.3,3.4-2.4
				c1.5-0.1,2.9,0.6,3.7,1.9l27.3,45.8c5.6,9.4,8.2,20.2,7.5,31.2l-2,32.4l66.2-5.8l19.4,38.1l-92.1,20.8
				C163.1,229.7,160.9,229.9,158.8,229.9z M132.4,203.9c0.9,7.4,4.8,14.2,10.9,18.5c6.1,4.4,13.9,6,21.3,4.3l88.9-20.1L236.4,173
				l-70.2,6.2l-0.2-2.6l3.7-0.3l-0.6,0l2.1-32.7c0.7-10.4-1.8-20.7-7.2-29.7l-27.3-45.8c-0.3-0.5-0.7-0.7-1.3-0.7
				c-0.5,0-1,0.4-1.2,0.9c-1.2,2.8-1,6,0.4,8.7l11.1,20.5l-10.6-6.8c-2.9-1.9-6.7-1.4-9,1.2l-7.8,8.5c-0.4,0.4-0.6,1-0.5,1.5
				c0.1,0.5,0.4,1,0.8,1.3l1.3,0.8l-4.3,4.5c-0.3,0.3-0.3,0.6-0.3,0.8c0,0.2,0.1,0.5,0.5,0.7c2.1,1.3,4.7,1.7,7.1,1.1l2.8-0.7
				l3.2,14.2c0.1,0.5,0.4,0.9,0.9,1.1c0.5,0.2,1,0.1,1.4-0.1l0.1-0.1c1.7-1,2.8-2.7,3.3-4.6l1.4-6l14.1,14.9L132.4,203.9z"/>
		</g>
		<g>
			<g>
				<path class="st0" d="M287.9,289.9l57.3-96.5l0.9-7.3c-10.1-12.9-27.2-22.6-43.2-20.7l-33.5,3.8c-6.8,0.8-13.1,3.8-17.8,8.5
					l-10.9,11c-5.9,5.9-4.2,80-4.2,80L287.9,289.9z"/>
				<path class="st1" d="M287.9,291.2c-0.2,0-0.3,0-0.5-0.1l-51.5-21.3c-0.5-0.2-0.8-0.6-0.8-1.2c0-0.2-0.4-18.8-0.1-37.8
					c0.6-39,3.6-42,4.7-43.1l10.9-11c4.9-4.9,11.5-8.1,18.6-8.9l33.5-3.8c17.5-2,34.9,9.2,44.4,21.2c0.2,0.3,0.3,0.6,0.3,0.9
					l-0.9,7.3c0,0.2-0.1,0.4-0.2,0.5L289,290.6C288.7,291,288.3,291.2,287.9,291.2z M237.6,267.8l49.7,20.5L344,193l0.8-6.5
					c-9.1-11.3-25.4-21.7-41.7-19.9l-33.5,3.8c-6.5,0.7-12.6,3.6-17.1,8.1l-10.9,11C237.5,193.6,237,239.3,237.6,267.8z"/>
			</g>
			<g>
				
					<ellipse transform="matrix(0.7071 -0.7071 0.7071 0.7071 1.8341 260.8773)" class="st1" cx="315.8" cy="128.2" rx="35" ry="35"/>
				
					<ellipse transform="matrix(0.8455 -0.534 0.534 0.8455 -16.9574 171.5028)" class="st1" cx="287.9" cy="115.1" rx="23.1" ry="23.1"/>
				<path class="st1" d="M258.8,105.8c-1,7.6,4.4,14.5,12,15.5c7.6,1,14.5-4.4,15.5-12s-4.4-14.5-12-15.5
					C266.7,92.9,259.8,98.3,258.8,105.8z"/>
				
					<ellipse transform="matrix(0.1244 -0.9922 0.9922 0.1244 190.3634 431.6332)" class="st1" cx="339.8" cy="108" rx="23.6" ry="22.9"/>
				<g>
					<path class="st1" d="M351.8,132.8c-0.5,0-1-0.3-1.2-0.8c-0.3-0.6,0-1.4,0.6-1.7c6.4-2.9,11-9.5,12-17.4
						c1.4-11.6-5.4-22-15.3-23.2c-0.7-0.1-1.2-0.7-1.1-1.4c0.1-0.7,0.7-1.2,1.4-1.1c11.3,1.4,19.2,13.1,17.5,26.1
						c-1.1,8.7-6.3,16.2-13.5,19.4C352.2,132.7,352,132.8,351.8,132.8z"/>
				</g>
				
					<ellipse transform="matrix(0.5403 -0.8414 0.8414 0.5403 43.7153 288.2426)" class="st1" cx="285.7" cy="104.1" rx="31.4" ry="31.4"/>
				
					<ellipse transform="matrix(0.9019 -0.432 0.432 0.9019 -11.632 141.9508)" class="st1" cx="306.6" cy="96.6" rx="31.4" ry="31.4"/>
				<g>
					<path class="st1" d="M309.6,128.3c-1.4,0-2.7-0.1-4.1-0.3c-17.9-2.2-30.6-18.6-28.4-36.5l0,0c2.2-17.9,18.6-30.6,36.5-28.4
						c17.9,2.2,30.6,18.6,28.4,36.5C340,116.1,325.8,128.3,309.6,128.3z M279.7,91.8L279.7,91.8c-2.1,16.5,9.7,31.6,26.2,33.7
						c16.5,2.1,31.6-9.7,33.7-26.2c2.1-16.5-9.7-31.6-26.2-33.7C296.8,63.6,281.7,75.3,279.7,91.8z"/>
				</g>
				<g>
					<path class="st1" d="M306.5,143.6c-0.1,0-0.1,0-0.2,0c-1.9-0.2-3.7-1-5.2-2.1c-0.7-0.5-1.3-1.2-1.9-1.9
						c-0.4-0.6-0.3-1.4,0.2-1.8c0.6-0.4,1.4-0.3,1.8,0.2c0.4,0.5,0.9,1,1.4,1.4c1.1,0.9,2.5,1.4,3.9,1.6c0.7,0.1,1.2,0.7,1.1,1.4
						C307.7,143.2,307.1,143.6,306.5,143.6z"/>
				</g>
				<g>
					<path class="st0" d="M271.6,171.7l-0.8-17.6c-0.6-0.1-1.2-0.3-1.8-0.5c-11.4-3.8-16.7-18.8-11.8-33.5
						c4.9-14.6,18.2-23.4,29.6-19.6c9.1,3.1,14.3,13.2,13.6,24.6c2.1-1.7,4.9-2.6,7.8-2.2c5.3,0.7,9.2,5.3,8.8,10.3
						c-0.4,5.4-5.6,9.2-11.2,8.5c-1.2-0.2-2.3-0.5-3.4-1l1.5,33.9L271.6,171.7z"/>
					<path class="st1" d="M303.9,175.9c-0.7,0-1.3-0.5-1.3-1.2l-1.5-33.9c0-0.5,0.2-0.9,0.6-1.1c0.4-0.2,0.9-0.3,1.3-0.1
						c0.9,0.5,1.9,0.8,3,0.9c2.5,0.3,5-0.4,6.9-1.9c1.7-1.4,2.8-3.3,2.9-5.5c0.4-4.3-3.1-8.3-7.7-8.9c-2.5-0.3-5,0.4-6.9,1.9
						c-0.4,0.3-0.9,0.4-1.4,0.1c-0.5-0.2-0.7-0.7-0.7-1.2c0.7-11.1-4.4-20.5-12.7-23.3c-10.7-3.6-23.3,4.8-28,18.8
						c-2.3,6.8-2.4,13.9-0.2,20c2.1,5.9,6.1,10.2,11.2,11.9c0.6,0.2,1.2,0.3,1.7,0.4c0.6,0.1,1,0.6,1,1.2l0.8,17.6
						c0,0.7-0.5,1.3-1.2,1.3c-0.7,0-1.3-0.5-1.3-1.2l-0.7-16.6c-0.3-0.1-0.6-0.2-1-0.3c-5.9-2-10.5-6.8-12.8-13.5
						c-2.3-6.6-2.2-14.3,0.2-21.6c5.1-15.3,19.1-24.4,31.2-20.4c8.8,3,14.4,12.2,14.5,23.4c2-1,4.4-1.4,6.7-1.1
						c5.9,0.8,10.4,6,9.9,11.7c-0.2,2.8-1.6,5.4-3.9,7.2c-2.4,2-5.6,2.9-8.8,2.5c-0.6-0.1-1.2-0.2-1.8-0.4l1.4,31.9
						C305.2,175.3,304.7,175.9,303.9,175.9C303.9,175.9,303.9,175.9,303.9,175.9z"/>
				</g>
				<path class="st1" d="M301,126.5c-0.2,0-0.4,0.1-0.7,0.1c-12.3,1.5-23.8-9.9-25.8-25.5c0-0.2,0-0.4-0.1-0.5
					c4.2-1.5,8.6-1.8,12.7-0.4C296.9,103.4,302.2,114.3,301,126.5z"/>
				<g>
					<path class="st1" d="M272.8,155.6c-0.6,0-1.2,0-1.9-0.1c-0.7,0-1.2-0.7-1.2-1.4c0-0.7,0.7-1.3,1.4-1.2
						c7.3,0.5,14.5-2.3,19.6-7.6c0.5-0.5,1.3-0.5,1.8,0c0.5,0.5,0.5,1.3,0,1.8C287.4,152.6,280.3,155.6,272.8,155.6z"/>
				</g>
				<path class="st1" d="M263.4,116.7c0.3,0.7-1.1,2-3.1,2.8c-2,0.8-3.8,0.9-4.1,0.2c-0.3-0.7,1.1-2,3.1-2.8
					C261.2,116,263.1,116,263.4,116.7z"/>
				<path class="st1" d="M281.9,122.1c-0.3,0.9-2.6,0.9-5.1,0.1c-2.5-0.9-4.3-2.3-4-3.2c0.3-0.9,2.6-0.9,5.1-0.1
					C280.5,119.8,282.2,121.2,281.9,122.1z"/>
				<g>
					<path class="st1" d="M265.6,131.3c-0.4,0-0.7-0.2-1-0.4c-1-1.2-1.3-2.8-0.8-4.3l2-6c0.2-0.7,1-1,1.6-0.8c0.7,0.2,1,1,0.8,1.6
						l-2,6c-0.2,0.6-0.1,1.3,0.4,1.8c0.5,0.5,0.4,1.3-0.1,1.8C266.1,131.2,265.9,131.3,265.6,131.3z"/>
				</g>
				<g>
					<path class="st1" d="M271.6,143.9c-2.1,0-4.2-1.5-6.1-4.4c0,0,0,0,0,0c-0.3-0.5-0.3-1-0.1-1.5c0.4-0.6,0.9-1.5,11.1-1.1
						c0.4,0,0.8,0.2,1,0.6c0.2,0.3,0.3,0.8,0.1,1.2c-0.2,0.5-2,4.8-5.6,5.2C271.9,143.8,271.7,143.9,271.6,143.9z M268.6,139.4
						c0.9,1.1,2.1,2,3.2,1.9c1-0.1,1.9-1,2.5-1.9C272.2,139.3,270,139.3,268.6,139.4z"/>
				</g>
				<g>
					<path class="st1" d="M303.5,135.9C303.5,135.9,303.5,135.9,303.5,135.9c-0.8,0-1.3-0.6-1.3-1.3c0.1-2.9,1-5.2,2.7-6.7
						c2.4-2.2,5.6-2,5.7-2c0.7,0.1,1.2,0.7,1.2,1.4c-0.1,0.7-0.7,1.2-1.4,1.2c-0.1,0-2.3-0.1-3.9,1.4c-1.1,1-1.8,2.7-1.8,4.8
						C304.7,135.4,304.2,135.9,303.5,135.9z"/>
				</g>
				<path class="st1" d="M263.2,124.8c-0.3,1.6-1.5,2.7-2.7,2.5c-1.2-0.2-1.9-1.7-1.6-3.3c0.3-1.6,1.5-2.7,2.7-2.5
					C262.7,121.8,263.5,123.2,263.2,124.8z"/>
				<path class="st1" d="M276.6,127.3c-0.3,1.6-1.5,2.7-2.7,2.5c-1.2-0.2-1.9-1.7-1.6-3.3c0.3-1.6,1.5-2.7,2.7-2.5
					C276.2,124.2,276.9,125.7,276.6,127.3z"/>
			</g>
			<g>
				<path class="st0" d="M328,228.2c-0.4,0-0.7-0.2-1-0.5l-13.3-15.9c-0.5-0.5-0.4-1.4,0.2-1.8c0.5-0.5,1.4-0.4,1.8,0.2l13.3,15.9
					c0.5,0.5,0.4,1.4-0.2,1.8C328.6,228.1,328.3,228.2,328,228.2z"/>
			</g>
			<polygon class="st1" points="259.5,210.2 227.5,213.2 212.1,172.7 235.2,170.7 264.6,168.7 			"/>
			<path class="st1" d="M232.9,202.6c1.2-5.3,3.8-10.1,7.6-14l10.9-11c4.2-4.3,9.7-7.1,15.8-8.2c-4.3,9.6-3.4,17.5,3.3,20.1
				c9.7,3.7,28-5.4,40.9-20.3c1.1-1.2,2.1-2.5,3-3.7c11.9,1.7,23.1,8,30.8,17.8l6,7l16,24.9L343.3,246l-15.5-19l-18.9,97.5H204.6
				l4-11.8c3.5-10.3,9.1-19.7,16.5-27.7l7.7-8.4L232.9,202.6z"/>
			<g>
				<path class="st0" d="M234.2,213.3c-0.7,0-1.2-0.5-1.3-1.2c-1.1-15.9,12.8-25,13.4-25.4c0.6-0.4,1.4-0.2,1.8,0.4
					c0.4,0.6,0.2,1.4-0.4,1.8c-0.1,0.1-13.2,8.6-12.2,23C235.5,212.7,235,213.3,234.2,213.3C234.2,213.3,234.2,213.3,234.2,213.3z"
					/>
			</g>
			<g>
				<g>
					<path class="st0" d="M265.9,288.1c5.7-3.3,12.7-3.4,18.6-0.4c1.5,0.4,3.1,1.1,4.5,1.8l9.2,5l64.1-25.1l-18.4-24.7l22.2-29.5
						l33.7,50.8l-0.2,0.2l1.6,2.2c9.5,13.3,3.2,32-12.4,36.8c-31.1,9.5-74.6,22.8-80.3,24.4l-0.1,0.1c-7.8,3.2-13.7,5-21.1,2.3
						l-10.7-4.4l3.7,2.3c1.7,1.1,2.5,3.3,1.7,5.2c-0.4,1-1.4,1.5-2.4,1.2l-9.4-3c-4.2-1.5-7.2-5.1-7.9-9.5l-3.5-22.9
						c-0.7-4.9,1.6-9.8,5.9-12.2L265.9,288.1z"/>
					<path class="st1" d="M280.1,337.7c-0.3,0-0.6,0-1-0.1l-9.4-3c-4.7-1.7-8-5.7-8.7-10.5l-3.5-22.9c-0.8-5.4,1.8-10.8,6.6-13.5
						l1.2-0.7l0,0c6.1-3.5,13.4-3.6,19.7-0.5c1.6,0.5,3.2,1.1,4.7,1.9l8.7,4.7l62-24.3l-17.4-23.4c-0.3-0.5-0.3-1.1,0-1.5l22.2-29.5
						c0.3-0.3,0.6-0.5,1.1-0.5c0.4,0,0.8,0.2,1,0.6l33.7,50.8c0.2,0.2,0.2,0.5,0.2,0.8l1.1,1.6c4.8,6.7,6,15,3.4,22.8
						c-2.6,7.8-8.6,13.6-16.5,16c-33.1,10.1-73.5,22.4-80.1,24.3c-0.1,0.1-0.2,0.1-0.3,0.2c-7.2,3-13.8,5.3-22,2.3l-3.6-1.5
						c0.4,1.2,0.4,2.5-0.1,3.8C282.6,336.9,281.4,337.7,280.1,337.7z M266.5,289.2l-1.2,0.7c-3.8,2.2-6,6.6-5.3,10.9l3.5,22.9
						c0.6,3.9,3.3,7.2,7,8.5l9.4,2.9c0.3,0.1,0.7-0.1,0.9-0.4c0.5-1.3,0-2.9-1.2-3.6l-3.7-2.3c-0.6-0.4-0.8-1.1-0.5-1.7
						c0.3-0.6,1-0.9,1.6-0.6l10.7,4.4c6.6,2.3,11.9,1.1,19.9-2.2c0.1-0.1,0.3-0.2,0.5-0.3c5.6-1.6,46.8-14.2,80.3-24.4
						c7.1-2.2,12.5-7.4,14.8-14.4c2.4-7,1.3-14.4-3.1-20.4l-1.6-2.2c-0.2-0.3-0.3-0.6-0.2-0.9l-32.3-48.6l-20.5,27.3l17.8,23.9
						c0.2,0.3,0.3,0.7,0.2,1.1c-0.1,0.4-0.4,0.7-0.8,0.8l-64.1,25.1c-0.4,0.1-0.7,0.1-1.1-0.1l-9.2-5c-1.3-0.7-2.8-1.3-4.3-1.7
						c-0.1,0-0.2-0.1-0.2-0.1C278.4,286,271.9,286.1,266.5,289.2L266.5,289.2z"/>
				</g>
				<g>
					<path class="st1" d="M258.7,302.3c-0.4,0-0.9-0.2-1.1-0.7c-0.3-0.6-0.1-1.4,0.5-1.8l11.1-6.3c0.6-0.4,1.4-0.1,1.8,0.5
						c0.3,0.6,0.1,1.4-0.5,1.8l-11.1,6.3C259.2,302.2,258.9,302.3,258.7,302.3z"/>
				</g>
				<g>
					<path class="st1" d="M260.3,311c-0.5,0-0.9-0.2-1.1-0.7c-0.3-0.6-0.1-1.4,0.5-1.7l10.5-5.5c0.6-0.3,1.4-0.1,1.7,0.5
						c0.3,0.6,0.1,1.4-0.5,1.7l-10.5,5.5C260.7,311,260.5,311,260.3,311z"/>
				</g>
				<g>
					<path class="st1" d="M261.8,319.6c-0.5,0-0.9-0.2-1.1-0.7c-0.3-0.6-0.1-1.4,0.5-1.7l10-5.4c0.6-0.3,1.4-0.1,1.7,0.5
						c0.3,0.6,0.1,1.4-0.5,1.7l-10,5.4C262.2,319.5,262,319.6,261.8,319.6z"/>
				</g>
			</g>
		</g>
		<g>
			<path class="st1" d="M158.8,126.1l-0.6-0.2c-5.5-2.1-10-6.1-12.7-11.4l-2.3-4.7l-10.9-5.7c-1.8-0.9-2.8-2.8-2.6-4.8
				c0.1-1.4,0.9-2.7,2.1-3.5c1.2-0.8,2.6-1.1,4-0.7l21.8,4.9l-0.6,2.5l-21.8-4.9c-0.7-0.2-1.4,0-1.9,0.3c-0.5,0.4-0.9,1-1,1.6
				c-0.1,0.9,0.4,1.8,1.2,2.3l11.6,6.1l2.7,5.5c2.3,4.7,6.3,8.3,11.2,10.2l0.6,0.2L158.8,126.1z"/>
		</g>
		<g>
			<path class="st1" d="M121,105.9c-1.1,0-2.2-0.1-3.3-0.3l0.5-2.5c3.8,0.8,7.7-0.1,10.9-2.3l1-0.7l1.5,2.1l-1,0.7
				C127.7,104.8,124.4,105.9,121,105.9z"/>
		</g>
		<g>
			<path class="st1" d="M125.3,113.4l-1.1-2.3l0.6-0.3c3.7-1.8,6.9-4.3,9.7-7.3l1.9,1.7c-3,3.3-6.5,6-10.5,7.9L125.3,113.4z"/>
		</g>
		<g>
			
				<rect x="134.4" y="109.3" transform="matrix(0.9701 -0.2425 0.2425 0.9701 -23.4949 36.3068)" class="st1" width="2.6" height="8.5"/>
		</g>
	</g>
</g>
</svg>
