<?xml version="1.0" encoding="utf-8"?>
<!-- Generator: Adobe Illustrator 26.3.1, SVG Export Plug-In . SVG Version: 6.00 Build 0)  -->
<svg version="1.1" id="sv" xmlns="http://www.w3.org/2000/svg" xmlns:xlink="http://www.w3.org/1999/xlink" x="0px" y="0px"
	 viewBox="0 0 410.3 366.7" style="enable-background:new 0 0 410.3 366.7;" xml:space="preserve">
<style type="text/css">
	.st0{fill:#FFFFFF;}
	.st1{fill:#080717;}
	.st2{fill:#A7D256;}
</style>
<g>
	<g>
		<path class="st0" d="M140.9,87.3L140.9,87.3c2.5,0.9,3.8,3.7,3,6.2l-5.4,15.3c0,0,4.4,14.7,4.4,22l58.3,45.6l-35.7,27.4
			l-53.3-81.1l23-33.5C136.4,87.3,138.8,86.6,140.9,87.3z"/>
		<path d="M165.1,206l-54.8-83.3l23.6-34.4c1.7-2.4,4.7-3.4,7.5-2.4l0,0c3.3,1.2,5,4.9,3.9,8.1l-5.2,14.9c0.7,2.5,4.1,14.3,4.3,21.2
			l59.2,46.3L165.1,206z M113.9,122.7l51.9,78.9l32.8-25.2l-57.3-44.9v-0.7c0-6.9-4.3-21.4-4.3-21.5l-0.1-0.5l5.5-15.8
			c0.6-1.8-0.3-3.7-2.1-4.3l0,0c-1.5-0.5-3.1,0-4,1.3L113.9,122.7z"/>
	</g>
	<g>
		<path class="st1" d="M147.8,66.3l-29.7,72.2c-2,4.9-7.1,7.8-12.3,7.2l-34.4-4.4l-7.9-1l33.3-81.5c1.6-3.9,5.6-6.3,9.8-5.8l36,4.3
			c1.5,0.2,2.8,0.8,3.8,1.8C148.1,60.9,148.9,63.7,147.8,66.3z"/>
	</g>
	<g>
		<path class="st0" d="M147.8,66.3l-29.7,72.2c-2,4.9-7.1,7.8-12.3,7.2l-34.4-4.4L104.1,61c1.6-3.9,5.6-6.3,9.8-5.8l32.4,3.9
			C148.1,60.9,148.9,63.7,147.8,66.3z"/>
		<path d="M107.2,147.3c-0.6,0-1.1,0-1.7-0.1l-36.4-4.7l33.6-82.1c1.8-4.5,6.5-7.3,11.4-6.7l32.9,3.9l0.4,0.4
			c2.4,2.3,3.1,5.8,1.8,8.9l0,0l-29.7,72.2C117.4,144.1,112.5,147.3,107.2,147.3z M73.4,140l32.5,4.2c4.6,0.6,9-2,10.8-6.2
			l29.7-72.2c0.7-1.8,0.4-3.8-0.8-5.2l-31.8-3.8c-3.5-0.4-6.9,1.6-8.2,4.8L73.4,140z"/>
	</g>
	<g>
		<path class="st2" d="M154.4,10c-20,0-36.2,16.2-36.2,36.2c0,8.2,2.7,15.7,7.3,21.8L118,84.6l18.2-7c5.4,3.1,11.6,5,18.3,5
			c20,0,36.2-16.2,36.2-36.2S174.5,10,154.4,10z"/>
	</g>
	<g>
		<path class="st0" d="M166.4,52c0,2.8-0.9,5-2.6,6.8c-1.8,1.8-4.1,2.8-7.1,3.2v4.2h-3.2V62c-2.7-0.2-5-0.9-6.9-2.3
			c-1.9-1.3-3.3-3.1-4.1-5.3l5.7-3.3c1,2.6,2.8,4.1,5.3,4.4v-8.3h0l-0.1,0c-2-0.7-3.7-1.5-5.2-2.5c-2.6-1.6-4-4.2-4.2-7.8
			c0-2.9,0.9-5.1,2.7-6.8c1.9-1.7,4.2-2.7,6.8-2.9v-4.2h3.2v4.3c4.4,0.5,7.4,2.8,9.2,6.8l-5.6,3.3c-0.8-1.9-2-3.1-3.7-3.5v8
			c3.1,1.3,5.1,2.2,6,2.8C165.1,46.4,166.4,48.9,166.4,52z M150.4,36.9c0,0.7,0.2,1.3,0.7,1.9c0.4,0.5,1.2,1.1,2.3,1.6v-6.7
			C151.4,34,150.4,35.1,150.4,36.9z M156.6,48.5v6.9c2.1-0.4,3.1-1.5,3.1-3.4C159.7,50.6,158.7,49.4,156.6,48.5z"/>
	</g>
	<g>
		<path class="st0" d="M53.9,237l21.5-71.3c0,0-18.6-19.9-23-31.9c-3.4-9.2-10-23.3-13-29.5c-0.7-1.6,0.4-3.4,2.1-3.3
			c3.4,0,8.2,0.5,9.9,3.2c2.8,4.3,8,16.2,8,16.2l7.7-23.1l16.4-3.3l-6.8,15.4l5.3,18.1c0.4,1.2,2.1,1.1,2.3-0.1
			c0.9-3.8,2.2-9.5,3.3-14.9c1.9-9.3,9.8-6.3,10.5-5c0.7,1.3-1.2,38.3-1.2,38.3l-6,93.3L53.9,237z"/>
		<path d="M92.6,240.7L52,238.4l21.8-72.3c-3.3-3.6-18.6-20.7-22.7-31.8c-3.4-9.2-10.2-23.6-12.9-29.4c-0.6-1.2-0.5-2.6,0.2-3.7
			c0.7-1.1,1.9-1.8,3.3-1.8c0,0,0,0,0,0c5.7,0,9.5,1.3,11.1,3.8c1.9,2.9,4.7,9,6.5,12.8l6.7-20.2l20.1-4l-7.7,17.5l4.9,16.5
			c0.9-3.8,2-8.9,3-13.8c1.2-5.9,4.7-7.3,6.7-7.6c2.8-0.4,5.9,0.8,6.6,2.2c0.2,0.5,0.9,1.7-1,39.1L92.6,240.7z M55.9,235.6l33.9,1.9
			l5.9-91.8c0.7-13.1,1.6-34.3,1.3-37.5c-0.6-0.4-2.3-1-4-0.5c-1.8,0.5-3,2.3-3.6,5.1c-1.1,5.4-2.4,11.1-3.3,14.9
			c-0.3,1.2-1.3,2.1-2.6,2.1c-1.2,0.1-2.3-0.7-2.7-1.9l-5.5-18.6l5.8-13.2l-12.7,2.5l-8.6,25.9l-1.6-3.6c-0.1-0.1-5.2-11.8-7.9-15.9
			c-1-1.6-4.2-2.5-8.6-2.5c0,0,0,0,0,0c-0.4,0-0.7,0.3-0.7,0.4c-0.1,0.1-0.2,0.4,0,0.8c2.8,5.8,9.6,20.3,13,29.6
			c4.3,11.6,22.5,31.2,22.7,31.4l0.6,0.6L55.9,235.6z M97.1,108.3L97.1,108.3L97.1,108.3z"/>
	</g>
	<g>
		<path d="M64.7,126.4c-0.1,0-0.1,0-0.2,0c-0.8-0.1-1.4-0.8-1.3-1.7L66.4,98c0.1-0.8,0.8-1.4,1.7-1.3c0.8,0.1,1.4,0.8,1.3,1.7
			l-3.2,26.8C66.1,125.8,65.4,126.4,64.7,126.4z"/>
	</g>
	<g>
		<path d="M56.7,143.2c-0.6,0-1.2-0.4-1.4-1c-2.4-6.4,2.2-20.9,2.4-21.5c0.3-0.8,1.1-1.2,1.9-1c0.8,0.3,1.2,1.1,1,1.9
			c-1.2,3.9-4.1,15.1-2.4,19.6c0.3,0.8-0.1,1.6-0.9,1.9C57.1,143.2,56.9,143.2,56.7,143.2z"/>
	</g>
	<g>
		<path class="st1" d="M246.6,61.7c-5.4-4.3-14,15.9-2.7,26.7c11.3,10.9,6.6,58.4,6.3,67c-0.2,8.6,10,26.5,42.1,29
			c0,0,0.9-7.7,7-9.1c6.1-1.4,42.1-19.7,38-58.4s-41.4-51.6-58-47.8c-5.7-7.7-10.4-19-14.5-12.7S258.2,70.7,246.6,61.7z"/>
	</g>
	<g>
		<path class="st0" d="M236.9,184.7l1.8-16.4c-29.4-0.2-32.4-51.2-23.8-54.4c8.6-3.2,11.5-8.8,22.2-23.1
			c10.6-14.3,29.4-15.4,29.4-15.4s6.1,10.2,9.3,13.4c3.2,3.2,7.5,7,1.4,7.9c-6.1,0.9-10,9.7-10,17c0,7.2-4.1,8.6-4.1,8.6l4.1,4.5
			c6.1-7.2,16.1-2.7,17-2.3c0.9,0.5,10.2,6.8,3.2,16.5c-7,9.7-18.8,2.5-18.8,2.5s0,0,0.7,20.1c0.7,20.2,22.2,20.4,22.2,20.4l1.3,8.4
			l-56.4-3.2L236.9,184.7z"/>
		<path d="M294.6,194.1l-59.8-3.4l2.3-21c-7.2-0.5-13.5-4.1-18.3-10.4c-4.1-5.4-7.2-13-8.6-21.4c-1.9-10.9-1-23.5,4.3-25.4
			c6.8-2.5,9.8-6.6,16.9-16.4c1.4-1.9,2.9-3.9,4.6-6.2c10.9-14.7,29.8-15.9,30.6-16l0.9-0.1l0.5,0.8c0.1,0.1,6.1,10.1,9.1,13.1
			l0.5,0.5c2.5,2.4,5,5,4.2,7.3c-0.7,2.1-3.4,2.5-4.2,2.6c-5.1,0.8-8.7,8.8-8.7,15.5c0,5-1.8,7.6-3.3,8.9l1.8,2
			c2.7-2.5,6.3-3.7,10.5-3.3c3.9,0.3,7,1.9,7.1,1.9c1,0.5,5.1,3.5,6.3,8.2c0.9,3.5,0,7-2.6,10.6c-5.3,7.3-13.4,6.3-18.4,4.1
			l0.6,17.6c0.6,18.5,19.9,18.9,20.7,18.9l1.3,0L294.6,194.1z M238.1,188l52.9,3l-0.9-5.4c-4.8-0.5-21.8-3.4-22.4-21.7l-0.8-22.9
			l2.4,1.5c0.4,0.3,10.7,6.4,16.8-2.1c2-2.8,2.7-5.5,2.1-8c-0.8-3.6-4.1-6-4.7-6.3c-0.1,0-9.6-4.7-15.2,1.9l-1.1,1.3l-6.8-7.5
			l2.2-0.7c0.1,0,3.1-1.2,3.1-7.2c0-8.1,4.3-17.4,11.2-18.5c1.5-0.2,1.8-0.6,1.8-0.6c0-0.7-2.3-3.1-3.5-4.2l-0.5-0.5
			c-2.8-2.8-7.5-10.3-9-12.8c-3.8,0.4-18.6,2.9-27.4,14.7c-1.7,2.3-3.2,4.3-4.6,6.2c-7.3,10-10.7,14.6-18.3,17.4
			c-2.4,0.9-4.5,9.9-2.4,22.1c4.7,27.1,20.8,29.3,25.6,29.3l1.7,0L238.1,188z"/>
	</g>
	<g>
		<path class="st1" d="M264.8,160.5c-0.2,0.6-7.2,18.4-27.8,23.2l1.8-16.4C238.7,167.3,257.4,170.3,264.8,160.5z"/>
	</g>
	<g>
		<path class="st1" d="M230,194.2l0.5-8.6c0,0,65.2,2.9,67.1,4.1c1.9,1.2,2.6,13.2,4.6,13.8c2.1,0.5,16.5-4.4,32.8,38.5
			s46.1,117.5,46.1,117.5L201,358.9l-17.4-63.8c0,0-94.6,41.2-104.7,42.9c-10.2,1.7-53.1-7.5-48.2-37.4
			c4.9-29.9,20.9-68.2,20.9-68.2l42.1,1.7l0.3,29.6l77.2-45.3L161,202.3l39.2-29.9L230,194.2z"/>
	</g>
	<g>
		<path class="st0" d="M171.1,222.3c-0.5,0-1-0.3-1.3-0.7c-0.4-0.7-0.2-1.6,0.5-2.1c23.6-13.8,45.4-19.2,59.6-21.4
			c15.4-2.4,25.1-1.5,25.5-1.4c0.8,0.1,1.4,0.8,1.3,1.6c-0.1,0.8-0.8,1.4-1.6,1.3c-0.4,0-39-3.4-83.2,22.4
			C171.7,222.3,171.4,222.3,171.1,222.3z"/>
	</g>
	<g>
		<path class="st0" d="M185.4,296.9c-0.7,0-1.3-0.4-1.4-1.1l-9.1-33c-0.2-0.8,0.2-1.6,1-1.8c0.8-0.2,1.6,0.2,1.8,1l9.1,33
			c0.2,0.8-0.2,1.6-1,1.8C185.7,296.9,185.5,296.9,185.4,296.9z"/>
	</g>
	<g>
		<path class="st0" d="M66.8,281.8c-0.5,0-1-0.3-1.3-0.8c-0.4-0.7-0.1-1.6,0.6-2l29.9-16.2c0.7-0.4,1.6-0.1,2,0.6
			c0.4,0.7,0.1,1.6-0.6,2l-29.9,16.2C67.2,281.7,67,281.8,66.8,281.8z"/>
	</g>
	<g>
		<path d="M249.5,107c0,0-0.1,0-0.1,0c-0.8-0.1-1.4-0.8-1.4-1.6c0.3-3.6-0.4-6.4-2.1-8.1c-2.3-2.4-5.8-2.2-5.8-2.2
			c-0.8,0.1-1.5-0.6-1.6-1.4c0-0.8,0.6-1.5,1.4-1.6c0.2,0,4.8-0.3,8.1,3.1c2.3,2.4,3.3,5.9,3,10.5C250.9,106.4,250.2,107,249.5,107z
			"/>
	</g>
	<g>
		<path d="M221.8,141.3c-1,0-1.9-0.1-2.6-0.3c-0.8-0.2-1.3-1-1.1-1.8c0.2-0.8,1-1.3,1.8-1.1c0.6,0.2,6.3,1.4,8-4.8
			c0.2-0.8,1.1-1.3,1.8-1c0.8,0.2,1.3,1,1,1.8C229.3,139.8,225.1,141.3,221.8,141.3z"/>
	</g>
	<g>
		<path d="M269.7,135.6c-0.2,0-0.4,0-0.6-0.1c-0.7-0.4-1.1-1.2-0.7-2c0.1-0.2,2.2-4.6,6.6-6.1c2.6-0.9,5.4-0.5,8.4,1.2
			c0.7,0.4,1,1.3,0.6,2c-0.4,0.7-1.3,1-2,0.6c-2.2-1.2-4.2-1.5-6-0.9c-3.2,1-4.8,4.5-4.8,4.5C270.8,135.3,270.3,135.6,269.7,135.6z"
			/>
	</g>
	<g>
		
			<ellipse transform="matrix(0.7762 -0.6305 0.6305 0.7762 -16.2423 173.4709)" class="st1" cx="236.2" cy="109.6" rx="3.5" ry="2.9"/>
	</g>
</g>
</svg>
