<?xml version="1.0" encoding="utf-8"?>
<!-- Generator: Adobe Illustrator 26.3.1, SVG Export Plug-In . SVG Version: 6.00 Build 0)  -->
<svg version="1.1" id="SV" xmlns="http://www.w3.org/2000/svg" xmlns:xlink="http://www.w3.org/1999/xlink" x="0px" y="0px"
	 viewBox="0 0 410.3 366.7" style="enable-background:new 0 0 410.3 366.7;" xml:space="preserve">
<style type="text/css">
	.st0{fill:#0B0817;}
	.st1{fill:#FFFFFF;}
	.st2{fill:#231F20;}
	.st3{fill:#FF7D65;}
	.st4{fill:#10111A;}
	.st5{fill:#69B4E3;}
	.st6{fill:#5F4EC6;}
</style>
<g>
	<g>
		<path class="st0" d="M26.7,247.5c-1.3-0.3-4.9,16.7-5.1,17.8c-3.8,26.1,17.5,50.5,44.2,47.3c12.5-1.5,24.3-7.3,35.1-13.5
			C140.9,275.7,26.7,247.5,26.7,247.5z"/>
	</g>
	<g>
		<path class="st0" d="M193.1,279.7c0,0-4.6,67,21,68.3c25.6,1.3,90.3-6.6,90.3-6.6s27.6,21,53.8,8.5c26.3-12.5,38.1-32.5,28.6-64.3
			s-11.8-90.9-36.1-103.4c-24.3-12.5-69.6-29.5-69.6-29.5s-70.6,3.3-77.5,13.8C196.7,176.9,193.1,279.7,193.1,279.7z"/>
	</g>
	<g>
		<path class="st1" d="M363.9,285.7c-0.2,0-0.4,0-0.5-0.1l-68.3-39.8c-0.5-0.3-0.7-0.9-0.4-1.4c0.3-0.5,0.9-0.7,1.4-0.4l68.3,39.8
			c0.5,0.3,0.7,0.9,0.4,1.4C364.6,285.6,364.3,285.7,363.9,285.7z"/>
	</g>
	<g>
		<path class="st1" d="M304.4,342.4c-0.2,0-0.5-0.1-0.7-0.3l-62.8-54c-0.4-0.4-0.5-1-0.1-1.5c0.4-0.4,1-0.5,1.5-0.1l62.8,54
			c0.4,0.4,0.5,1,0.1,1.5C305,342.3,304.7,342.4,304.4,342.4z"/>
	</g>
	<g>
		<path class="st0" d="M217.7,17.8c0,0,6.7,7.1,31.9,3.4s55.3-5.7,58.1,23.9c0,0,9.4-2.5,16.3,23.9s-13.3,41.5-17.9,58.1
			c-4.6,16.5-8.5,18.4-24.3,16.1s-73.4-69.3-73.4-69.3s-18.2-9.1-10.6-30.3c5.3-14.7,22-15.6,22-15.6S215.9,21.7,217.7,17.8z"/>
	</g>
	<g>
		<path class="st1" d="M208.7,73.7c0,0,1.5,15.1,1,30.6s-11.2,49.2,38.4,49.2v29.5c0,0,33,0.2,36.2-9.9c3.2-10-1.2-30.6-1.2-30.6
			s10.9-11.6,12.2-19.3c0,0,15.7,8.6,22.2-7.7c6.5-16.2-4.1-17.8-4.1-17.8s-7.3,4.4-12.5,0.5l-4.5,13.3c-0.5,1.6-2.3,2.5-3.9,1.9v0
			c-1.7-0.6-2.5-2.6-1.7-4.2c2.2-4.7,5.9-13.5,4.3-16.7c-2.3-4.4-8.8-12.3-6.2-22.7c0,0-18.7-7.8-20.2-20.4c0,0-10.1,11.3-27,8.8
			c0,0-6.7,12.7-19.2,15.1C212.9,75.2,208.7,73.7,208.7,73.7z"/>
		<path d="M248.4,184.1c-0.1,0-0.3,0-0.4,0l-1,0v-29.5c-15.7-0.1-26.5-3.7-32.9-10.7c-8.4-9.3-7-22.9-6-32.9
			c0.2-2.4,0.5-4.8,0.5-6.7c0.5-15.3-1-30.4-1-30.5l-0.2-1.7l1.6,0.6c0.1,0,4.2,1.4,13.2-0.3c11.8-2.3,18.4-14.5,18.4-14.6l0.3-0.7
			l0.7,0.1c16.1,2.5,26-8.3,26.1-8.4l1.5-1.7l0.3,2.3c1.4,11.8,19.4,19.4,19.6,19.5l0.8,0.3l-0.2,0.9c-2.1,8.2,1.9,14.9,4.6,19.3
			c0.6,1,1.1,1.9,1.5,2.7c1.4,2.7-0.1,8.6-4.3,17.6c-0.2,0.5-0.3,1.1,0,1.7c0.2,0.5,0.6,0.9,1.2,1.1c0.5,0.2,1.1,0.1,1.6-0.1
			c0.5-0.2,0.9-0.7,1-1.2l5-14.6l1.1,0.9c4.6,3.4,11.3-0.5,11.4-0.6l0.3-0.2l0.4,0.1c0.2,0,3.8,0.6,5.8,4.1c2,3.5,1.7,8.6-0.9,15.1
			c-2,5-5.1,8.3-9.1,9.8c-5.4,1.9-10.9,0.1-13.3-1c-2,7-10,16.1-11.8,18.1c0.7,3.4,4,21.2,1,30.6C282,183.7,253.2,184.1,248.4,184.1
			z M209.8,75c0.4,4.2,1.3,16.6,0.9,29.3c-0.1,2-0.3,4.4-0.6,6.9c-1,10.1-2.3,22.6,5.5,31.3c6,6.7,16.9,10,32.4,10h1V182
			c9.6-0.1,31.8-1.8,34.1-9.2c3.1-9.7-1.2-29.9-1.2-30.1l-0.1-0.5l0.4-0.4c0.1-0.1,10.7-11.4,12-18.7l0.2-1.4l1.3,0.7
			c0.1,0,6.7,3.6,12.8,1.4c3.5-1.2,6.1-4.1,7.9-8.6c2.3-5.8,2.7-10.3,1-13.2c-1.2-2.1-3.2-2.8-4-3c-1.5,0.8-7.2,3.6-12.1,1l-4.1,12
			c-0.4,1-1.1,1.9-2.1,2.4c-1,0.5-2.1,0.5-3.2,0.2c-1.1-0.4-2-1.2-2.4-2.3c-0.4-1.1-0.4-2.3,0.1-3.3c3.7-7.9,5.4-13.8,4.3-15.8
			c-0.4-0.7-0.9-1.6-1.5-2.6c-2.7-4.6-6.8-11.4-5-20c-1.6-0.7-5.2-2.5-8.9-5.2c-5.8-4.2-9.5-8.9-10.7-13.6c-3.4,3-12.4,9.6-25.8,7.8
			c-1.6,2.7-8.2,12.9-19.5,15C216.1,75.7,211.9,75.4,209.8,75z"/>
	</g>
	<g>
		<path class="st2" d="M264,79.9c-0.4,0-0.8-0.2-0.9-0.6c-4.6-9.7-13.4-5.7-13.8-5.6c-0.5,0.2-1.1,0-1.4-0.5c-0.2-0.5,0-1.1,0.5-1.4
			c0.2-0.1,4.7-2.2,9.4-0.5c3,1.1,5.4,3.5,7.1,7c0.2,0.5,0,1.1-0.5,1.4C264.3,79.9,264.2,79.9,264,79.9z"/>
	</g>
	<g>
		<path class="st2" d="M213.5,78.9c-0.1,0-0.2,0-0.3-0.1c-0.5-0.2-0.8-0.8-0.7-1.3c0-0.1,1.2-3.4,4.4-4.5c2.6-0.8,5.7,0,9.2,2.5
			c0.5,0.3,0.6,1,0.2,1.5c-0.3,0.5-1,0.6-1.5,0.2c-2.9-2.1-5.4-2.8-7.3-2.2c-2.2,0.7-3.1,3.1-3.1,3.2
			C214.3,78.7,213.9,78.9,213.5,78.9z"/>
	</g>
	<g>
		<path class="st2" d="M242.2,133.7c-1.4,0-2.6-0.2-3.5-0.5c-3-0.9-4.6-2.8-4.7-2.9c-0.4-0.4-0.3-1.1,0.1-1.5
			c0.4-0.4,1.1-0.3,1.5,0.1c0.2,0.3,5.3,6.1,15.2-0.2c0.5-0.3,1.1-0.2,1.4,0.3c0.3,0.5,0.2,1.1-0.3,1.4
			C248,133,244.8,133.7,242.2,133.7z"/>
	</g>
	<g>
		<path class="st2" d="M300.8,115.4c0,0-0.1,0-0.1,0c-0.6-0.1-1-0.6-0.9-1.1c1.2-11.6,14-12.3,14.1-12.3c0.6,0,1.1,0.4,1.1,1
			c0,0.6-0.4,1.1-1,1.1c0,0-2.9,0.2-5.8,1.6c-3.8,1.8-5.9,4.8-6.4,8.9C301.8,115,301.3,115.4,300.8,115.4z"/>
	</g>
	<g>
		<path class="st2" d="M249.7,154.6c-0.6,0-1.1,0-1.7,0c-0.6,0-1-0.5-1-1.1c0-0.6,0.5-1,1.1-1c19.1,0.5,29.5-8.5,29.6-8.6
			c0.4-0.4,1.1-0.4,1.5,0.1c0.4,0.4,0.4,1.1-0.1,1.5C278.6,145.8,268.7,154.6,249.7,154.6z"/>
	</g>
	<g>
		<path class="st3" d="M267.7,215c0,12.4-2.1,24.3-5.9,35.5c-14.8,43.3-55.7,74.4-104,74.4C97.2,324.8,48,275.6,48,215
			c0-36.4,17.7-68.7,45-88.7c18.2-13.3,40.6-21.2,64.8-21.2c0.3,0,0.6,0,0.9,0c0.3,0,0.6,0,0.8,0C219.5,106.1,267.7,154.9,267.7,215
			z"/>
	</g>
	<g>
		<path class="st4" d="M159.6,105.1L157.9,215L93,126.3c18.2-13.3,40.6-21.2,64.8-21.2C158.4,105.1,159,105.1,159.6,105.1z"/>
	</g>
	<g>
		<path class="st5" d="M267.7,215c0,12.4-2.1,24.3-5.9,35.5l-104-35.5l0.9-109.8c0.3,0,0.6,0,0.8,0
			C219.5,106.1,267.7,154.9,267.7,215z"/>
	</g>
	<g>
		<path class="st1" d="M265.8,175.4c-5.7,1.6-10.9,7.6-5.4,18.5c5.5,10.9,18.2,29.4,18.2,29.4s-42.7-25.3-46.3-23.7
			c-3.6,1.6-8.2,8.9-4.1,13.6c0,0-9.6,7.3,0.5,16.1c0,0-6.8,2.2,1.7,12s24,23.9,24,23.9s-11.2,20.6-12.9,22.2
			c-1.7,1.6,24.3,5.5,37.5-13.5s23.9-38.3,22-51.4C299.2,209.3,265.8,175.4,265.8,175.4z"/>
		<path d="M248.7,289.8c-1.8,0-3.4-0.1-4.8-0.3c-2.8-0.4-3.3-1.1-3.5-1.7c-0.1-0.5,0-0.9,0.3-1.3c1.1-1,7.9-13.3,12.3-21.2
			c-3-2.7-16-14.8-23.5-23.4c-3.6-4.2-5.1-7.7-4.4-10.4c0.3-1.2,1-2,1.7-2.5c-2.7-2.7-4-5.5-3.9-8.5c0.1-3.7,2.5-6.4,3.8-7.6
			c-1.2-1.8-1.5-4-1-6.4c0.8-3.4,3.4-6.9,6.1-8c0.9-0.4,2.7-1.2,25.4,11.3c6.9,3.8,13.8,7.8,17.9,10.2c-4-6-11.7-17.9-15.7-25.7
			c-3.3-6.6-2.7-11.1-1.5-13.7c1.3-3,4.1-5.3,7.5-6.3l0.6-0.2l0.4,0.4c1.4,1.4,33.6,34.4,35.5,47.7c1.7,11.4-5.6,28.5-22.2,52.1
			C271.4,286.7,257.7,289.8,248.7,289.8z M243,287.2c1.8,0.5,6.4,1,12.4,0c6.8-1.2,16.3-4.5,22.9-13.9
			c16.2-23.2,23.4-39.8,21.8-50.6c-1.7-11.8-30.6-42-34.5-46.1c-2.6,0.9-4.6,2.6-5.6,4.9c-1.4,3.2-0.9,7.3,1.5,11.9
			c5.4,10.7,18,29.1,18.1,29.3l2.7,3.9l-4-2.4c-20.3-12-42.8-24.1-45.4-23.6c-1.8,0.8-4.2,3.5-4.9,6.6c-0.3,1.4-0.4,3.6,1.2,5.4
			l0.7,0.8l-0.9,0.7c0,0-3.6,2.8-3.7,6.7c-0.1,2.6,1.3,5.2,4.3,7.8l1.4,1.2l-1.7,0.6c0,0-1.4,0.5-1.7,1.9c-0.4,1.4,0,3.9,3.9,8.4
			c8.4,9.6,23.8,23.6,23.9,23.8l0.6,0.5l-0.4,0.7C253.6,268.8,245.8,283.2,243,287.2z"/>
	</g>
	<g>
		<path class="st1" d="M36.1,189.2c0,0-9.7,3.7-12.3,20S6.8,285,72,285c0,0-10.5-20.9-11.6-29.3c0,0,24.6-3.5,29.2-20.5
			c0,0,11.7-4.9,6.4-14.4c0,0,6.5-3.9,2.3-12.9c-4.9-1-61.5,2.6-61.5,2.6s4.5-6.4,16.8-6.9s31.6-1.3,34-6.6c2.3-5.3-0.7-8.7-4.3-9.4
			C79.4,186.8,45.8,181.8,36.1,189.2z"/>
		<path d="M73.7,286.1H72c-19.3,0-33.4-5.2-42.1-15.5c-14.7-17.5-9.9-45-7.7-58.2c0.2-1.2,0.4-2.4,0.6-3.3
			c2.5-15.8,11.4-20.2,12.8-20.7c10.9-8.1,47.3-1.8,47.7-1.8c2.3,0.5,4.2,1.8,5.2,3.7c0.7,1.4,1.3,3.8-0.1,7.1
			c-2.3,5.3-16.6,6.4-33.6,7.2l-1.2,0.1c-7.4,0.4-11.9,2.9-14.1,4.7c11.6-0.7,54.7-3.3,59.1-2.4l0.5,0.1l0.2,0.5
			c3.6,7.7-0.2,12.1-1.9,13.6c1.2,2.6,1.4,5,0.6,7.4c-1.5,4.3-6,6.8-7.4,7.5c-2.1,7.1-7.9,12.9-16.8,16.9c-5.2,2.3-10,3.4-12.1,3.8
			c1.7,8.7,11.3,27.8,11.4,28L73.7,286.1z M36.5,190.2c-0.1,0-9.2,3.7-11.6,19.2c-0.2,1-0.3,2.1-0.6,3.3
			c-2.2,12.9-6.9,39.8,7.2,56.5c8,9.5,21,14.5,38.8,14.8c-2.5-5-10-20.9-11-28.1l-0.1-1l1-0.1c0.2,0,23.9-3.6,28.3-19.8l0.1-0.5
			l0.5-0.2c0.1,0,5.3-2.3,6.8-6.5c0.7-2,0.4-4.2-0.9-6.5l-0.5-0.9l0.9-0.5c0.2-0.1,5.4-3.4,2.1-11c-6.1-0.6-45.6,1.7-60.8,2.7
			l-2.2,0.1l1.3-1.8c0.2-0.3,4.9-6.8,17.6-7.4l1.2-0.1c10.4-0.5,29.8-1.4,31.8-6c0.9-2,1-3.9,0.2-5.3c-0.7-1.3-2.1-2.3-3.8-2.6
			c-4.6-0.9-37.1-5.4-46.1,1.5l-0.1,0.1L36.5,190.2z"/>
	</g>
	<g>
		<path d="M272.1,259.4c-0.2,0-0.4-0.1-0.6-0.2l-43.5-29.1c-0.5-0.3-0.6-1-0.3-1.4c0.3-0.5,1-0.6,1.4-0.3l43.5,29.1
			c0.5,0.3,0.6,1,0.3,1.4C272.8,259.2,272.5,259.4,272.1,259.4z"/>
	</g>
	<g>
		<path d="M282.7,245.6c-0.2,0-0.4,0-0.5-0.1L227.7,214c-0.5-0.3-0.7-0.9-0.4-1.4c0.3-0.5,0.9-0.7,1.4-0.4l54.5,31.5
			c0.5,0.3,0.7,0.9,0.4,1.4C283.4,245.5,283.1,245.6,282.7,245.6z"/>
	</g>
	<g>
		<path d="M289.8,231.4c-0.2,0-0.4,0-0.5-0.2l-13.6-8.2c-0.5-0.3-0.6-0.9-0.4-1.4c0.3-0.5,0.9-0.7,1.4-0.4l13.6,8.2
			c0.5,0.3,0.6,0.9,0.4,1.4C290.5,231.2,290.2,231.4,289.8,231.4z"/>
	</g>
	<g>
		<path d="M260.4,271.1c-0.2,0-0.5-0.1-0.7-0.3l-9.5-8.2c-0.4-0.4-0.5-1-0.1-1.5c0.4-0.4,1-0.5,1.5-0.1l9.5,8.2
			c0.4,0.4,0.5,1,0.1,1.5C261,271,260.7,271.1,260.4,271.1z"/>
	</g>
	<g>
		<path class="st2" d="M33.9,227.3c-0.5,0-1-0.4-1-0.9c-0.1-0.6,0.4-1.1,0.9-1.1l62-5.5c0.6-0.1,1.1,0.4,1.1,0.9
			c0.1,0.6-0.4,1.1-0.9,1.1L33.9,227.3C34,227.3,33.9,227.3,33.9,227.3z"/>
	</g>
	<g>
		<path class="st2" d="M39,244.3c-0.5,0-0.9-0.4-1-0.9c-0.1-0.6,0.3-1.1,0.9-1.2l50.6-8.1c0.6-0.1,1.1,0.3,1.2,0.9
			c0.1,0.6-0.3,1.1-0.9,1.2l-50.6,8.1C39.1,244.3,39,244.3,39,244.3z"/>
	</g>
	<g>
		<path class="st2" d="M45,258.6c-0.5,0-1-0.4-1-0.9c-0.1-0.6,0.3-1.1,0.9-1.2l15.3-1.9c0.6-0.1,1.1,0.3,1.2,0.9
			c0.1,0.6-0.3,1.1-0.9,1.2l-15.3,1.9C45.1,258.6,45.1,258.6,45,258.6z"/>
	</g>
	<g>
		<ellipse class="st0" cx="217.1" cy="96.7" rx="4.1" ry="5.2"/>
	</g>
	<g>
		<ellipse class="st0" cx="256.5" cy="100.1" rx="4.1" ry="5.2"/>
	</g>
	<g>
		<path class="st6" d="M218,115c-0.8,0-1.7,0-2.8-0.1c-0.5,0-0.9,0-1.2,0c-2.7,0-4.9-0.1-7-0.4c-3.9-0.6-6.7-1.6-8.9-3.3
			c-6.2-4.6-7.4-15.5-6-21.6c0.7-3.1,2.7-6.6,5.8-6.6h0c2.4,0,29.1,0.8,30.2,0.8l1.1,0l-1.4,24.2l-0.2,0.3c0,0-4.5,5.6-4.5,5.6
			C222.6,114.7,221.3,115,218,115z M214.1,112.9c0.3,0,0.7,0,1.2,0c1.4,0,5.5,0.2,6.3-0.3l4.2-5.3l1.2-21.4
			c-5.1-0.1-27-0.8-29.1-0.8c-1.8,0-3.2,3-3.7,5c-1.5,6.2,0.2,15.7,5.2,19.4c2,1.5,4.5,2.4,8,2.9
			C209.4,112.8,211.5,112.9,214.1,112.9C214.1,112.9,214.1,112.9,214.1,112.9z"/>
	</g>
	<g>
		<path class="st6" d="M264.5,119c-0.8,0-1.5,0-2.2,0c-0.8,0-1.5,0-2.2,0c-4.7,0-9.2-0.2-12.9-2.8c-3.1-2.2-5.4-5.9-7-11.3
			c-0.3-1-1.1-6-1.6-10.2c-1.2-9.3-0.9-9.7-0.6-10.1l0.3-0.4l0.5,0c0,0,0,0,0,0l0,0v0c0.2,0,2.6,0,34.9,0.5
			c4.2,0.1,12.2,2.2,11.9,9.1c-0.3,7.7-6.7,17.8-12.8,23.1C270.5,118.6,267.5,119,264.5,119z M260.3,116.8c0.6,0,1.3,0,2,0
			c3.2,0.1,6.9,0.2,9.1-1.8c5.8-5,11.8-14.5,12.1-21.6c0.1-2.7-1.5-4.6-4.6-5.8c-2.6-1-5.2-1.1-5.3-1.1l-33.9-0.5
			c0.1,3.5,2,16.5,2.4,18.1c1.5,4.9,3.6,8.3,6.3,10.2c3.2,2.3,7.3,2.5,11.6,2.4C260.2,116.8,260.2,116.8,260.3,116.8z M238.8,85l0,1
			l0,0L238.8,85z"/>
	</g>
	<g>
		
			<rect x="227.7" y="84" transform="matrix(1 -2.604158e-03 2.604158e-03 1 -0.2206 0.6077)" class="st6" width="11.1" height="2.1"/>
	</g>
	<g>
		
			<rect x="294" y="86.9" transform="matrix(0.1062 -0.9943 0.9943 0.1062 167.2206 380.1333)" class="st6" width="2.1" height="20.3"/>
	</g>
	<g>
		<path class="st1" d="M232.6,92.5c0,0,1.4,3.1-0.9,5.2c-2.3,2.1-16.9,13.4-1.6,21.8"/>
		<path class="st2" d="M230.1,120.5c-0.2,0-0.3,0-0.5-0.1c-4.5-2.5-7-5.5-7.4-9c-0.7-6.3,5.9-11.9,8.3-14c0.2-0.2,0.4-0.3,0.5-0.4
			c1.7-1.5,0.7-3.9,0.7-4c-0.2-0.5,0-1.1,0.5-1.4c0.5-0.2,1.1,0,1.4,0.5c0.1,0.2,1.7,3.8-1.2,6.4c-0.1,0.1-0.3,0.3-0.5,0.5
			c-2.2,1.9-8.1,7-7.6,12.2c0.3,2.7,2.4,5.2,6.3,7.4c0.5,0.3,0.7,0.9,0.4,1.4C230.8,120.3,230.4,120.5,230.1,120.5z"/>
	</g>
</g>
</svg>
