<?xml version="1.0" encoding="utf-8"?>
<!-- Generator: Adobe Illustrator 26.3.1, SVG Export Plug-In . SVG Version: 6.00 Build 0)  -->
<svg version="1.1" id="sv" xmlns="http://www.w3.org/2000/svg" xmlns:xlink="http://www.w3.org/1999/xlink" x="0px" y="0px"
	 viewBox="0 0 410.3 366.7" style="enable-background:new 0 0 410.3 366.7;" xml:space="preserve">
<style type="text/css">
	.st0{fill:#FFFFFF;}
	.st1{fill:#FFFFFF;stroke:#000000;stroke-width:3;stroke-miterlimit:10;}
	.st2{fill:#53D1D9;}
	.st3{fill:#10111A;}
	.st4{fill:#090919;}
	.st5{fill:#080717;}
</style>
<g>
	<g>
		<path class="st0" d="M291.5,346.1c0,0-20.6-95.8-46.1-119.5s-61.3-17.3-61.3-17.3l-74.5,6c0,0-41.4,2.2-48.1,35s22,95.4,22,95.4"
			/>
		<path d="M290.1,346.4c-0.1-0.2-5.2-24.2-13.5-50.7c-10.8-35-22-58.5-32.2-68c-24.6-23-59.7-17-60-16.9l-0.1,0l-74.5,6
			c-0.1,0-10.3,0.6-21.2,5.1c-14.3,6-22.9,15.6-25.5,28.7c-6.5,32,21.6,93.9,21.9,94.5l-2.7,1.2c-0.1-0.2-7.3-15.9-13.6-35.6
			c-8.5-26.5-11.4-46.9-8.6-60.8c6.8-33.6,49-36.2,49.4-36.2l74.4-6c1.9-0.3,37.3-5.8,62.5,17.7c25.6,23.8,45.7,116.4,46.6,120.3
			L290.1,346.4z"/>
	</g>
	<g>
		<path class="st1" d="M110.8,346.1"/>
	</g>
	<g>
		<path class="st0" d="M125.3,171.4c0,0,8.2,31,6.9,43.1l-22.6,0.7c0,0,28.1,38,55.9,30.9c27.8-7.1,18.6-36.9,18.6-36.9l-14.1,0.5
			l-1.8-23.6l-33.8-18.8L125.3,171.4z"/>
		<path d="M158.5,248.5c-10,0-21-4.7-32.3-14c-10.5-8.6-17.5-18-17.8-18.4l-1.7-2.3l24.2-0.8c0.6-12.5-6.9-41-7-41.2l-0.3-1.2
			l11-4.8l35.1,19.6l1.8,22.9l13.8-0.5l0.3,1.1c0.2,0.6,4.4,14.7-2.1,26.2c-3.5,6.2-9.4,10.5-17.6,12.6
			C163.5,248.2,161,248.5,158.5,248.5z M112.6,216.7c6.6,8,29.9,33.8,52.5,28c7.4-1.9,12.7-5.6,15.7-11.1c4.9-8.6,2.9-19.4,2.1-22.8
			l-14.3,0.6l-1.9-24.2l-32.4-18.1l-7.3,3.2c1.5,6,7.8,31.4,6.7,42.4l-0.1,1.3L112.6,216.7z"/>
	</g>
	<g>
		<path d="M132.3,216c-0.8,0-1.5-0.7-1.5-1.5c0-0.8,0.7-1.5,1.5-1.5l6.7-0.1c0,0,0,0,0,0c0.8,0,1.5,0.7,1.5,1.5
			c0,0.8-0.7,1.5-1.5,1.5L132.3,216C132.3,216,132.3,216,132.3,216z"/>
	</g>
	<g>
		<path class="st2" d="M124.1,223.3V289c0,11.1-9,20.2-20.2,20.2H37.7c-5.3,0-10.2-2.1-13.8-5.5c-3.4-3.2-5.8-7.6-6.3-12.5v0
			c-0.1-0.7-0.1-1.4-0.1-2.2v-65.7c0-11.1,9-20.2,20.2-20.2h66.2C115.1,203.2,124.1,212.2,124.1,223.3z"/>
	</g>
	<g>
		<path class="st0" d="M76.6,211.2L76,229c-0.1,1.9-2.4,2.8-3.7,1.5l-3.6-3.6l-26.4,26c-2,2-5.3,1.9-7.2-0.1l-3.2-3.3
			c-1.6-1.6-4.2-1.7-5.8-0.2l-8.4,7.6v-17.6l9.4-8.4c1.7-1.5,4.3-1.4,5.8,0.2l2.7,2.8c2,2.1,5.3,2.1,7.3,0l16.8-17.1l-4.1-4.1
			c-1.4-1.4-0.4-3.7,1.6-3.7l17.5,0.1C75.7,209,76.7,210,76.6,211.2z"/>
	</g>
	<g>
		<path class="st0" d="M116.2,223.1l-0.7,19c-0.1,1.6-2,2.3-3.1,1.2l-4.2-4.2l-27.7,27.3c-1.3,1.3-3.4,1.3-4.7-0.1l-3.7-3.8
			c-2-2.1-5.3-2.1-7.4,0l-40.9,41.3c-3.4-3.2-5.8-7.6-6.3-12.5v0L65.8,244c2-2,5.3-2,7.3,0.1l3.1,3.3c1.3,1.3,3.4,1.3,4.7,0
			l18.1-18.4l-4.7-4.7c-1.2-1.2-0.3-3.1,1.3-3.1l18.7,0.1C115.4,221.2,116.3,222.1,116.2,223.1z"/>
	</g>
	<g>
		<path class="st0" d="M110.6,272.8L110,292c-0.1,1.5-1.9,2.3-3,1.2l-4.3-4.3l-20.7,20.4H63.6l-0.7-0.8l-0.7,0.8H44.4L63.9,290
			l9.1,9.5l20.5-20.8l-4.8-4.8c-1.1-1.1-0.3-3,1.3-3l18.9,0.1C109.9,271,110.7,271.8,110.6,272.8z"/>
	</g>
	<g>
		<path class="st0" d="M391.7,131.1c0,12.3-1.9,24.1-5.5,35.3c-15,47-59.1,81-111.1,81c-64.4,0-116.6-52-116.6-116.2
			c0-37.5,17.9-71,45.6-92.2c19.7-15.1,44.3-24,71-24h0c0.1,0,0.2,0,0.4,0C339.7,15,391.7,67,391.7,131.1z"/>
		<path d="M275.1,248.8c-65.1,0-118.1-52.8-118.1-117.8c0-36.9,16.8-70.9,46.2-93.4c20.8-15.9,45.6-24.4,71.9-24.4
			c0.2,0,0.3,0,0.4,0c64.9,0.2,117.6,53,117.6,117.7c0,12.2-1.9,24.2-5.5,35.7c-7.5,23.6-22.1,44-42.2,58.8
			C325,240.8,300.7,248.8,275.1,248.8z M275.2,16.3C275.2,16.3,275.2,16.3,275.2,16.3c-25.7,0-49.9,8.2-70.2,23.7
			c-28.6,21.9-45,55.1-45,91c0,63.3,51.6,114.8,115.1,114.8c24.9,0,48.6-7.8,68.6-22.6c19.6-14.5,33.8-34.3,41.1-57.4
			c3.6-11.2,5.4-22.9,5.4-34.8c0-63.1-51.4-114.5-114.7-114.7l-0.1,0C275.3,16.3,275.3,16.3,275.2,16.3z"/>
	</g>
	<g>
		<path class="st2" d="M391.7,131.1c0,12.3-1.9,24.1-5.5,35.3l-111.1-35.3l0.4-116.2C339.7,15,391.7,67,391.7,131.1z"/>
	</g>
	<g>
		<path class="st3" d="M275.1,14.8l0,116.2l-71-92.2C223.8,23.8,248.4,14.8,275.1,14.8L275.1,14.8z"/>
	</g>
	<g>
		<path class="st2" d="M387.7,166.8l-2.9-0.9c3.6-11.2,5.4-22.9,5.4-34.8c0-63.1-51.4-114.5-114.7-114.7l0-3
			c64.9,0.2,117.7,53,117.7,117.7C393.2,143.3,391.3,155.3,387.7,166.8z"/>
	</g>
	<g>
		<ellipse class="st4" cx="149.4" cy="132.5" rx="44.2" ry="42.2"/>
	</g>
	<g>
		<path class="st0" d="M190.3,135.2c-0.9-5-6.6-28.7-32.1-29.1c0,0-0.1,6.8-2.4,15.2c-3.2,11.9-10.9,26.9-28.7,29.6
			c-0.7,0.1-1.4,0.2-2.1,0.3c0,0-21,0-16.9,15.7c4.5,16.7,22,6.2,22.8,5.7c5.9,11.1,17.6,18.6,31,18.6c19.4,0,35.2-15.7,35.2-35.2
			C197.1,148.2,194.6,141,190.3,135.2z"/>
		<path d="M162,192.6c-13,0-25-6.9-31.6-18c-3,1.6-10.2,4.7-16.1,2.3c-3.7-1.5-6.2-4.7-7.5-9.7c-1.2-4.4-0.6-8.1,1.6-11.1
			c4.8-6.2,15.5-6.5,16.6-6.5c0.6-0.1,1.3-0.1,2-0.2c17-2.6,24.4-16.9,27.5-28.5c2.2-8.1,2.3-14.8,2.3-14.8l0-1.5l1.5,0
			c26.1,0.4,32.4,24.3,33.5,30c4.5,6.3,6.9,13.6,6.9,21.4C198.6,176.1,182.2,192.6,162,192.6z M131.5,170.4l0.8,1.4
			c5.9,11,17.2,17.8,29.7,17.8c18.6,0,33.7-15.1,33.7-33.7c0-7.2-2.2-14.1-6.5-19.9l-0.2-0.3l-0.1-0.3c-0.8-4.5-6-26.6-29.2-27.8
			c-0.2,2.5-0.7,7.8-2.4,14c-3.4,12.4-11.3,27.9-29.9,30.7c-0.7,0.1-1.5,0.2-2.2,0.3l-0.1,0c-0.1,0-10.3,0.1-14.3,5.3
			c-1.7,2.2-2,5-1.1,8.5c1.1,4,3,6.6,5.8,7.7c6.1,2.4,14.4-2.6,14.8-2.9L131.5,170.4z"/>
	</g>
	<g>
		<circle class="st5" cx="105.8" cy="95" r="37.8"/>
	</g>
	<g>
		<path d="M153.8,135.9c-0.1,0-0.3,0-0.4-0.1c-0.8-0.2-1.3-1-1-1.8c0.1-0.2,1.5-5.2,5.8-7c2.7-1.1,5.9-0.7,9.4,1.2
			c0.7,0.4,1,1.3,0.6,2c-0.4,0.7-1.3,1-2,0.6c-2.6-1.5-4.9-1.8-6.7-1.1c-3,1.2-4.1,5-4.1,5.1C155.1,135.4,154.5,135.9,153.8,135.9z"
			/>
	</g>
	<g>
		<path d="M183.8,152.1c-0.3,0-0.7-0.1-1-0.3c-0.6-0.5-0.7-1.5-0.2-2.1c1.6-1.9,1.9-2.2-0.8-5.2c-0.2-0.2-0.4-0.4-0.6-0.7
			c-2.4-2.6-7.5-8.1-6.3-14.1c0.7-3.8,3.9-7.1,9.4-9.7c0.8-0.4,1.6,0,2,0.7c0.4,0.7,0,1.6-0.7,2c-4.6,2.2-7.2,4.7-7.8,7.6
			c-0.9,4.5,3.5,9.2,5.6,11.5c0.2,0.3,0.5,0.5,0.6,0.7c3.1,3.4,3.9,5.5,0.9,9.1C184.6,152,184.2,152.1,183.8,152.1z"/>
	</g>
	<g>
		<path d="M179.1,164.5c-0.4,0-0.8,0-1.2-0.1c-5.8-0.7-9.1-6.4-9.2-6.6c-0.4-0.7-0.1-1.6,0.6-2c0.7-0.4,1.6-0.1,2,0.6l0,0
			c0,0,2.7,4.6,7,5.1c3,0.4,6.2-1.3,9.6-4.8c0.6-0.6,1.5-0.6,2.1-0.1c0.6,0.6,0.6,1.5,0.1,2.1C186.4,162.6,182.7,164.5,179.1,164.5z
			"/>
	</g>
	<g>
		<ellipse class="st5" cx="164" cy="140.5" rx="3.4" ry="4.3"/>
	</g>
	<g>
		<ellipse class="st5" cx="184" cy="135.2" rx="2.6" ry="3.3"/>
	</g>
	<g>
		<path d="M129.9,165.3c-0.4,0-0.8-0.2-1.1-0.5c-7.1-7.9-13.2-3.4-13.4-3.2c-0.7,0.5-1.6,0.4-2.1-0.3s-0.4-1.6,0.2-2.1
			c0.1-0.1,8.5-6.5,17.5,3.6c0.6,0.6,0.5,1.6-0.1,2.1C130.6,165.1,130.3,165.3,129.9,165.3z"/>
	</g>
	<g>
		<path class="st0" d="M256.7,346c0,0,19.2-120.4,44.8-133.5c25.6-13.1,32.3-11.6,34.3-36.1c0,0-9.8-21.7,1.9-24.7l2.2,4
			c0,0-0.8-9.4,6.9-11.9l6.5,13.9c0,0,2.3-11.1,8.5-12.1l8.7,27.4l-1.8,16.8c0,0,7.5-3.2,8-7c0.5-3.8-8.9-21.7,4.2-23.5l9.3,32.1
			c0,0-55.3,44.6-55.8,47.1c-0.5,2.6-15.1,108.3-15.1,108.3"/>
		<path d="M320.8,347l-3-0.4c0.6-4.3,14.7-105.8,15.2-108.4c0.2-0.9,0.4-2.1,28.6-25.4c11.9-9.8,23.8-19.5,26.9-22l-8.6-29.9
			c-1.5,0.4-2.6,1.1-3.4,2.2c-2.2,3.3-0.5,9.6,0.7,14.1c0.7,2.5,1.2,4.4,1,5.6c-0.6,4.6-8,7.9-8.9,8.2l-2.3,1l2-19l-8.2-25.7
			c-3.5,1.7-5.6,8-6.1,10.5l-0.9,4.4l-7.8-16.6c-5.2,2.7-4.6,9.8-4.6,9.8l0.6,7.2l-5-9.3c-1.2,0.5-2.1,1.4-2.7,2.6
			c-2.6,5.3,1.2,16,2.8,19.7l0.2,0.4l0,0.4c-1.8,21.3-7.4,23.9-24,31.8c-3.3,1.5-6.9,3.3-11.2,5.5c-10.1,5.1-20.9,29.6-31.2,70.7
			c-7.9,31.3-12.7,61.4-12.8,61.7l-3-0.5c0.8-4.9,19.6-121.3,45.6-134.6c4.2-2.2,8-3.9,11.2-5.5c16.2-7.7,20.6-9.8,22.3-29
			c-1-2.3-6-14.8-2.6-21.8c1.1-2.4,3.1-3.9,5.7-4.6l1.1-0.3l0.4,0.7c0.9-3.3,3-6.9,7.4-8.3l1.3-0.4l5.4,11.6
			c1.4-3.6,4.1-8.6,8.6-9.4l1.3-0.2l9.2,28.9l-1.5,14.4c2.3-1.3,4.5-3.1,4.7-4.6c0.1-0.7-0.5-2.7-1-4.5c-1.4-5.1-3.3-12.1-0.3-16.5
			c1.4-2.1,3.6-3.4,6.7-3.8l1.3-0.2l9.9,34.3l-0.8,0.6c-20.2,16.3-52.8,43.1-55.3,46.5C335.2,243.6,325.8,311.2,320.8,347z"/>
	</g>
	<g>
		<path class="st0" d="M125.6,345.6c0,0-9.7-33.9-23.6-36.7s-22.2-0.6-22.2-0.6s2.6-18.4-11.9-15.7c0,0-0.7-10.2-8.1-10.7
			c-5.6-0.4-6.9,7.2-6.9,7.2s-3.9-9.2-11.5-3.9c-3.8,2.6-3.1,17.1-2.9,20.8c0,0.3-0.3,0.5-0.6,0.3c-2.7-2.6-13.5-12.3-20.1-8.2
			c-6.7,4.1-1.8,7.1,1.2,10.1c3.1,2.9,19,18.8,19,18.8l21.8,0.4L70,346.2"/>
		<path d="M68.6,346.9L59,328.8l-21.6-0.4L37,328c-0.2-0.2-16-15.9-19-18.8c-0.4-0.3-0.7-0.7-1.1-1c-2-1.8-4.2-3.8-3.9-6.4
			c0.2-1.8,1.5-3.5,4.1-5c6.3-3.8,15.2,2.5,19.8,6.5c-0.3-7.1,0-16.8,3.7-19.3c2.5-1.8,5-2.3,7.4-1.6c2,0.6,3.5,1.9,4.6,3.2
			c1.2-2.7,3.6-5.4,7.4-5.2c6.7,0.4,8.7,7.3,9.3,10.5c3.5-0.3,6.3,0.5,8.4,2.5c3.7,3.6,4,9.8,3.9,13.1c3.3-0.5,10.6-1.1,20.9,1
			c14.6,3,24.3,36.3,24.7,37.8l-2.9,0.8c0-0.1-2.4-8.5-6.5-17.1c-5.2-11.1-10.7-17.5-15.9-18.5c-13.4-2.7-21.5-0.7-21.5-0.6
			l-2.2,0.6l0.3-2.2c0-0.1,1.2-8.7-2.8-12.5c-1.7-1.6-4.1-2.1-7.3-1.5l-1.6,0.3l-0.1-1.7c0-0.1-0.7-8.9-6.7-9.3
			c-4.2-0.3-5.3,5.7-5.3,6l-0.8,5.1l-2-4.7c0,0-1.6-3.7-4.5-4.5c-1.4-0.4-3.1,0-4.8,1.2c-2,1.4-2.9,9.4-2.2,19.5
			c0,0.8-0.4,1.5-1.1,1.8c-0.7,0.3-1.5,0.2-2-0.3c-5.6-5.4-13.8-10.8-18.3-8c-1.6,1-2.6,2-2.6,2.8c-0.1,1.1,1.5,2.6,2.9,3.9
			c0.4,0.4,0.8,0.7,1.2,1.1c2.8,2.6,16,15.8,18.6,18.4l22.1,0.4l10.5,19.7L68.6,346.9z"/>
	</g>
	<g>
		<path d="M61,328.9c-0.4,0-0.8,0-1.3-0.1c-0.8-0.1-1.4-0.8-1.4-1.6s0.8-1.4,1.6-1.4c3.8,0.3,5.9-1.1,6-1.2l0.5-0.3l0.6,0.1
			c14.2,2.8,17.7-7.5,17.9-7.9c0.3-0.8,1.1-1.2,1.9-1c0.8,0.3,1.2,1.1,1,1.9c0,0.1-4.3,13-20.8,10.1C66.2,328,64.1,328.9,61,328.9z"
			/>
	</g>
	<g>
		<path d="M53,328.5C53,328.5,53,328.5,53,328.5c-0.8,0-1.5-0.7-1.5-1.5l0.1-37.1c0-0.8,0.7-1.5,1.5-1.5c0,0,0,0,0,0
			c0.8,0,1.5,0.7,1.5,1.5L54.5,327C54.5,327.9,53.8,328.5,53,328.5z"/>
	</g>
	<g>
		<path d="M66.9,327.4C66.9,327.4,66.8,327.4,66.9,327.4c-0.9,0-1.5-0.7-1.5-1.5l1-33.3c0-0.8,0.7-1.5,1.5-1.5
			c0.8,0,1.5,0.7,1.5,1.5l-1,33.3C68.3,326.8,67.7,327.4,66.9,327.4z"/>
	</g>
	<g>
		<path d="M38,328.5C38,328.5,38,328.5,38,328.5c-0.9,0-1.5-0.7-1.5-1.5l0.3-21.2c0-0.8,0.7-1.5,1.5-1.5c0,0,0,0,0,0
			c0.8,0,1.5,0.7,1.5,1.5L39.5,327C39.5,327.8,38.9,328.5,38,328.5z"/>
	</g>
	<g>
		<path d="M346.7,206.4c-0.1,0-0.2,0-0.3,0c-0.8-0.2-1.4-0.9-1.2-1.7l4.7-25L338,154.7c-0.4-0.7,0-1.6,0.7-2c0.7-0.4,1.6,0,2,0.7
			l12.3,25.8l-4.8,26C348.1,205.9,347.4,206.4,346.7,206.4z"/>
	</g>
	<g>
		<path d="M359.5,201.8C359.5,201.8,359.5,201.8,359.5,201.8c-0.9,0-1.5-0.7-1.5-1.5l0.6-26.7l-8.4-19.1c-0.3-0.8,0-1.6,0.8-2
			c0.8-0.3,1.6,0,2,0.8l8.7,19.7l-0.6,27.4C361,201.1,360.3,201.8,359.5,201.8z"/>
	</g>
</g>
</svg>
