<?xml version="1.0" encoding="utf-8"?>
<!-- Generator: Adobe Illustrator 26.3.1, SVG Export Plug-In . SVG Version: 6.00 Build 0)  -->
<svg version="1.1" id="sv" xmlns="http://www.w3.org/2000/svg" xmlns:xlink="http://www.w3.org/1999/xlink" x="0px" y="0px"
	 viewBox="0 0 410.3 366.7" style="enable-background:new 0 0 410.3 366.7;" xml:space="preserve">
<style type="text/css">
	.st0{fill:#FFFFFF;}
	.st1{fill:#66CBFF;}
	.st2{fill:#0B0817;}
</style>
<g>
	<g>
		<path d="M161.9,181.2c0,0-43.5,0.9-61,14.9c-17.5,14.1-27.3,32-37.5,50.3s-20.9,82.8-20.9,82.8l298.2,2.1c0,0-64-127.1-70-139.1
			s-26-23-53.3-17.9C190,179.5,161.9,181.2,161.9,181.2z"/>
	</g>
	<g>
		<polyline class="st0" points="397.1,332.6 374.1,222.6 354.2,224.1 319.4,331.1 		"/>
		<polygon points="395.6,332.9 372.9,224.2 355.3,225.5 320.9,331.6 318,330.7 353.1,222.6 375.3,221 398.5,332.3 		"/>
	</g>
	<g>
		<path class="st0" d="M256.2,330.4H34c-8,0-14.5-6.5-14.5-14.5v-79.1c0-8,6.5-14.5,14.5-14.5h222.2c8,0,14.5,6.5,14.5,14.5v79.1
			C270.8,323.9,264.3,330.4,256.2,330.4z"/>
		<path d="M256.2,331.9H34c-8.8,0-16-7.2-16-16v-79.1c0-8.8,7.2-16,16-16h222.2c8.8,0,16,7.2,16,16v79.1
			C272.3,324.7,265.1,331.9,256.2,331.9z M34,223.8c-7.2,0-13,5.8-13,13v79.1c0,7.2,5.8,13,13,13h222.2c7.2,0,13-5.8,13-13v-79.1
			c0-7.2-5.8-13-13-13H34z"/>
	</g>
	<g>
		<path class="st1" d="M344.3,277.3h-84.9c-11.4,0-20.7-9.3-20.7-20.7v-81.8c0-11.4,9.3-20.7,20.7-20.7h84.9
			c11.4,0,20.7,9.3,20.7,20.7v81.8C365,268,355.7,277.3,344.3,277.3z"/>
	</g>
	<g>
		<path class="st0" d="M343.6,137.8c0,0,25.2,9.1,27.9,14.7c2.6,5.6,7.8,29.4,7.8,29.4l-16.5-3c0,0,0.3-17.3-2.8-19.2
			c-3.2-1.9-19.3-9.8-18-17.1C343.2,138.3,343.6,137.8,343.6,137.8z"/>
		<path d="M381.2,183.7l-20-3.6l0-1.3c0.2-8.6-0.8-17-2.1-17.9c-0.4-0.2-1-0.6-1.7-1c-5.9-3.3-18.3-10.2-17-17.7l0-0.1
			c1.3-4.6,1.8-5.1,1.9-5.3l0.7-0.8l1,0.4c24.6,8.8,28.2,14.4,28.7,15.4c2.7,5.7,7.7,28.8,7.9,29.7L381.2,183.7z M364.3,177.6
			l13,2.3c-1.3-6-5.2-22.5-7.2-26.9c-1.7-3.5-16.1-9.9-25.7-13.4c-0.2,0.7-0.6,1.7-1,3.2c-0.9,5.3,11,11.9,15.5,14.4
			c0.8,0.4,1.4,0.8,1.8,1.1C364,160.4,364.4,171.7,364.3,177.6z"/>
	</g>
	<g>
		<path class="st0" d="M365,245.9c0,0-9-23.8-7.8-30.1c0,0-32.1-10.4-34-12.2c-1.8-1.8-4.4-6.9-1.7-8.9s31.7,7.6,31.7,7.6
			l-27.9-13.1c-1.8-0.8-3.3-2.1-4.4-3.7c-2-2.9-4.4-7.4-2.1-10.4c3.7-4.6,40.1,13.3,40.1,13.3l-37.2-22.5c0,0-1.7-2.2-2.2-4.6
			c-0.6-3.2,2.7-5.7,5.6-4.5l53.7,22.5c0,0,8,35-4,50"/>
		<path d="M365,247.4c-0.6,0-1.2-0.4-1.4-1c-0.9-2.3-8.2-21.8-8-29.6c-10.3-3.3-31.6-10.4-33.4-12.2c-1.5-1.5-3.5-4.9-3.3-7.8
			c0.1-1.4,0.7-2.5,1.8-3.3c1.5-1.1,6.7-0.2,13.3,1.5l-9.3-4.4c-2-0.9-3.8-2.4-5-4.2c-3.6-5.1-4.3-9.3-2-12.2
			c1.4-1.7,5-2.7,20.4,3.4L320.7,167l-0.2-0.2c-0.1-0.1-1.9-2.5-2.5-5.2c-0.4-2,0.3-4,1.9-5.3c1.6-1.3,3.8-1.6,5.8-0.8l54.4,22.8
			l0.2,0.8c0.3,1.5,8,35.9-4.3,51.3c-0.5,0.6-1.5,0.8-2.1,0.2c-0.6-0.5-0.8-1.5-0.2-2.1c10.4-13.1,4.9-42.9,3.8-48l-53-22.2
			c-0.9-0.4-1.9-0.2-2.7,0.4c-0.4,0.3-1.1,1.1-0.9,2.4c0.3,1.6,1.3,3.2,1.7,3.8l36.9,22.3l-1.4,2.6c-18.7-9.2-36.2-15.4-38.3-13.7
			c-1.8,2.3,0.6,6.3,2.1,8.6c1,1.4,2.3,2.5,3.8,3.2l27.9,13.1l-1.1,2.8c-12.9-4.3-28-8.5-30.4-7.8c-0.2,0.2-0.4,0.5-0.5,1.1
			c-0.1,1.7,1.3,4.4,2.4,5.5c1.5,1.2,18.3,7,33.4,11.9l1.3,0.4l-0.3,1.3c-0.9,4.8,5.2,22.8,7.7,29.3c0.3,0.8-0.1,1.6-0.9,1.9
			C365.3,247.3,365.1,247.4,365,247.4z"/>
	</g>
	<g>
		<path class="st0" d="M283.1,197.8v37c0,3.3,3.5,5.3,6.3,3.7l31.7-18.2c2.8-1.6,2.8-5.7,0.1-7.3l-31.7-18.9
			C286.7,192.5,283.1,194.5,283.1,197.8z"/>
	</g>
	<g>
		<polygon class="st0" points="36.5,289.2 36.5,308.1 52.2,299.1 		"/>
		<path d="M35,310.7v-24.2l20.1,12.7L35,310.7z M38,291.9v13.6l11.3-6.5L38,291.9z"/>
	</g>
	<g>
		<line class="st0" x1="62.5" y1="299.2" x2="237" y2="299.2"/>
		<path d="M237,300.7H62.5c-0.8,0-1.5-0.7-1.5-1.5s0.7-1.5,1.5-1.5H237c0.8,0,1.5,0.7,1.5,1.5S237.9,300.7,237,300.7z"/>
	</g>
	<g>
		<line class="st0" x1="254.9" y1="299.2" x2="241.5" y2="299.2"/>
		<path d="M254.9,300.7h-13.3c-0.8,0-1.5-0.7-1.5-1.5s0.7-1.5,1.5-1.5h13.3c0.8,0,1.5,0.7,1.5,1.5S255.7,300.7,254.9,300.7z"/>
	</g>
	<g>
		<circle class="st0" cx="36.2" cy="235.7" r="4.7"/>
		<path d="M36.2,241.8c-2.1,0-4.2-1.1-5.3-3.1l0,0c-0.8-1.4-1-3.1-0.6-4.7c0.4-1.6,1.4-2.9,2.9-3.7c2.9-1.7,6.7-0.7,8.4,2.3
			c0.8,1.4,1,3.1,0.6,4.7c-0.4,1.6-1.4,2.9-2.9,3.7C38.3,241.6,37.2,241.8,36.2,241.8z M36.2,232.5c-0.5,0-1.1,0.1-1.6,0.4
			c-0.7,0.4-1.3,1.1-1.5,1.9c-0.2,0.8-0.1,1.7,0.3,2.4l0,0c0.9,1.5,2.8,2,4.3,1.2c0.7-0.4,1.3-1.1,1.5-1.9c0.2-0.8,0.1-1.7-0.3-2.4
			C38.3,233.1,37.3,232.5,36.2,232.5z"/>
	</g>
	<g>
		<circle class="st0" cx="51.6" cy="236" r="4.7"/>
		<path d="M51.6,242.1c-2.1,0-4.2-1.1-5.3-3.1c-0.8-1.4-1-3.1-0.6-4.7c0.4-1.6,1.4-2.9,2.9-3.7c2.9-1.7,6.7-0.7,8.4,2.3
			c0.8,1.4,1,3.1,0.6,4.7c-0.4,1.6-1.4,2.9-2.9,3.7C53.7,241.8,52.7,242.1,51.6,242.1z M51.6,232.8c-0.5,0-1.1,0.1-1.6,0.4
			c-0.7,0.4-1.3,1.1-1.5,1.9c-0.2,0.8-0.1,1.7,0.3,2.4l0,0c0.9,1.5,2.8,2,4.3,1.2c0.7-0.4,1.3-1.1,1.5-1.9c0.2-0.8,0.1-1.7-0.3-2.4
			C53.8,233.4,52.7,232.8,51.6,232.8z"/>
	</g>
	<g>
		<circle class="st0" cx="67.1" cy="236.2" r="4.7"/>
		<path d="M67.1,242.4c-2.1,0-4.2-1.1-5.3-3.1h0c-1.7-2.9-0.7-6.7,2.3-8.4c1.4-0.8,3.1-1,4.7-0.6c1.6,0.4,2.9,1.4,3.7,2.9
			c1.7,2.9,0.7,6.7-2.3,8.4C69.2,242.1,68.1,242.4,67.1,242.4z M64.3,237.8c0.9,1.5,2.8,2,4.3,1.2c1.5-0.9,2-2.8,1.2-4.3
			c-0.4-0.7-1.1-1.3-1.9-1.5c-0.8-0.2-1.7-0.1-2.4,0.3C64,234.3,63.5,236.3,64.3,237.8L64.3,237.8z"/>
	</g>
	<g>
		<circle class="st0" cx="161.7" cy="298.1" r="14.4"/>
		<path d="M161.7,313.9c-8.8,0-15.9-7.1-15.9-15.9s7.1-15.9,15.9-15.9c8.8,0,15.9,7.1,15.9,15.9S170.4,313.9,161.7,313.9z
			 M161.7,285.2c-7.1,0-12.9,5.8-12.9,12.9s5.8,12.9,12.9,12.9c7.1,0,12.9-5.8,12.9-12.9S168.8,285.2,161.7,285.2z"/>
	</g>
	<g>
		<path class="st2" d="M143.9,102.8c0,0-21.4-60.4,40.2-69.1c0,0,15.8-10.1,26.1,5.3c0,0,8.9-6.3,23.6,3.2c14.7,9.5,8.3,37,8.3,37
			l-74.1,44.2L143.9,102.8z"/>
	</g>
	<g>
		<path d="M137.2,56.1c-0.4,0-0.9-0.2-1.2-0.6c-0.5-0.6-0.4-1.6,0.2-2.1c2.2-1.8,7.6-4.3,12.3-0.9c0.7,0.5,0.8,1.4,0.3,2.1
			c-0.5,0.7-1.4,0.8-2.1,0.3c-3.9-2.9-8.4,0.6-8.6,0.8C137.9,56,137.6,56.1,137.2,56.1z"/>
	</g>
	<g>
		<path d="M147.8,54c-0.2,0-0.4,0-0.6-0.1c-3.8-1.6-3.4-7.2-2.5-10.2c0.2-0.8,1.1-1.3,1.9-1c0.8,0.2,1.3,1.1,1,1.9
			c-0.3,1.2-1.2,5.8,0.8,6.6c0.8,0.3,1.1,1.2,0.8,2C148.9,53.7,148.4,54,147.8,54z"/>
	</g>
	<g>
		<path class="st0" d="M252.4,98.6c-3.7-24.2-19.6-43-39-48.8c-6.2-1.9-12.8-2.4-19.4-1.4c-23.2,3.5-39.9,25-41.5,50.8
			c-1.9-0.6-4-1-6.1-1c-10.5,0-19,8.5-19,19c0,10.5,8.5,19,19,19c3.4,0,6.5-0.9,9.3-2.4l-0.6,51.7c0,0,34.2,19.3,54.6,13.9
			s11.9-24.8,11.9-24.8l-4-12C241.6,155.3,256.9,128.1,252.4,98.6z"/>
		<path d="M201.5,201.7c-20.3,0-46-14.4-47.2-15.1l-0.8-0.4l0.5-50.1c-2.4,1-5.1,1.5-7.7,1.5c-11.3,0-20.5-9.2-20.5-20.5
			c0-11.3,9.2-20.5,20.5-20.5c1.6,0,3.2,0.2,4.7,0.6c2.4-26.3,19.7-46.9,42.7-50.4c6.7-1,13.4-0.5,20,1.5
			c20.7,6.2,36.4,25.9,40.1,50l0,0c4.4,29.3-10.3,57-34.5,65.1l3.5,10.5c0.4,0.9,3.8,9.5,0.2,17.1c-2.2,4.7-6.6,7.9-13.1,9.6
			C207.4,201.4,204.5,201.7,201.5,201.7z M156.6,184.5c5.2,2.8,34.8,18.1,52.7,13.3c5.5-1.5,9.3-4.2,11.1-8
			c3.2-6.6-0.2-14.6-0.2-14.7l0-0.1l-4.5-13.5l1.5-0.4c23.6-7.1,38.2-33.8,33.8-62.3c-3.5-23-18.4-41.7-38-47.6
			c-6.2-1.9-12.5-2.3-18.7-1.4c-22.1,3.4-38.6,23.7-40.3,49.5l-0.1,2l-1.9-0.6c-1.8-0.6-3.7-0.9-5.6-0.9c-9.6,0-17.5,7.8-17.5,17.5
			c0,9.6,7.8,17.5,17.5,17.5c3,0,5.9-0.8,8.5-2.2l2.3-1.3L156.6,184.5z"/>
	</g>
	<g>
		<path class="st2" d="M213.4,49.8C209,71.1,187.2,66,187.2,66c1.2,9.5-9.4,14.8-9.4,14.8c7.5,38.6-15.3,34.8-16.8,27.6
			c-1-4.6-8.9-7.9-8.9-7.9c1.7-25.8,18.7-48.7,41.9-52.2C200.6,47.4,207.2,47.9,213.4,49.8z"/>
	</g>
	<g>
		<ellipse transform="matrix(0.923 -0.3849 0.3849 0.923 -19.0296 86.9751)" class="st2" cx="207.7" cy="91" rx="8.9" ry="2.7"/>
	</g>
	<g>
		<ellipse transform="matrix(0.419 -0.908 0.908 0.419 64.1517 269.2815)" class="st2" cx="242.5" cy="84.5" rx="2.7" ry="7.1"/>
	</g>
	<g>
		<ellipse class="st2" cx="212.8" cy="106.2" rx="4.1" ry="5.8"/>
	</g>
	<g>
		<ellipse class="st2" cx="243.4" cy="103.1" rx="3.7" ry="5.2"/>
	</g>
	<g>
		<path d="M231.6,113.9c-0.7,0-1.3-0.5-1.5-1.2c-0.2-0.8,0.4-1.6,1.2-1.8c0.4-0.1,0.8-0.4,1.1-1c0.8-1.2,1.2-3.1,0.9-4.5
			c-0.3-1.3-1.4-3.4-2.5-5.6c-0.9-1.7-1.9-3.5-2.7-5.4c-1.7-4-0.8-6.2-0.2-7.2c0.2-0.3,0.7-0.3,0.9,0l1.5,1.8c0,0-0.1,0.1,0,0
			c0,0-0.9,1,0.5,4.2c0.8,1.8,1.7,3.5,2.6,5.2c1.3,2.5,2.4,4.6,2.8,6.3c0.5,2.1-0.1,4.9-1.3,6.8c-0.8,1.2-1.9,2-3.1,2.3
			C231.8,113.9,231.7,113.9,231.6,113.9z"/>
	</g>
	<g>
		<path d="M222.5,132.1c-5.2,0-8.7-1.6-11-3.1c-3.5-2.4-4.8-5.4-4.9-5.5c-0.3-0.8,0-1.6,0.8-2c0.8-0.3,1.6,0,2,0.8
			c0.2,0.4,4.4,9.4,19.2,6.1c0.8-0.2,1.6,0.3,1.8,1.1c0.2,0.8-0.3,1.6-1.1,1.8C226.8,131.8,224.5,132.1,222.5,132.1z"/>
	</g>
	<g>
		<path d="M154.3,123.8c-0.2,0-0.4,0-0.6-0.1c-0.8-0.3-1.1-1.2-0.8-2c0.5-1.3,0.8-2.6,0.8-4c0-5.6-4.6-10.2-10.2-10.2
			c-1.4,0-2.8,0.3-4,0.8c-0.8,0.3-1.6,0-2-0.8c-0.3-0.8,0-1.6,0.8-2c1.6-0.7,3.4-1.1,5.2-1.1c7.3,0,13.2,5.9,13.2,13.2
			c0,1.8-0.3,3.5-1,5.1C155.4,123.4,154.8,123.8,154.3,123.8z"/>
	</g>
	<g>
		<path d="M210.7,164.6c-26,0-36.1-23.7-36.2-23.9c-0.3-0.8,0-1.6,0.8-2c0.8-0.3,1.6,0,2,0.8c0.4,1.1,11.2,26,40.1,21.6
			c0.8-0.1,1.6,0.4,1.7,1.3c0.1,0.8-0.4,1.6-1.3,1.7C215.3,164.4,212.9,164.6,210.7,164.6z"/>
	</g>
	<g>
		<path class="st0" d="M165.2,240.9c0,0-14.1-22.6-16.1-26s-11.5-7.5-15.2-1.1c0,0-6.5-7.4-16.1-0.2c0,0-6.9-8.2-16-0.4
			c0,0-4.4-6.2-13.1-0.2s-13.9,9.2-13.9,9.2l13.3,0.5c0,0,1.7,0.6,4.3,7.2c2.6,6.6,5.3,12.3,18.6,9.7c0,0,5.7,8.2,17.4,4.1
			c0,0,3.8,6.6,15.6,3.3l-5.4-20.2c0,0,8.7,12.3,11.5,13.7C152.9,241.8,160.3,242.7,165.2,240.9z"/>
		<path d="M137.9,249.3c-5.7,0-8.8-2.5-10.1-4c-9.8,3-15.6-2.1-17.5-4.2c-14.1,2.5-17-4.5-19.4-10.8c-1.7-4.3-3-5.8-3.4-6.2
			l-17.7-0.6l4.1-2.6c0.1,0,5.2-3.3,13.8-9.2c7.3-5,12.1-2.3,14.1-0.5c2.8-2.1,5.8-3.1,8.7-2.9c3.4,0.3,6,2.1,7.3,3.3
			c7.5-4.9,13.2-1.9,15.7,0c1.6-1.7,3.7-2.7,6.3-2.7c4.4,0,8.9,2.7,10.4,5.2c2,3.4,16,25.8,16.1,26l1,1.6l-1.7,0.6
			c-5.5,2-13.3,1-16.3-0.6c-1.6-0.8-4.7-4.5-7.3-7.9l3.7,14l-1.4,0.4C142,249,139.8,249.3,137.9,249.3z M129.1,241.7l0.6,1.1
			c0.1,0.2,3.2,5,12.5,3l-7.1-26.8l4.8,6.8c3.5,5,9.3,12.4,10.9,13.3c2.1,1.1,7.7,1.8,12,0.9c-3.3-5.3-13.4-21.5-15.1-24.4
			c-0.9-1.5-4.4-3.7-7.8-3.7c-2.1,0-3.7,0.9-4.7,2.7l-1,1.8l-1.4-1.6c-0.2-0.3-5.7-6.2-14.1,0l-1.1,0.8l-0.9-1.1
			c0,0-2.5-2.9-6.3-3.2c-2.5-0.2-5.1,0.8-7.6,3l-1.2,1.1l-1-1.3c-0.4-0.5-3.9-4.8-11.1,0.1c-4.2,2.8-7.5,5.1-9.9,6.7l8.7,0.3
			l0.2,0.1c0.7,0.2,2.6,1.5,5.2,8c2.4,6,4.5,11.2,17,8.8l1-0.2l0.6,0.8c0.2,0.3,5.3,7.2,15.7,3.5L129.1,241.7z M87.4,223.9
			L87.4,223.9L87.4,223.9z"/>
	</g>
	<g>
		<line class="st0" x1="111" y1="239.4" x2="101.8" y2="213.2"/>
		<rect x="104.9" y="212.4" transform="matrix(0.9439 -0.3303 0.3303 0.9439 -68.7875 47.8479)" width="3" height="27.8"/>
	</g>
	<g>
		<line class="st0" x1="128.4" y1="243.5" x2="117.8" y2="213.5"/>
		<rect x="121.6" y="212.6" transform="matrix(0.9425 -0.3342 0.3342 0.9425 -69.2912 54.2802)" width="3" height="31.8"/>
	</g>
	<g>
		<line class="st0" x1="138.7" y1="226.7" x2="133.9" y2="213.8"/>
		<rect x="134.8" y="213.3" transform="matrix(0.9377 -0.3473 0.3473 0.9377 -68.0047 61.0577)" width="3" height="13.8"/>
	</g>
</g>
</svg>
