<?xml version="1.0" encoding="utf-8"?>
<!-- Generator: Adobe Illustrator 26.3.1, SVG Export Plug-In . SVG Version: 6.00 Build 0)  -->
<svg version="1.1" id="sv" xmlns="http://www.w3.org/2000/svg" xmlns:xlink="http://www.w3.org/1999/xlink" x="0px" y="0px"
	 viewBox="0 0 410.3 366.7" style="enable-background:new 0 0 410.3 366.7;" xml:space="preserve">
<style type="text/css">
	.st0{fill:#0B0817;}
	.st1{fill:#FFFFFF;}
	.st2{fill:#67CDFF;}
	.st3{fill:#67CAFE;}
</style>
<g>
	<g>
		<g>
			<path class="st0" d="M253,198.4l-14.6-4.9l9-23.3l15.5,4.3L253,198.4z M241.6,191.9l10,3.4l8-19.4l-10.7-3L241.6,191.9z"/>
			<polygon class="st1" points="248.8,172.9 259.6,176 251.6,195.4 241.5,192 			"/>
		</g>
		<g>
			<path class="st0" d="M121.2,183.9c0,0-11.2,3.2-8.9,15c0,0-45.1-3.2-63.7,35.6s-36.3,59.2-23.8,83.9s32.9,28.7,50,25.1
				c17.1-3.6,45.7-12.9,45.7-12.9l198.1-0.3l-1.1-64.5l-41.8-5.1l-7,49.5c0,0-9.9-50.2-13.6-72.9c-3.7-22.7-18.3-60.8-69.3-51.3
				c0,0-4.3-10-12.5-10.6L121.2,183.9z"/>
		</g>
		<g>
			<path class="st2" d="M230.3,182.3l36,12.2l-30.8,87.2c-3.6,10.2-14.7,15.7-25,12.4h0c-10.9-3.5-16.6-15.4-12.6-26.2L230.3,182.3z
				"/>
		</g>
		<g>
			<path class="st1" d="M198.9,222.5c0,0,15.8-26.6,16.6-34.2c0.8-7.6,11.9-1.9,11.4,7.5s-3.4,17.6-3.4,17.6L198.9,222.5z"/>
			<path d="M196.1,224.8l1.7-2.9c0.2-0.3,15.6-26.4,16.4-33.7c0.4-3.6,2.8-4.8,4.9-4.6c4.4,0.3,9.3,5.8,8.9,12.3
				c-0.5,9.5-3.4,17.6-3.5,18l-0.2,0.5L196.1,224.8z M218.7,186c-0.6,0-1.8,0.2-2,2.5c-0.7,6.4-10.9,24.6-15.1,31.8l20.9-7.7
				c0.6-1.9,2.8-9,3.2-16.8c0.3-5.5-3.9-9.6-6.7-9.8C218.9,186,218.8,186,218.7,186z"/>
		</g>
		<g>
			<path class="st1" d="M122.5,263.1l62.4-17.9c0,0,4.7-24.5,19-29.5c10.8-3.8,39.2-11.6,52.3-15.1c4.2-1.2,8.3,2.5,7.5,6.8
				c-0.5,2.8-1.9,5.7-5.2,7.6c-8.4,4.8-22.9,10.7-22.9,10.7s21.6-4.6,26.6-2.6c6.5,2.6,6.9,13.1-2.2,16.1c0,0,8.1,12.7-2.6,16.3
				c0,0,6.5,3.5,2.8,10.1c-1.7,3.1-5,5.1-8.5,5.6l-28.5,3.5c0,0-5.1,10.8-21.3,17.7S120,329.4,120,329.4s-19.9-18.9-15.3-37.6
				S122.5,263.1,122.5,263.1z"/>
			<path d="M119.8,330.8l-0.6-0.6c-0.8-0.8-20.3-19.6-15.6-38.7c4.7-18.9,17.7-29,18.2-29.4l0.2-0.1l0.2-0.1l61.7-17.7
				c0.4-1.8,1.6-6.9,4.1-12.4c4.1-9.3,9.3-15.1,15.5-17.3c11-3.8,40.3-11.9,52.3-15.2c2.4-0.7,4.9,0,6.8,1.6
				c1.8,1.7,2.7,4.1,2.3,6.6c-0.6,3.8-2.6,6.6-5.7,8.4c-3.8,2.2-8.8,4.6-13.2,6.5c6.4-1,13.8-1.7,16.7-0.6c3.5,1.4,5.6,4.9,5.5,8.8
				c-0.1,3.1-1.9,7-6.4,9.1c1.2,2.3,3.4,7.3,1.9,11.5c-0.7,1.9-2,3.3-3.8,4.4c0.9,0.9,2,2.1,2.5,3.8c0.6,2.1,0.3,4.3-1,6.5
				c-1.9,3.4-5.4,5.7-9.4,6.2l-27.9,3.4c-1.4,2.4-7.2,11.6-21.6,17.7c-15.9,6.8-81.2,36.8-81.8,37.1L119.8,330.8z M123.1,264.2
				c-1.5,1.2-13,11-17.2,27.9c-2.3,9.2,1.9,18.6,5.7,24.8c3.4,5.5,7.2,9.6,8.6,11c7.4-3.4,66.1-30.4,81.1-36.7
				c15.5-6.6,20.6-17,20.6-17.1l0.3-0.6l0.7-0.1l28.5-3.5c3.2-0.4,6.1-2.2,7.6-4.9c0.9-1.7,1.2-3.2,0.8-4.7
				c-0.7-2.4-3.1-3.7-3.1-3.7l-2.5-1.3l2.7-0.9c2.3-0.8,3.7-2,4.3-3.8c1.6-4.4-2.4-10.6-2.4-10.7l-0.8-1.3l1.5-0.5
				c3.7-1.2,6-4,6.2-7.4c0.1-2.9-1.5-5.4-4-6.5c-3.4-1.4-17.3,0.8-25.9,2.6l-0.7-2.3c0.1-0.1,14.5-5.9,22.8-10.6
				c2.5-1.4,4.1-3.7,4.6-6.8c0.3-1.6-0.3-3.3-1.5-4.4c-1.2-1.1-2.9-1.5-4.5-1.1c-12.1,3.3-41.3,11.3-52.2,15.1
				c-13.4,4.7-18.1,28.4-18.2,28.6l-0.1,0.7l-0.7,0.2L123.1,264.2z"/>
		</g>
		<g>
			<path class="st0" d="M317.3,268.3l-41.5-5.2l-0.1-1c-0.1-1.3-2.7-30.8,0.2-38.7c2-5.7,10.3-14.2,18.4-22.4
				c3.3-3.3,6.4-6.5,8.7-9.2c4.7-5.3,9.9-10.6,13.4-14.1c2.7-2.7,7-3.1,10.1-0.8l0,0c3.4,2.5,4.2,7.1,2,10.6L314,209.9l19.7,6.9
				l11.6-19.1c1.3-2.1,3.2-3.7,5.5-4.6c2.2-0.9,4.6-0.4,6.4,1.2c1.7,1.6,2.4,4,1.6,6.3l-1.8,5.4l9.2-11.3c1.9-2.3,4.7-3.8,7.7-4
				c2.2-0.2,4.3,0.9,5.4,2.8c1.1,1.9,1.1,4.3-0.2,6.1l-8.9,13.2l12.4-4.8c3-1.1,6.4-0.8,9.1,0.9c1.6,1,2.5,2.8,2.4,4.7
				c-0.1,1.9-1.2,3.6-2.9,4.4l-70.6,34.7L317.3,268.3z M278,261l37.4,4.6l3.1-14.5l71.7-35.3c0.9-0.5,1.5-1.3,1.6-2.4
				c0.1-1-0.4-2-1.3-2.5c-2.1-1.3-4.7-1.5-6.9-0.7l-19.6,7.5l13.1-19.5c0.7-1.1,0.8-2.4,0.1-3.6c-0.7-1.1-1.9-1.8-3.2-1.7
				c-2.4,0.2-4.6,1.3-6,3.2l-17.4,21.3l5.8-17.7c0.4-1.4,0.1-2.8-1-3.8c-1.1-1-2.5-1.3-3.8-0.7c-1.8,0.7-3.3,2-4.3,3.7l-12.6,20.8
				l-24.4-8.6l16.2-24.9c1.6-2.4,1-5.6-1.4-7.3l0,0c-2.2-1.6-5.1-1.3-7,0.5c-3.5,3.5-8.7,8.7-13.3,14c-2.4,2.7-5.5,5.9-8.8,9.3
				c-7.5,7.7-16,16.3-17.8,21.5C275.8,230.9,277.6,255.8,278,261z"/>
		</g>
		<g>
			
				<rect x="218.1" y="224.9" transform="matrix(0.9861 -0.166 0.166 0.9861 -34.324 41.5186)" class="st0" width="26.2" height="2.4"/>
		</g>
		<g>
			
				<rect x="218.8" y="240.2" transform="matrix(0.9941 -0.1087 0.1087 0.9941 -24.8239 27.5044)" class="st0" width="42.1" height="2.4"/>
		</g>
		<g>
			
				<rect x="219.7" y="255.6" transform="matrix(0.9936 -0.1126 0.1126 0.9936 -27.4157 28.4387)" class="st0" width="36.5" height="2.4"/>
		</g>
		<g>
			<path class="st1" d="M48.7,281.8c-0.6,0-1.1-0.4-1.2-1c-0.1-0.7,0.3-1.3,0.9-1.4l76.4-15.9c0.7-0.1,1.3,0.3,1.4,0.9
				c0.1,0.7-0.3,1.3-0.9,1.4L49,281.8C48.9,281.8,48.8,281.8,48.7,281.8z"/>
		</g>
		<g>
			<path class="st0" d="M122.8,57.5c0,0-44.8,11.6-34.7,55.5l-1.2,7.5c0,0-20.9-6.8-28.7,14.6c-7.7,21.1,11.5,31.7,25.1,30.8
				c0,0,6.3,21.3,35.6,6.8l56-7.5c0,0,28.4-2.4,23.3-31.5c0,0,12.1-11.1,7.3-24.5s-16.5-16.7-16.5-16.7l-11-5.5
				C177.9,86.9,175,37.8,122.8,57.5z"/>
		</g>
		<g>
			<polygon class="st1" points="109.8,141.9 126.4,193.4 174,184.8 168,135 			"/>
			<path d="M125.6,194.8l-17.4-53.9l60.9-7.2l6.2,52.1L125.6,194.8z M111.4,142.9l15.8,49.1l45.4-8.2l-5.6-47.4L111.4,142.9z"/>
		</g>
		<g>
			<path class="st1" d="M127.3,73.7c0,0,16.8,16.9,39.7,12.3c0,0,0.8,5.2,5.4,4.2s10.8-3.4,13.8,3.8c3,7.2-6.9,13-10.7,12.8
				c1.8,0.1,0.1,20.6-0.3,22.6c-4.8,25-37.1,39.5-58.2,24.4c-6.2-4.4-10.6-10.9-13.2-18c-0.3-0.7-3.5-10.5-2.6-10.8
				c0,0-15.3,5.8-17-6.9c-1.4-10.5,13.2-13.7,17-10C101.1,108.1,126.2,92.6,127.3,73.7z"/>
			<path d="M136.6,161.1c-7.4,0-14.5-2.2-20.4-6.4c-6-4.3-10.7-10.7-13.6-18.5c-0.1-0.4-1-3-1.8-5.6c-0.5-1.7-0.8-3-1-4
				c-2.7,0.7-8.3,1.8-12.4-0.7c-2.6-1.5-4.1-4.1-4.6-7.7c-0.6-4.7,1.6-8.8,6.2-11.1c4.2-2.1,9.3-2.3,12.1-0.5
				c1.8-1.2,6.8-4.6,11.8-9.5c5.7-5.5,12.6-14.1,13.1-23.5l0.2-2.7l1.9,1.9c0.1,0.1,12.9,12.7,30.9,12.7c2.5,0,5.1-0.2,7.7-0.8
				l1.2-0.2l0.2,1.2c0,0,0.4,2,1.7,2.9c0.6,0.4,1.3,0.5,2.2,0.3c0.4-0.1,0.9-0.2,1.4-0.3c4.3-1,10.8-2.6,13.8,4.8
				c1.1,2.7,0.8,5.6-1.1,8.2c-2.1,3-6,5.4-9,6.1c0.2,1.5,0.4,4.4,0.1,10.4c-0.3,5.2-0.7,10.4-0.9,11.5
				c-2.4,12.5-11.9,23.4-24.8,28.6C146.6,160.2,141.6,161.1,136.6,161.1z M102.2,125.4c-0.1,1.2,2.2,8.7,2.7,10
				c2.7,7.3,7.2,13.4,12.8,17.4c9.2,6.6,21.5,7.8,33,3.2c12.1-4.8,21.1-15.1,23.3-26.8c0.5-2.4,1.7-19.6,0.7-21.6
				c0.1,0.1,0.3,0.4,0.7,0.4l0.1-2.4c0,0,0,0,0,0c2,0.1,6.4-2,8.7-5.2c1.4-2,1.6-3.9,0.8-5.9c-2.1-5.1-5.9-4.6-11-3.4
				c-0.5,0.1-1,0.2-1.4,0.3c-1.6,0.3-2.9,0.1-4.1-0.7c-1.3-0.9-2-2.3-2.4-3.3c-18.5,3.2-33-7.1-37.9-11.2
				c-2.9,18.2-25.5,32.3-26.5,32.9l-0.8,0.5l-0.7-0.6c-1.5-1.5-6.2-1.6-10.1,0.3c-2.1,1.1-5.6,3.6-4.9,8.6c0.4,2.8,1.5,4.8,3.4,6
				c4.5,2.7,11.9,0,12,0l0.8,2.3C102,125.9,102.2,125.6,102.2,125.4z"/>
		</g>
		<g>
			<ellipse class="st0" cx="148" cy="97.1" rx="7.1" ry="1.7"/>
		</g>
		<g>
			
				<ellipse transform="matrix(0.8917 -0.4526 0.4526 0.8917 -33.3051 65.6663)" class="st0" cx="120.6" cy="102.4" rx="7.1" ry="1.7"/>
		</g>
		<g>
			<path class="st0" d="M140.9,124.9c-0.1,0-0.1,0-0.2,0c-3.8-0.6-6.2-1.9-7.4-4c-1.7-3.2,0-7.1,1.4-10.2c0.5-1.1,0.9-2.1,1.1-2.9
				c0.3-1.2,0.3-2.1,0-2.6c-0.2-0.3-0.7-0.3-0.7-0.3l0,0c-0.6,0-1.2-0.5-1.2-1.2c0-0.7,0.5-1.2,1.2-1.2c0.2,0,1.6,0,2.6,1.2
				c0.8,1.1,1,2.7,0.4,4.7c-0.3,1-0.7,2.1-1.3,3.2c-1.2,2.7-2.6,6-1.5,8.1c0.8,1.4,2.6,2.3,5.6,2.8c0.7,0.1,1.1,0.7,1,1.4
				C142,124.4,141.5,124.9,140.9,124.9z"/>
		</g>
		<g>
			<path class="st0" d="M116.4,116c-0.1,0-0.3,0-0.4-0.1c-0.6-0.2-0.9-0.9-0.7-1.5c0.1-0.2,1.5-4,5.1-5.1c2.5-0.8,5.3-0.1,8.4,2
				c0.5,0.4,0.7,1.1,0.3,1.7c-0.4,0.5-1.1,0.7-1.7,0.3c-2.4-1.7-4.5-2.3-6.3-1.7c-2.5,0.8-3.6,3.6-3.6,3.7
				C117.4,115.7,116.9,116,116.4,116z"/>
		</g>
		<g>
			
				<ellipse transform="matrix(0.9987 -5.028701e-02 5.028701e-02 0.9987 -5.1796 7.6771)" class="st0" cx="150" cy="106.8" rx="2.9" ry="4.1"/>
		</g>
		<g>
			<path class="st0" d="M143.5,135.7c-0.5,0-1-0.4-1.2-0.9c-0.2-0.6,0.2-1.3,0.9-1.5c0.1,0,5.1-1.4,7-5.3c1.1-2.3,0.9-5.1-0.6-8.3
				c-0.3-0.6,0-1.3,0.6-1.6c0.6-0.3,1.3,0,1.6,0.6c1.8,3.9,2,7.4,0.6,10.3c-2.3,5-8.3,6.5-8.6,6.6
				C143.7,135.7,143.6,135.7,143.5,135.7z"/>
		</g>
		<g>
			<path class="st0" d="M116.4,105.1c-0.4,0-0.8-0.2-1-0.6c-0.4-0.6-0.2-1.3,0.4-1.7c0,0,3.5-2.3,6.5-6.8c4.1-6.1,5.6-13.2,4.6-21.1
				c-0.1-0.7,0.4-1.3,1-1.4c0.7-0.1,1.3,0.4,1.4,1c1.4,10.7-2,18.3-5,22.9c-3.3,4.9-7,7.3-7.1,7.4
				C116.9,105,116.7,105.1,116.4,105.1z"/>
		</g>
		<g>
			<path class="st0" d="M98.8,121.6C98.7,121.6,98.7,121.6,98.8,121.6c-0.8-0.1-1.3-0.6-1.2-1.3c0.2-2.2-0.3-3.9-1.3-5
				c-1.6-1.6-4.1-1.4-4.1-1.4c-0.7,0-1.2-0.4-1.3-1.1c-0.1-0.7,0.4-1.2,1.1-1.3c0.1,0,3.6-0.3,6,2.1c1.6,1.6,2.3,3.9,2.1,6.9
				C99.9,121.1,99.4,121.6,98.8,121.6z"/>
		</g>
		<g>
			<circle class="st1" cx="277" cy="104.4" r="77.1"/>
			<path d="M277,182.7c-43.2,0-78.4-35.2-78.4-78.4S233.8,26,277,26s78.4,35.2,78.4,78.4S320.2,182.7,277,182.7z M277,28.4
				c-41.9,0-75.9,34.1-75.9,75.9s34.1,75.9,75.9,75.9s75.9-34.1,75.9-75.9S318.8,28.4,277,28.4z"/>
		</g>
		<g>
			<circle class="st1" cx="277" cy="104.4" r="65.4"/>
			<path d="M277,170.9c-36.7,0-66.6-29.9-66.6-66.6s29.9-66.6,66.6-66.6s66.6,29.9,66.6,66.6S313.7,170.9,277,170.9z M277,40.2
				c-35.4,0-64.2,28.8-64.2,64.2s28.8,64.2,64.2,64.2s64.2-28.8,64.2-64.2S312.3,40.2,277,40.2z"/>
		</g>
		<g>
			<path class="st3" d="M306.1,112.2c-1.1,4.2-3.2,8.1-5.9,11.3c-5.5,6.7-13.9,10.9-23.2,10.9c-16.7,0-30.2-13.5-30.2-30.2
				c0-14.6,10.3-26.7,24.1-29.5V47.1c-28.9,3-51.5,27.5-51.5,57.3c0,31.8,25.8,57.6,57.6,57.6c16.6,0,31.6-7,42.1-18.3
				c8-8.5,13.4-19.5,15-31.7L306.1,112.2z"/>
		</g>
		<g>
			<path class="st0" d="M334,112c-1.6,12.2-7,23.1-15,31.7l-18.8-20.1c2.7-3.3,4.7-7.1,5.9-11.3L334,112z"/>
		</g>
		<g>
			<path class="st1" d="M278.2,46.8v27.4c15.6,0.6,28.1,13.1,28.8,28.6l27.4-0.1C333.7,72.1,308.9,47.5,278.2,46.8z"/>
			<path d="M305.9,104l-0.1-1.2c-0.7-15-12.7-26.8-27.7-27.4l-1.2,0V45.6l1.2,0c31.4,0.7,56.6,25.8,57.5,57.1l0,1.2L305.9,104z
				 M279.4,73.1c15.4,1.2,27.4,13.2,28.8,28.5l25.1-0.1c-1.4-29.1-24.7-52.2-53.8-53.5V73.1z"/>
		</g>
	</g>
	<g>
		<path class="st1" d="M278,261l37.4,4.6l3.1-14.5l71.7-35.3c0.9-0.5,1.5-1.3,1.6-2.4c0.1-1-0.4-2-1.3-2.5c-2.1-1.3-4.7-1.5-6.9-0.7
			l-19.6,7.5l13.1-19.5c0.7-1.1,0.8-2.4,0.1-3.6c-0.7-1.1-1.9-1.8-3.2-1.7c-2.4,0.2-4.6,1.3-6,3.2l-17.4,21.3l5.8-17.7
			c0.4-1.4,0.1-2.8-1-3.8c-1.1-1-2.5-1.3-3.8-0.7c-1.8,0.7-3.3,2-4.3,3.7l-12.6,20.8l-24.4-8.6l16.2-24.9c1.6-2.4,1-5.6-1.4-7.3l0,0
			c-2.2-1.6-5.1-1.3-7,0.5c-3.5,3.5-8.7,8.7-13.3,14c-2.4,2.7-5.5,5.9-8.8,9.3c-7.5,7.7-16,16.3-17.8,21.5
			C275.8,230.9,277.6,255.8,278,261z"/>
	</g>
	<g>
		<polygon class="st0" points="306.8,236.9 305.8,234.7 330.2,223.7 333.2,217.1 335.4,218.1 332,225.5 		"/>
	</g>
	<g>
		
			<rect x="336.6" y="218.5" transform="matrix(0.4114 -0.9114 0.9114 0.4114 5.9367 448.5805)" class="st0" width="27.5" height="2.4"/>
	</g>
	<g>
		
			<rect x="356.4" y="216.3" transform="matrix(0.5971 -0.8022 0.8022 0.5971 -27.3248 380.6622)" class="st0" width="17.8" height="2.4"/>
	</g>
</g>
</svg>
