<?xml version="1.0" encoding="utf-8"?>
<!-- Generator: Adobe Illustrator 26.3.1, SVG Export Plug-In . SVG Version: 6.00 Build 0)  -->
<svg version="1.1" id="sv" xmlns="http://www.w3.org/2000/svg" xmlns:xlink="http://www.w3.org/1999/xlink" x="0px" y="0px"
	 viewBox="0 0 394.6 366.7" style="enable-background:new 0 0 394.6 366.7;" xml:space="preserve">
<style type="text/css">
	.st0{fill:#080717;}
	.st1{fill:#FFFFFF;}
	.st2{fill:#66CCFF;}
</style>
<g>
	<path class="st0" d="M172.9,211.2c6,3.9,9.1,7.9,9.5,11c0,0,131.2,50,165.7,24.8c27.9-20.4-0.6-42.8-9.2-44.7
		c-16.2-3.6-17.1-4.5-9.9-21.5c7.2-17.1,17.3-27.1-8.1-29.6c-17.9-1.8-18.8-7.2-19.7-27.8c-0.9-20.6-33.2-23.3-44.9-17.9
		c-11.7,5.4,0-8.1-10.8-10.8c-10.8-2.7-13.5,3.6-15.3,8.1c-1.8,4.5-24.2,6.3-28.7,22.4c-4.5,16.2-22.4,14.4-16.2,41.3
		c6.3,26.9-2.7,16.2-9.9,18.8C168.4,187.9,160.3,203.2,172.9,211.2z"/>
	<g>
		<path class="st1" d="M108.1,326.9l54.9-85.3c6.7-10.7,18.6-17.1,31.2-16.9l100.7-2.3c14.2-0.3,26.9,8.7,31.2,22.2l27.5,86.2
			L108.1,326.9z"/>
		<path class="st0" d="M353.6,332.1c-0.6,0-1.1-0.4-1.3-0.9L324.8,245c-4.1-12.9-16.4-21.6-29.9-21.3l-100.7,2.3
			c-12.2-0.2-23.7,6-30.1,16.3l-54.9,85.3c-0.4,0.6-1.2,0.8-1.8,0.4c-0.6-0.4-0.8-1.2-0.4-1.8l54.9-85.3c6.9-11,19.3-17.7,32.3-17.5
			l100.6-2.3c14.7-0.3,28,9.2,32.5,23.2l27.5,86.2c0.2,0.7-0.2,1.4-0.9,1.7C353.8,332.1,353.7,332.1,353.6,332.1z"/>
	</g>
	<circle class="st0" cx="228.5" cy="145.6" r="46.3"/>
	<g>
		<path class="st1" d="M284.4,161.4c-2-0.4-4.1-0.3-5.9,0.3c3.4-17.9-5.7-36.1-22.4-43.9c-20.6-9.7-45.1-0.4-54.1,20.4l-4.9,11.4
			c-7.9,18.3,3.1,39.2,22.6,43l3.6,0.7v29.8h-17.8c6,16.5,22.6,28.3,42.1,28.3c19.5,0,36.1-11.8,42.1-28.3h-21.8v-30.9
			c2.7-2.7,4.7-6.1,5.6-10l0.2-0.7c1.6,1.6,3.6,2.7,5.9,3.2c6.4,1.3,12.7-2.8,14-9.3C294.9,169,290.8,162.7,284.4,161.4z"/>
		<path class="st0" d="M247.5,252.7c-19.6,0-37-11.7-43.4-29.2c-0.1-0.4-0.1-0.9,0.2-1.2c0.2-0.4,0.7-0.6,1.1-0.6h16.5v-27.4
			l-2.5-0.5c-9.7-1.9-17.9-8-22.5-16.8c-4.6-8.8-5-19-1-28.1l4.9-11.4c4.5-10.4,12.9-18.4,23.5-22.4c10.6-4,22.1-3.5,32.4,1.3
			c16.5,7.8,26,25.4,23.4,43.4c1.5-0.2,3.1-0.2,4.6,0.1l0,0c7.1,1.5,11.8,8.5,10.3,15.6c-0.7,3.5-2.7,6.4-5.7,8.4
			c-2.9,1.9-6.5,2.6-9.9,1.9c-1.8-0.4-3.5-1.1-4.9-2.1c-1,3.3-2.8,6.4-5.2,8.9v29h20.5c0.4,0,0.8,0.2,1.1,0.6
			c0.2,0.4,0.3,0.8,0.2,1.2C284.5,241,267.1,252.7,247.5,252.7z M207.3,224.4c6.5,15.4,22.4,25.7,40.2,25.7
			c17.8,0,33.7-10.2,40.2-25.7h-19.9c-0.7,0-1.3-0.6-1.3-1.3v-30.9c0-0.3,0.1-0.7,0.4-0.9c2.6-2.6,4.4-5.9,5.3-9.4l0.2-0.7
			c0.1-0.5,0.5-0.8,0.9-1c0.5-0.1,0.9,0,1.3,0.3c1.5,1.4,3.3,2.4,5.3,2.8c2.8,0.6,5.6,0,7.9-1.5c2.4-1.6,4-3.9,4.5-6.7
			c1.2-5.7-2.5-11.3-8.2-12.5l0,0c-1.7-0.4-3.6-0.3-5.3,0.3c-0.4,0.1-0.9,0-1.3-0.3c-0.3-0.3-0.5-0.8-0.4-1.2
			c3.3-17.5-5.6-34.9-21.6-42.5c-9.6-4.5-20.4-5-30.4-1.2c-10,3.8-17.8,11.2-22,21l-4.9,11.4c-3.6,8.3-3.3,17.7,1,25.8
			c4.2,8,11.8,13.7,20.7,15.4l3.6,0.7c0.6,0.1,1.1,0.7,1.1,1.3v29.8c0,0.7-0.6,1.3-1.3,1.3H207.3z"/>
	</g>
	<g>
		<path class="st0" d="M276.3,176.3c-0.1,0-0.2,0-0.3,0c-0.7-0.1-1.2-0.8-1-1.6c0.5-2.6,2.1-4.9,4.3-6.4c2.3-1.5,5-2,7.6-1.5
			c0.7,0.1,1.2,0.8,1,1.6c-0.1,0.7-0.8,1.2-1.6,1c-4-0.8-8,1.8-8.8,5.8C277.5,175.9,276.9,176.3,276.3,176.3z"/>
	</g>
	<g>
		<path class="st0" d="M219,150c-0.3,0-0.6-0.1-0.9-0.3c-0.5-0.5-0.6-1.3-0.1-1.9l6.6-7.4c1.8-2,2.6-4.6,2.2-7.3
			c-0.3-2.6-1.8-5-4-6.4c0,0-0.1-0.1-0.1-0.1c-0.1-0.1-3.9-3-11,0.2c-0.7,0.3-1.4,0-1.7-0.6c-0.3-0.7,0-1.4,0.6-1.7
			c8.2-3.8,13-0.4,13.7,0.1c2.8,1.9,4.7,4.9,5.1,8.3c0.4,3.4-0.6,6.8-2.9,9.4l-6.6,7.4C219.7,149.9,219.3,150,219,150z"/>
	</g>
	<path class="st0" d="M251.3,144.7c-1.5,1.9-3.6,2.4-4.8,1.2c-1.2-1.2-0.9-3.8,0.6-5.7c1.5-1.9,3.6-2.4,4.8-1.2
		C253,140.3,252.8,142.8,251.3,144.7z"/>
	<path class="st0" d="M217.8,136.9c-1.5,1.9-3.6,2.4-4.8,1.2c-1.2-1.2-0.9-3.8,0.6-5.7c1.5-1.9,3.6-2.4,4.8-1.2
		C219.6,132.5,219.3,135,217.8,136.9z"/>
	<g>
		<path class="st1" d="M217.1,154.3l22.4,0.1C239.5,154.4,227.4,180.3,217.1,154.3z"/>
		<path class="st0" d="M227.5,167.2c-0.1,0-0.1,0-0.2,0c-4.4-0.1-8.2-4.3-11.5-12.4c-0.2-0.4-0.1-0.9,0.1-1.2
			c0.2-0.4,0.7-0.6,1.1-0.6c0,0,0,0,0,0l22.4,0.1c0.4,0,0.9,0.2,1.1,0.6c0.2,0.4,0.3,0.9,0.1,1.3
			C240.4,155.4,234.9,167.2,227.5,167.2z M219.1,155.6c2.6,5.8,5.4,8.9,8.3,9c4,0.1,7.9-5.3,9.9-8.9L219.1,155.6z"/>
	</g>
	<g>
		<path class="st0" d="M278.7,160c2.5-17-6.1-34-21.7-41.8C256,134.1,264.5,149.6,278.7,160z"/>
	</g>
	<g>
		<path class="st0" d="M263.9,144.8c-0.6,0-1.1-0.4-1.3-0.9c-3.7-11.7-17.8-12.8-18-12.9c-0.7-0.1-1.3-0.7-1.2-1.4
			c0.1-0.7,0.7-1.3,1.4-1.2c0.7,0,16,1.3,20.3,14.7c0.2,0.7-0.2,1.4-0.9,1.7C264.1,144.8,264,144.8,263.9,144.8z"/>
	</g>
	<g>
		<path class="st0" d="M223.2,194.6c-0.7,0-1.3-0.6-1.3-1.3c0-0.7,0.5-1.3,1.3-1.4c8-0.3,21.6-6.3,21.8-6.3c0.7-0.3,1.4,0,1.7,0.7
			c0.3,0.7,0,1.4-0.7,1.7C245.4,188.3,231.7,194.2,223.2,194.6C223.2,194.6,223.2,194.6,223.2,194.6z"/>
	</g>
	<g>
		<g>
			<polygon class="st1" points="141.2,330.8 113.2,278 116.5,251.6 71.4,251.6 87,330.8 			"/>
			<path class="st0" d="M141.2,332.1c-0.5,0-0.9-0.3-1.2-0.7l-28-52.8c-0.1-0.2-0.2-0.5-0.1-0.8L115,253H73l15.3,77.6
				c0.1,0.7-0.3,1.4-1,1.5c-0.7,0.1-1.4-0.3-1.5-1l-15.6-79.2c-0.1-0.4,0-0.8,0.3-1.1c0.3-0.3,0.6-0.5,1-0.5h45.1
				c0.4,0,0.7,0.2,1,0.4c0.3,0.3,0.4,0.7,0.3,1l-3.2,26l27.8,52.4c0.3,0.6,0.1,1.4-0.5,1.8C141.6,332.1,141.4,332.1,141.2,332.1z"/>
		</g>
		<path class="st0" d="M55,146.9c12.6-0.3,41.1-0.5,51.1-0.7c2.5,0,4.6,1.5,5.4,3.9l30.3,103.8c1.1,3.6-1.5,7.3-5.3,7.3H84.1
			c-2.5,0-4.7-1.7-5.4-4.1L49.8,154C48.8,150.5,51.4,147,55,146.9z"/>
		<g>
			<path class="st1" d="M81.6,269.4l4.2-7.5l0.4-15l28-18.2c2.3-1.5,3.7-4,3.9-6.7l0-0.4c0.2-3.1-3-5.2-5.8-3.8
				c-7.1,3.8-18.4,9.8-23.1,12.6c4.8-3.5,15.9-12.6,22.7-18.1c3.4-2.8,5.1-7.2,4.4-11.5l0-0.1c-0.4-2.6-3.3-3.9-5.5-2.4l-32.1,21.4
				l28.9-27.5c2.1-2,2.6-5.1,1.3-7.7l-0.7-1.4c-1-2-3.5-2.6-5.3-1.3l-34.7,24.6l0.4-14.8l11.9-10.2c3.1-2.7,4.2-6.9,2.8-10.8l0,0
				c-0.7-2-3.1-2.7-4.8-1.5L60.9,182c-3,2.2-4.7,5.6-4.7,9.3v23.6l-0.3,17.6c-0.1,6.1,1.5,12.1,4.6,17.4l16.4,28.1L81.6,269.4z"/>
			<path class="st0" d="M76.9,279.2c-0.5,0-0.9-0.2-1.1-0.7l-16.4-28.1c-3.2-5.5-4.8-11.7-4.7-18l0.3-17.6v-23.6c0-4.1,2-8,5.3-10.4
				L77.7,168c1.1-0.8,2.6-1.1,3.9-0.7c1.4,0.4,2.4,1.4,2.9,2.7c1.6,4.3,0.3,9.2-3.2,12.2l-11.4,9.8l-0.3,11.6l32.5-23.1
				c1.2-0.8,2.7-1.1,4.1-0.8c1.4,0.4,2.6,1.3,3.2,2.6l0.7,1.4c1.6,3.1,0.9,6.8-1.6,9.2l-17.9,17l19.4-12.9c1.4-0.9,3.1-1.1,4.7-0.4
				c1.5,0.7,2.6,2.1,2.9,3.7c0.8,4.9-1.1,9.8-4.8,12.9c-2.8,2.3-6.4,5.3-10.2,8.3c3.4-1.8,6.6-3.6,9.1-4.9c1.7-0.9,3.7-0.8,5.3,0.2
				c1.6,1.1,2.5,2.8,2.4,4.8l0,0.4c-0.2,3.1-1.9,6-4.5,7.7l-27.4,17.8L87.1,262c0,0.2-0.1,0.4-0.2,0.6l-4.2,7.5
				c-0.4,0.6-1.2,0.9-1.8,0.5c-0.6-0.4-0.9-1.2-0.5-1.8l4.1-7.2l0.4-14.7c0-0.4,0.2-0.8,0.6-1.1l28-18.2c1.9-1.3,3.2-3.4,3.3-5.7
				l0-0.4c0.1-1-0.4-1.9-1.2-2.4c-0.8-0.5-1.8-0.6-2.6-0.1c-6.5,3.5-18.3,9.8-23.1,12.6c-0.6,0.3-1.4,0.2-1.8-0.4
				c-0.4-0.6-0.2-1.4,0.3-1.8c4.8-3.6,16.3-12.9,22.7-18.1c3-2.5,4.5-6.4,3.9-10.3c-0.1-0.9-0.6-1.5-1.3-1.8
				c-0.7-0.3-1.5-0.2-2.2,0.2l-32.1,21.4c-0.6,0.4-1.3,0.3-1.8-0.3c-0.4-0.5-0.4-1.3,0.1-1.8l28.9-27.5c1.7-1.6,2.1-4.1,1.1-6.1
				l-0.7-1.4c-0.3-0.6-0.9-1-1.5-1.2c-0.7-0.2-1.3,0-1.9,0.4L69,207.4c-0.4,0.3-0.9,0.3-1.4,0.1c-0.4-0.2-0.7-0.7-0.7-1.2l0.4-14.8
				c0-0.4,0.2-0.7,0.5-1l11.9-10.2c2.7-2.3,3.6-6,2.4-9.3c-0.2-0.6-0.6-1-1.2-1.1c-0.6-0.2-1.1-0.1-1.6,0.3L61.7,183
				c-2.6,1.9-4.2,5-4.2,8.2v23.6l-0.3,17.6c-0.1,5.9,1.4,11.6,4.4,16.7L78,277.2c0.4,0.6,0.2,1.4-0.5,1.8
				C77.3,279.1,77.1,279.2,76.9,279.2z"/>
		</g>
	</g>
	<g>
		<path class="st0" d="M69.7,227.5c-0.4,0-0.8-0.2-1.1-0.5c-0.4-0.6-0.3-1.4,0.3-1.8l24.7-18.3c0.6-0.4,1.4-0.3,1.8,0.3
			c0.4,0.6,0.3,1.4-0.3,1.8l-24.7,18.3C70.2,227.4,70,227.5,69.7,227.5z"/>
	</g>
	<g>
		<path class="st0" d="M80,237.5c-0.4,0-0.9-0.2-1.1-0.6c-0.4-0.6-0.2-1.4,0.4-1.8l25.6-15.6c0.6-0.4,1.4-0.2,1.8,0.4
			c0.4,0.6,0.2,1.4-0.4,1.8l-25.6,15.6C80.5,237.4,80.3,237.5,80,237.5z"/>
	</g>
	<g>
		<path class="st0" d="M56.4,217.5c-0.3,0-0.6-0.1-0.8-0.3c-0.6-0.5-0.7-1.3-0.2-1.9l2.9-3.6c1.3-1.6,2.8-2.9,4.6-3.9l5.3-3.1
			c0.6-0.4,1.4-0.2,1.8,0.5c0.4,0.6,0.2,1.4-0.5,1.8l-5.3,3.1c-1.5,0.9-2.8,2-3.9,3.3l-2.9,3.6C57.2,217.4,56.8,217.5,56.4,217.5z"
			/>
	</g>
	<path class="st2" d="M23.9,76.7l3.5-29.9c1.2-10.3,10-18,20.4-17.8l143,2.4c11.9,0.2,21.1,10.7,19.7,22.5l-3.6,30.1
		c-1.2,10.2-10,17.9-20.3,17.8l-104.2-1.3l1,15.4c0.4,5.4-6.5,8-9.8,3.8L57.5,98.9l-13.1,0.3C32.1,99.4,22.5,88.8,23.9,76.7z"/>
	<polygon class="st1" points="51.8,68 51.3,86.8 64.1,71.7 77.8,75.5 68.3,61.8 72.6,47.2 59.4,54.3 49,42.5 49.9,59.5 34.8,67 	"/>
	<polygon class="st1" points="91.8,65.3 102,57.9 99.2,38.1 114.5,54 127,47.2 120.2,63 130.9,72.7 115.6,71.5 112.2,86.8 106,68.1 
			"/>
	<polygon class="st1" points="137.7,68.1 146.8,57.9 143.4,38.1 154.7,51.1 172.8,43.8 167.7,57.4 182.5,66.4 165.5,71 159.8,88 
		151.3,72.1 	"/>
	<g>
		<path class="st1" d="M182,297.2l-9,32.1L182,297.2z"/>
		<path class="st0" d="M173,330.6c-0.1,0-0.2,0-0.4,0c-0.7-0.2-1.1-0.9-0.9-1.6l9-32.1c0.2-0.7,0.9-1.1,1.6-0.9
			c0.7,0.2,1.1,0.9,0.9,1.6l-9,32.1C174.1,330.2,173.6,330.6,173,330.6z"/>
	</g>
	<g>
		<path class="st1" d="M293.1,293l5.3,35.5L293.1,293z"/>
		<path class="st0" d="M298.4,329.9c-0.6,0-1.2-0.5-1.3-1.1l-5.3-35.5c-0.1-0.7,0.4-1.4,1.1-1.5c0.7-0.1,1.4,0.4,1.5,1.1l5.3,35.5
			c0.1,0.7-0.4,1.4-1.1,1.5C298.5,329.9,298.5,329.9,298.4,329.9z"/>
	</g>
</g>
</svg>
