<?xml version="1.0" encoding="utf-8"?>
<!-- Generator: Adobe Illustrator 26.3.1, SVG Export Plug-In . SVG Version: 6.00 Build 0)  -->
<svg version="1.1" id="sv" xmlns="http://www.w3.org/2000/svg" xmlns:xlink="http://www.w3.org/1999/xlink" x="0px" y="0px"
	 viewBox="0 0 497.3 366.7" style="enable-background:new 0 0 497.3 366.7;" xml:space="preserve">
<style type="text/css">
	.st0{fill:#FFFFFF;}
	.st1{fill:#080717;}
	.st2{fill:#66CCFF;}
</style>
<g>
	<g>
		<g>
			<path class="st0" d="M278.2,326.6h-236c-4.9,0-8.8-3.9-8.8-8.8V166.4c0-4.9,3.9-8.8,8.8-8.8h236c4.9,0,8.8,3.9,8.8,8.8v151.4
				C287,322.7,283.1,326.6,278.2,326.6z"/>
			<path class="st1" d="M273.9,328.1H46.5c-8,0-14.6-6.5-14.6-14.6V170.7c0-8,6.5-14.6,14.6-14.6h227.5c8,0,14.6,6.5,14.6,14.6
				v142.8C288.5,321.5,282,328.1,273.9,328.1z M46.5,159c-6.4,0-11.6,5.2-11.6,11.6v142.8c0,6.4,5.2,11.6,11.6,11.6h227.5
				c6.4,0,11.6-5.2,11.6-11.6V170.7c0-6.4-5.2-11.6-11.6-11.6H46.5z"/>
		</g>
		<g>
			<path class="st1" d="M50.1,178c-3.4,0-6.2-2.8-6.2-6.2s2.8-6.2,6.2-6.2c3.4,0,6.2,2.8,6.2,6.2S53.6,178,50.1,178z M50.1,168.5
				c-1.8,0-3.3,1.5-3.3,3.3c0,1.8,1.5,3.3,3.3,3.3c1.8,0,3.3-1.5,3.3-3.3C53.4,170,51.9,168.5,50.1,168.5z"/>
		</g>
		<g>
			<path class="st1" d="M66.1,178c-3.4,0-6.2-2.8-6.2-6.2s2.8-6.2,6.2-6.2c3.4,0,6.2,2.8,6.2,6.2S69.5,178,66.1,178z M66.1,168.5
				c-1.8,0-3.3,1.5-3.3,3.3c0,1.8,1.5,3.3,3.3,3.3c1.8,0,3.3-1.5,3.3-3.3C69.3,170,67.9,168.5,66.1,168.5z"/>
		</g>
		<g>
			<path class="st1" d="M82,178c-3.4,0-6.2-2.8-6.2-6.2s2.8-6.2,6.2-6.2c3.4,0,6.2,2.8,6.2,6.2S85.4,178,82,178z M82,168.5
				c-1.8,0-3.2,1.5-3.2,3.3c0,1.8,1.5,3.3,3.2,3.3c1.8,0,3.3-1.5,3.3-3.3C85.3,170,83.8,168.5,82,168.5z"/>
		</g>
	</g>
	<g>
		<g>
			<path class="st0" d="M458.8,204.7h-236c-4.9,0-8.8-3.9-8.8-8.8V44.5c0-4.9,3.9-8.8,8.8-8.8h236c4.9,0,8.8,3.9,8.8,8.8v151.4
				C467.6,200.8,463.6,204.7,458.8,204.7z"/>
			<path class="st1" d="M454.5,206.2H227c-8,0-14.6-6.5-14.6-14.6V48.8c0-8,6.5-14.6,14.6-14.6h227.5c8,0,14.6,6.5,14.6,14.6v142.8
				C469.1,199.7,462.5,206.2,454.5,206.2z M227,37.2c-6.4,0-11.6,5.2-11.6,11.6v142.8c0,6.4,5.2,11.6,11.6,11.6h227.5
				c6.4,0,11.6-5.2,11.6-11.6V48.8c0-6.4-5.2-11.6-11.6-11.6H227z"/>
		</g>
		<g>
			<path class="st1" d="M230.7,56.1c-3.4,0-6.2-2.8-6.2-6.2c0-3.4,2.8-6.2,6.2-6.2c3.4,0,6.2,2.8,6.2,6.2
				C236.9,53.3,234.1,56.1,230.7,56.1z M230.7,46.6c-1.8,0-3.3,1.5-3.3,3.3c0,1.8,1.5,3.2,3.3,3.2c1.8,0,3.3-1.5,3.3-3.2
				C233.9,48.1,232.4,46.6,230.7,46.6z"/>
		</g>
		<g>
			<path class="st1" d="M246.6,56.1c-3.4,0-6.2-2.8-6.2-6.2c0-3.4,2.8-6.2,6.2-6.2s6.2,2.8,6.2,6.2C252.8,53.3,250,56.1,246.6,56.1z
				 M246.6,46.6c-1.8,0-3.3,1.5-3.3,3.3c0,1.8,1.5,3.2,3.3,3.2c1.8,0,3.3-1.5,3.3-3.2C249.8,48.1,248.4,46.6,246.6,46.6z"/>
		</g>
		<g>
			<path class="st1" d="M262.5,56.1c-3.4,0-6.2-2.8-6.2-6.2c0-3.4,2.8-6.2,6.2-6.2c3.4,0,6.2,2.8,6.2,6.2
				C268.8,53.3,266,56.1,262.5,56.1z M262.5,46.6c-1.8,0-3.3,1.5-3.3,3.3c0,1.8,1.5,3.2,3.3,3.2c1.8,0,3.2-1.5,3.2-3.2
				C265.8,48.1,264.3,46.6,262.5,46.6z"/>
		</g>
	</g>
	<g>
		<path class="st2" d="M393.8,186l-67.8,0.8c-8.6,0.1-15.7-6.8-15.8-15.4l-0.8-67.8c-0.1-8.6,6.8-15.7,15.4-15.8l67.8-0.8
			c8.6-0.1,15.7,6.8,15.8,15.4l0.8,67.8C409.3,178.9,402.4,185.9,393.8,186z"/>
		<path class="st0" d="M357.6,118.6c0.1,7.9-6.2,14.4-14.1,14.5c-7.9,0.1-14.4-6.2-14.5-14.1c-0.1-7.9,6.2-14.4,14.1-14.5
			C351.1,104.4,357.5,110.7,357.6,118.6z"/>
		<path class="st1" d="M310.2,171.4l-0.2-15.4l6.8-7c5.1-5.2,13.4-5.3,18.5-0.2l0,0c4.9,4.8,12.8,4.7,17.6-0.2l26.9-27.5
			c6.4-6.5,16.8-6.7,23.4-0.3l5.5,5.4l0.5,44.1c0.1,8.6-6.8,15.7-15.4,15.8l-67.8,0.8C317.4,187,310.3,180.1,310.2,171.4z"/>
	</g>
	<g>
		<path class="st0" d="M125.2,326h-7.9l5.1-5.3c2-2,4.6-3.3,7.4-3.5l0,0c2.5-0.2,3.8,0.7,5.6,3.7l8.9,16l-3.8,0.7
			c-2.7,0.5-5.4-0.4-7.2-2.5L125.2,326z"/>
		<path class="st1" d="M139.2,339.3c-2.6,0-5.2-1.1-7-3.1l-7.7-8.7h-7.2c-0.6,0-1.1-0.4-1.4-0.9c-0.2-0.5-0.1-1.2,0.3-1.6l5.1-5.3
			c2.2-2.3,5.2-3.7,8.4-4c3.5-0.3,5.2,1.4,7,4.4l8.9,16.1c0.2,0.4,0.2,0.9,0,1.4c-0.2,0.4-0.6,0.7-1.1,0.8l-3.8,0.7
			C140.3,339.2,139.8,339.3,139.2,339.3z M120.8,324.5h4.4c0.4,0,0.8,0.2,1.1,0.5l8.2,9.2c1.5,1.6,3.7,2.4,5.9,2l1.7-0.3l-7.9-14.2
			c-1.7-2.9-2.6-3.1-4.2-3c-2.5,0.2-4.8,1.3-6.5,3.1L120.8,324.5z"/>
	</g>
	<g>
		<path class="st0" d="M114.8,326h-7.9l5.1-5.3c2-2,4.6-3.3,7.4-3.5l0,0c2.5-0.2,4.8,1.3,5.6,3.7l7,20.4l-5.2,0.3
			c-2.7,0.1-5.2-1.3-6.4-3.7L114.8,326z"/>
		<path class="st1" d="M126.5,343.1c-3.1,0-6-1.7-7.4-4.5l-5.2-11.1h-7c-0.6,0-1.1-0.4-1.4-0.9c-0.2-0.5-0.1-1.2,0.3-1.6l5.1-5.3
			c2.2-2.3,5.2-3.7,8.4-4c3.2-0.3,6.2,1.7,7.2,4.7l7,20.4c0.2,0.4,0.1,0.9-0.2,1.3c-0.3,0.4-0.7,0.6-1.2,0.7l-5.2,0.3
			C126.8,343.1,126.7,343.1,126.5,343.1z M110.4,324.5h4.4c0.6,0,1.1,0.3,1.3,0.9l5.6,11.9c0.9,1.8,2.9,3,5,2.9l3.2-0.2l-6.4-18.5
			c-0.6-1.8-2.3-2.9-4.1-2.7c-2.5,0.2-4.8,1.3-6.5,3.1L110.4,324.5z"/>
	</g>
	<g>
		<path class="st0" d="M104.4,326h-7.9l5.1-5.3c2-2,4.6-3.3,7.4-3.5l0,0c2.5-0.2,4.8,1.3,5.6,3.7l6.4,18.6l-5.2,0.3
			c-2.7,0.1-5.2-1.3-6.4-3.7L104.4,326z"/>
		<path class="st1" d="M115.4,341.4c-3.1,0-6-1.7-7.4-4.5l-4.5-9.3h-7c-0.6,0-1.1-0.4-1.4-0.9c-0.2-0.5-0.1-1.2,0.3-1.6l5.1-5.3
			c2.2-2.3,5.2-3.7,8.4-4c3.2-0.3,6.2,1.7,7.2,4.7l6.4,18.6c0.2,0.4,0.1,0.9-0.2,1.3c-0.3,0.4-0.7,0.6-1.2,0.7l-5.2,0.3
			C115.7,341.4,115.6,341.4,115.4,341.4z M100,324.5h4.4c0.6,0,1.1,0.3,1.3,0.8l4.9,10.1c0.9,1.9,2.9,3,5,2.9l3.2-0.2l-5.7-16.8
			c-0.6-1.8-2.3-2.9-4.1-2.7c-2.5,0.2-4.8,1.3-6.5,3.1L100,324.5z"/>
	</g>
	<g>
		<path class="st0" d="M94.5,326h-7.9l5.1-5.3c2-2,4.6-3.3,7.4-3.5l0,0c2.5-0.2,4.8,1.3,5.6,3.7l5.3,16.2l-5.2,0.3
			c-2.7,0.1-5.2-1.3-6.4-3.7L94.5,326z"/>
		<path class="st1" d="M104.5,338.9c-3.1,0-6-1.7-7.4-4.5l-3.5-6.9h-7c-0.6,0-1.1-0.4-1.4-0.9c-0.2-0.5-0.1-1.2,0.3-1.6l5.1-5.3
			c2.2-2.3,5.2-3.7,8.4-4c3.2-0.3,6.2,1.7,7.2,4.7l5.3,16.2c0.1,0.4,0.1,0.9-0.2,1.3c-0.3,0.4-0.7,0.6-1.1,0.6l-5.2,0.3
			C104.8,338.9,104.7,338.9,104.5,338.9z M90.1,324.5h4.4c0.6,0,1.1,0.3,1.3,0.8l3.9,7.7c1,1.9,2.9,3,5,2.9l3.3-0.2l-4.7-14.3
			c-0.6-1.7-2.3-2.9-4.1-2.7c-2.5,0.2-4.8,1.3-6.5,3.1L90.1,324.5z"/>
	</g>
	<g>
		<path class="st0" d="M119.8,256.7L98,270.6c-19,12.1-33.5,30.1-41.4,51.2l-1.2,3.1L119.8,256.7z"/>
		<path class="st1" d="M55.4,326.3c-0.2,0-0.3,0-0.5-0.1c-0.8-0.3-1.2-1.1-0.9-1.9l1.2-3.1c8-21.3,22.9-39.7,42-51.9l21.8-13.9
			c0.7-0.4,1.6-0.2,2.1,0.5c0.4,0.7,0.2,1.6-0.5,2.1l-21.8,13.9c-18.6,11.9-33.1,29.8-40.9,50.4l-1.2,3.1
			C56.6,325.9,56,326.3,55.4,326.3z"/>
	</g>
	<g>
		<path class="st0" d="M172.7,235.3l130.1-49.3l0.3-13.7c0.1-4.4,2.6-8.4,6.4-10.5l0.9-0.5l4.5,19.3l7.2-0.2l7.1-3.7
			c3.5-1.8,7.6-1.8,11.1,0.1l1.4,0.8l-15.1,17c-2.8,3.1-6.6,5.2-10.8,5.7l-2.2,0.3l-94.2,72.8v52.1L172.7,235.3z"/>
		<path class="st1" d="M219.5,327.1c-0.8,0-1.5-0.7-1.5-1.5v-52.1c0-0.5,0.2-0.9,0.6-1.2l94.2-72.8c0.2-0.2,0.5-0.3,0.7-0.3l2.2-0.3
			c3.8-0.5,7.3-2.4,9.8-5.2l13.9-15.6c-3-1.5-6.5-1.5-9.4,0l-7.1,3.7c-0.2,0.1-0.4,0.2-0.6,0.2l-7.2,0.2c-0.7,0-1.3-0.5-1.5-1.1
			l-4.1-17.4c-3,1.9-4.8,5.2-4.9,8.8l-0.3,13.7c0,0.6-0.4,1.1-1,1.4l-130.1,49.3c-0.8,0.3-1.6-0.1-1.9-0.9c-0.3-0.8,0.1-1.6,0.9-1.9
			l129.2-48.9l0.3-12.7c0.1-4.9,2.9-9.4,7.2-11.8l0.9-0.5c0.4-0.2,0.9-0.2,1.3,0c0.4,0.2,0.7,0.6,0.8,1l4.3,18.1l5.6-0.1l6.8-3.5
			c3.9-2,8.6-2,12.5,0.1l1.4,0.8c0.4,0.2,0.7,0.6,0.8,1.1c0.1,0.4-0.1,0.9-0.4,1.2l-15.1,17c-3,3.4-7.2,5.6-11.7,6.2l-1.8,0.2
			l-93.3,72.1v51.3C220.9,326.4,220.3,327.1,219.5,327.1z"/>
	</g>
	<g>
		<path class="st1" d="M153.6,204.3l-15.1,4.6c-17.3,5.3-35.8-4.6-41.1-21.9l-1.8-6c-6.6-21.7,5.7-44.8,27.4-51.5l3.5,5.5
			c13.6-4.1,28.1,3.6,32.3,17.2l8.2,27C170.2,189.8,164.2,201.1,153.6,204.3z"/>
		
			<ellipse transform="matrix(0.9999 -1.603029e-02 1.603029e-02 0.9999 -2.7517 2.1951)" class="st1" cx="135.6" cy="172.7" rx="37" ry="34.7"/>
		<path class="st1" d="M169.9,231.4c-11-2.3-20.6-10.1-24.6-21.5l-3.7-10.5l27.7-10L169.9,231.4z"/>
		<path class="st1" d="M126.3,177.9c-2.5-11.6,2.1-24,11.9-29.9h0c6.1-3.6,13-4,19.1-1.6c-3.2,0.4-12.2,1.9-13.9,7.9
			C141.4,161.7,141.3,175.6,126.3,177.9z"/>
		<path class="st1" d="M175.4,143.3c2.7,8.7-2.3,18-11,20.6c-8.7,2.7-18-2.3-20.6-11c-2.7-8.7,2.3-18,11-20.6
			C163.5,129.6,172.7,134.5,175.4,143.3z"/>
		<path class="st1" d="M118.2,136.4c-16.4,7.4-25.4,25.7-20.7,43.5c4.6,1.4,9.8,1.5,14.8-0.1c13.1-4,20.7-17.4,16.9-29.9
			C127.5,144,123.4,139.3,118.2,136.4z"/>
		<path class="st1" d="M144.5,140.3c2.7,8.7-2.3,18-11,20.6c-8.7,2.7-18-2.3-20.6-11c-2.7-8.7,2.3-18,11-20.6
			C132.6,126.7,141.8,131.6,144.5,140.3z"/>
		
			<ellipse transform="matrix(4.451482e-02 -0.999 0.999 4.451482e-02 5.058546e-02 281.003)" class="st1" cx="146.9" cy="140.5" rx="17" ry="17"/>
		<g>
			<path class="st1" d="M104.5,154.6c-0.5,0-1-0.2-1.3-0.7c-2.4-3.7-7.7-3.3-7.7-3.3c-0.8,0.1-1.5-0.5-1.6-1.3
				c-0.1-0.8,0.5-1.5,1.3-1.6c0.3,0,7.1-0.6,10.5,4.6c0.4,0.7,0.2,1.6-0.5,2.1C105.1,154.5,104.8,154.6,104.5,154.6z"/>
		</g>
		<g>
			<path class="st1" d="M105.1,154c-0.1,0-0.3,0-0.4-0.1c-6-1.7-7.4-8.4-7.5-8.7c-0.2-0.8,0.4-1.6,1.2-1.7c0.8-0.2,1.6,0.4,1.7,1.2
				l0,0c0,0.1,1.1,5.2,5.4,6.4c0.8,0.2,1.3,1,1,1.8C106.3,153.6,105.7,154,105.1,154z"/>
		</g>
		<g>
			<path class="st0" d="M174.5,235.7l-4.6,0.5l-0.3-18.2c2.2-0.5,4.3-1.3,6.4-2.3c12.5-6.7,17.3-22.2,10.6-34.7l-4.6-8.7
				c2.3-1.6,3.2-4.7,1.8-7.2l0,0c-1.3-2.6-4.4-3.6-7-2.6l-1.3-2.5c-6.7-12.5-22.2-17.3-34.7-10.6l0,0c-10.6,5.6-15.6,17.6-12.9,28.7
				c-4.6,1.5-7.7,6-7.2,11c0.5,4.4,3.6,7.8,7.6,8.8l0.8,50.9l-9.3,8c3.3,9.2,11.8,17.8,23.6,22.6c18.6,7.6,38.3,2.6,43.9-11.2
				C191.6,257.3,186.1,244.4,174.5,235.7z"/>
			<path class="st1" d="M160.8,284.3c-5.8,0-12-1.2-18-3.6c-11.7-4.8-20.8-13.5-24.4-23.4c-0.2-0.6,0-1.2,0.4-1.6l8.8-7.6l-0.8-49.2
				c-4.2-1.5-7.1-5.3-7.7-9.8c-0.6-5.2,2.3-10.1,6.9-12.1c-2.2-11.6,3.4-23.4,13.9-29.1c6.4-3.4,13.8-4.1,20.7-2
				c6.9,2.1,12.6,6.8,16,13.2l0.8,1.4c3-0.6,6.1,0.8,7.6,3.7c1.4,2.8,0.9,6.1-1.3,8.3l4.1,7.7c7,13.2,2,29.7-11.2,36.7
				c-1.7,0.9-3.6,1.7-5.6,2.2l0.2,15.4l3-0.3c0.4,0,0.7,0.1,1,0.3c12.4,9.4,17.7,23.1,13.2,34.2
				C184.6,278.6,173.6,284.3,160.8,284.3z M121.5,257.1c3.5,8.7,11.8,16.5,22.4,20.8c17.9,7.3,36.7,2.6,42-10.3
				c3.9-9.6-0.8-21.8-11.8-30.3l-4,0.4c-0.4,0-0.8-0.1-1.1-0.4c-0.3-0.3-0.5-0.7-0.5-1.1l-0.3-18.2c0-0.7,0.5-1.3,1.2-1.5
				c2.1-0.5,4.2-1.2,6-2.2c11.8-6.3,16.3-20.9,10-32.7l-4.6-8.7c-0.4-0.7-0.2-1.5,0.5-1.9c1.7-1.2,2.3-3.4,1.3-5.3
				c-1-1.9-3.2-2.7-5.2-1.9c-0.7,0.3-1.5,0-1.9-0.7l-1.3-2.5c-6.3-11.8-20.9-16.3-32.7-10c-9.7,5.2-14.8,16.3-12.2,27
				c0.2,0.8-0.3,1.5-1,1.8c-4,1.3-6.6,5.2-6.2,9.4c0.4,3.7,3,6.6,6.5,7.6c0.6,0.2,1.1,0.7,1.1,1.4l0.8,50.9c0,0.4-0.2,0.9-0.5,1.2
				L121.5,257.1z"/>
		</g>
		<g>
			<path class="st1" d="M132.8,191.9c-0.7,0-1.3-0.5-1.4-1.1c-0.8-3.2-3.8-3.7-3.9-3.7c-0.8-0.1-1.4-0.9-1.2-1.7
				c0.1-0.8,0.9-1.4,1.7-1.3c0.2,0,5.2,0.8,6.4,6c0.2,0.8-0.3,1.6-1.1,1.8C133,191.8,132.9,191.9,132.8,191.9z"/>
		</g>
		<g>
			<path class="st1" d="M173.9,180.5c-1.7,0-3.7-0.6-5.8-2.3c-0.6-0.5-0.7-1.4-0.2-2.1c0.5-0.6,1.5-0.7,2.1-0.2
				c4,3.3,6.4,0.8,6.5,0.7c0.6-0.6,1.5-0.7,2.1-0.1c0.6,0.5,0.7,1.5,0.1,2.1C177.8,179.4,176.1,180.5,173.9,180.5z"/>
		</g>
		<path class="st1" d="M170.8,164.9c0.5,1.4-0.1,2.8-1.2,3.2c-1.1,0.4-2.4-0.4-2.9-1.8c-0.5-1.4,0.1-2.8,1.2-3.2
			C169,162.7,170.3,163.5,170.8,164.9z"/>
		<path class="st1" d="M165.4,157.3c0.6,0.6-0.2,2.6-2,4.4c-1.7,1.8-3.7,2.7-4.3,2.1c-0.6-0.6,0.2-2.6,2-4.4
			C162.8,157.6,164.7,156.7,165.4,157.3z"/>
		<path class="st1" d="M133.1,153.4c-10.6,3.6-17.2,14.5-15.3,25.7c2.8,1.1,6,1.5,9.2,0.8c8.4-1.7,13.8-9.6,12.2-17.5
			C138.4,158.6,136.2,155.5,133.1,153.4z"/>
		<g>
			<path class="st1" d="M164.5,219.7c-9.9,0-19.3-5.5-24.1-14.4c-0.4-0.7-0.1-1.6,0.6-2c0.7-0.4,1.6-0.1,2,0.6
				c5,9.4,15.8,14.5,26.2,12.3c0.8-0.2,1.6,0.4,1.8,1.2c0.2,0.8-0.4,1.6-1.2,1.8C168.1,219.5,166.3,219.7,164.5,219.7z"/>
		</g>
	</g>
	<g>
		<path class="st1" d="M249.8,248.7c-0.8,0-1.5-0.6-1.5-1.4c-0.6-20-22.7-30.9-22.9-31c-0.7-0.4-1-1.2-0.7-2c0.4-0.7,1.2-1,2-0.7
			c1,0.5,23.9,11.8,24.6,33.6C251.3,248,250.6,248.7,249.8,248.7C249.8,248.7,249.8,248.7,249.8,248.7z"/>
	</g>
</g>
<g>
	<path class="st1" d="M2791.1,1062.7c6,3.9,9.1,7.9,9.5,11c0,0,131.2,50,165.7,24.8c27.9-20.4-0.6-42.8-9.2-44.7
		c-16.2-3.6-17.1-4.5-9.9-21.5c7.2-17.1,17.3-27.1-8.1-29.6c-17.9-1.8-18.8-7.2-19.7-27.8c-0.9-20.6-33.2-23.3-44.9-17.9
		c-11.7,5.4,0-8.1-10.8-10.8c-10.8-2.7-13.5,3.6-15.3,8.1c-1.8,4.5-24.2,6.3-28.7,22.4c-4.5,16.2-22.4,14.4-16.2,41.3
		c6.3,26.9-2.7,16.2-9.9,18.8C2786.7,1039.4,2778.6,1054.6,2791.1,1062.7z"/>
	<g>
		<path class="st0" d="M2726.3,1178.3l54.9-85.3c6.7-10.7,18.6-17.1,31.2-16.9l100.7-2.3c14.2-0.3,26.9,8.7,31.2,22.2l27.5,86.2
			L2726.3,1178.3z"/>
		<path class="st1" d="M2971.8,1183.6c-0.6,0-1.1-0.4-1.3-0.9l-27.5-86.2c-4.1-12.9-16.4-21.6-29.9-21.3l-100.7,2.3
			c-12.2-0.2-23.7,6-30.1,16.3l-54.9,85.3c-0.4,0.6-1.2,0.8-1.8,0.4c-0.6-0.4-0.8-1.2-0.4-1.8l54.9-85.3c6.9-11,19.3-17.7,32.3-17.5
			l100.6-2.3c14.7-0.3,28,9.2,32.5,23.2l27.5,86.2c0.2,0.7-0.2,1.4-0.9,1.7C2972.1,1183.6,2971.9,1183.6,2971.8,1183.6z"/>
	</g>
	<circle class="st1" cx="2846.8" cy="997" r="46.3"/>
	<g>
		<path class="st0" d="M2902.6,1012.8c-2-0.4-4.1-0.3-5.9,0.3c3.4-17.9-5.7-36.1-22.4-43.9c-20.6-9.7-45.1-0.4-54.1,20.4l-4.9,11.4
			c-7.9,18.3,3.1,39.2,22.6,43l3.6,0.7v29.8h-17.8c6,16.5,22.6,28.3,42.1,28.3s36.1-11.8,42.1-28.3h-21.8v-30.9
			c2.7-2.7,4.7-6.1,5.6-10l0.2-0.7c1.6,1.6,3.6,2.7,5.9,3.2c6.4,1.3,12.7-2.8,14-9.3C2913.2,1020.4,2909.1,1014.1,2902.6,1012.8z"/>
		<path class="st1" d="M2865.8,1104.2c-19.6,0-37-11.7-43.4-29.2c-0.1-0.4-0.1-0.9,0.2-1.2c0.2-0.4,0.7-0.6,1.1-0.6h16.5v-27.4
			l-2.5-0.5c-9.7-1.9-17.9-8-22.5-16.8c-4.6-8.8-5-19-1-28.1l4.9-11.4c4.5-10.4,12.9-18.4,23.5-22.4c10.6-4,22.1-3.5,32.4,1.3
			c16.5,7.8,26,25.4,23.4,43.4c1.5-0.2,3.1-0.2,4.6,0.1l0,0c7.1,1.5,11.8,8.5,10.3,15.6c-0.7,3.5-2.7,6.4-5.7,8.4
			c-2.9,1.9-6.5,2.6-9.9,1.9c-1.8-0.4-3.5-1.1-4.9-2.1c-1,3.3-2.8,6.4-5.2,8.9v29h20.5c0.4,0,0.8,0.2,1.1,0.6
			c0.2,0.4,0.3,0.8,0.2,1.2C2902.8,1092.4,2885.3,1104.2,2865.8,1104.2z M2825.6,1075.8c6.5,15.4,22.4,25.7,40.2,25.7
			c17.8,0,33.7-10.2,40.2-25.7h-19.9c-0.7,0-1.3-0.6-1.3-1.3v-30.9c0-0.3,0.1-0.7,0.4-0.9c2.6-2.6,4.4-5.9,5.3-9.4l0.2-0.7
			c0.1-0.5,0.5-0.8,0.9-1c0.5-0.1,0.9,0,1.3,0.3c1.5,1.4,3.3,2.4,5.3,2.8c2.8,0.6,5.6,0,7.9-1.5c2.4-1.6,4-3.9,4.5-6.7
			c1.2-5.7-2.5-11.3-8.2-12.5l0,0c-1.7-0.4-3.6-0.3-5.3,0.3c-0.4,0.1-0.9,0-1.3-0.3c-0.3-0.3-0.5-0.8-0.4-1.2
			c3.3-17.5-5.6-34.9-21.6-42.5c-9.6-4.5-20.4-5-30.4-1.2c-10,3.8-17.8,11.2-22,21l-4.9,11.4c-3.6,8.3-3.3,17.7,1,25.8
			c4.2,8,11.8,13.7,20.7,15.4l3.6,0.7c0.6,0.1,1.1,0.7,1.1,1.3v29.8c0,0.7-0.6,1.3-1.3,1.3H2825.6z"/>
	</g>
	<g>
		<path class="st1" d="M2894.6,1027.8c-0.1,0-0.2,0-0.3,0c-0.7-0.1-1.2-0.8-1-1.6c0.5-2.6,2.1-4.9,4.3-6.4c2.3-1.5,5-2,7.6-1.5
			c0.7,0.1,1.2,0.8,1,1.6c-0.1,0.7-0.8,1.2-1.6,1c-4-0.8-8,1.8-8.8,5.8C2895.7,1027.4,2895.2,1027.8,2894.6,1027.8z"/>
	</g>
	<g>
		<path class="st1" d="M2837.2,1001.4c-0.3,0-0.6-0.1-0.9-0.3c-0.5-0.5-0.6-1.3-0.1-1.9l6.6-7.4c1.8-2,2.6-4.6,2.2-7.3
			c-0.3-2.6-1.8-5-4-6.4c0,0-0.1-0.1-0.1-0.1c-0.1-0.1-3.9-3-11,0.2c-0.7,0.3-1.4,0-1.7-0.6c-0.3-0.7,0-1.4,0.6-1.7
			c8.2-3.8,13-0.4,13.7,0.1c2.8,1.9,4.7,4.9,5.1,8.3c0.4,3.4-0.6,6.8-2.9,9.4l-6.6,7.4C2837.9,1001.3,2837.6,1001.4,2837.2,1001.4z"
			/>
	</g>
	<path class="st1" d="M2869.6,996.1c-1.5,1.9-3.6,2.4-4.8,1.2c-1.2-1.2-0.9-3.8,0.6-5.7c1.5-1.9,3.6-2.4,4.8-1.2
		C2871.3,991.7,2871,994.2,2869.6,996.1z"/>
	<path class="st1" d="M2836.1,988.4c-1.5,1.9-3.6,2.4-4.8,1.2c-1.2-1.2-0.9-3.8,0.6-5.7c1.5-1.9,3.6-2.4,4.8-1.2
		C2837.8,984,2837.6,986.5,2836.1,988.4z"/>
	<g>
		<path class="st0" d="M2835.3,1005.7l22.4,0.1C2857.7,1005.8,2845.7,1031.8,2835.3,1005.7z"/>
		<path class="st1" d="M2845.8,1018.6c-0.1,0-0.1,0-0.2,0c-4.4-0.1-8.2-4.3-11.5-12.4c-0.2-0.4-0.1-0.9,0.1-1.2
			c0.2-0.4,0.7-0.6,1.1-0.6c0,0,0,0,0,0l22.4,0.1c0.4,0,0.9,0.2,1.1,0.6c0.2,0.4,0.3,0.9,0.1,1.3
			C2858.7,1006.9,2853.1,1018.6,2845.8,1018.6z M2837.3,1007c2.6,5.8,5.4,8.9,8.3,9c4,0.1,7.9-5.3,9.9-8.9L2837.3,1007z"/>
	</g>
	<g>
		<path class="st1" d="M2896.9,1011.5c2.5-17-6.1-34-21.7-41.8C2874.3,985.6,2882.7,1001,2896.9,1011.5z"/>
	</g>
	<g>
		<path class="st1" d="M2882.1,996.2c-0.6,0-1.1-0.4-1.3-0.9c-3.7-11.7-17.8-12.8-18-12.9c-0.7-0.1-1.3-0.7-1.2-1.4
			c0.1-0.7,0.7-1.3,1.4-1.2c0.7,0,16,1.3,20.3,14.7c0.2,0.7-0.2,1.4-0.9,1.7C2882.4,996.2,2882.3,996.2,2882.1,996.2z"/>
	</g>
	<g>
		<path class="st1" d="M2841.4,1046c-0.7,0-1.3-0.6-1.3-1.3c0-0.7,0.5-1.3,1.3-1.4c8-0.3,21.6-6.3,21.8-6.3c0.7-0.3,1.4,0,1.7,0.7
			c0.3,0.7,0,1.4-0.7,1.7C2863.6,1039.7,2850,1045.7,2841.4,1046C2841.5,1046,2841.5,1046,2841.4,1046z"/>
	</g>
	<g>
		<g>
			<polygon class="st0" points="2759.5,1182.3 2731.5,1129.5 2734.7,1103.1 2689.6,1103.1 2705.3,1182.3 			"/>
			<path class="st1" d="M2759.5,1183.6c-0.5,0-0.9-0.3-1.2-0.7l-28-52.8c-0.1-0.2-0.2-0.5-0.1-0.8l3.1-24.9h-42l15.3,77.6
				c0.1,0.7-0.3,1.4-1,1.5c-0.7,0.1-1.4-0.3-1.5-1l-15.6-79.2c-0.1-0.4,0-0.8,0.3-1.1c0.3-0.3,0.6-0.5,1-0.5h45.1
				c0.4,0,0.7,0.2,1,0.4c0.3,0.3,0.4,0.7,0.3,1l-3.2,26l27.8,52.4c0.3,0.6,0.1,1.4-0.5,1.8
				C2759.9,1183.5,2759.7,1183.6,2759.5,1183.6z"/>
		</g>
		<path class="st1" d="M2673.3,998.3c12.6-0.3,41.1-0.5,51.1-0.7c2.5,0,4.6,1.5,5.4,3.9l30.3,103.8c1.1,3.6-1.5,7.3-5.3,7.3h-52.4
			c-2.5,0-4.7-1.7-5.4-4.1l-28.9-103.1C2667.1,1001.9,2669.6,998.4,2673.3,998.3z"/>
		<g>
			<path class="st0" d="M2699.8,1120.9l4.2-7.5l0.4-15l28-18.2c2.3-1.5,3.7-4,3.9-6.7l0-0.4c0.2-3.1-3-5.2-5.8-3.8
				c-7.1,3.8-18.4,9.8-23.1,12.6c4.8-3.5,15.9-12.6,22.7-18.1c3.4-2.8,5.1-7.2,4.4-11.5l0-0.1c-0.4-2.6-3.3-3.9-5.5-2.4l-32.1,21.4
				l28.9-27.5c2.1-2,2.6-5.1,1.3-7.7l-0.7-1.4c-1-2-3.5-2.6-5.3-1.3l-34.7,24.6l0.4-14.8l11.9-10.2c3.1-2.7,4.2-6.9,2.8-10.8l0,0
				c-0.7-2-3.1-2.7-4.8-1.5l-17.6,12.9c-3,2.2-4.7,5.6-4.7,9.3v23.6l-0.3,17.6c-0.1,6.1,1.5,12.1,4.6,17.4l16.4,28.1L2699.8,1120.9z
				"/>
			<path class="st1" d="M2695.1,1130.6c-0.5,0-0.9-0.2-1.1-0.7l-16.4-28.1c-3.2-5.5-4.8-11.7-4.7-18l0.3-17.6v-23.6
				c0-4.1,2-8,5.3-10.4l17.6-12.9c1.1-0.8,2.6-1.1,3.9-0.7c1.4,0.4,2.4,1.4,2.9,2.7c1.6,4.3,0.3,9.2-3.2,12.2l-11.4,9.8l-0.3,11.6
				l32.5-23.1c1.2-0.8,2.7-1.1,4.1-0.8c1.4,0.4,2.6,1.3,3.2,2.6l0.7,1.4c1.6,3.1,0.9,6.8-1.6,9.2l-17.9,17l19.4-12.9
				c1.4-0.9,3.1-1.1,4.7-0.4c1.5,0.7,2.6,2.1,2.9,3.7c0.8,4.9-1.1,9.8-4.8,12.9c-2.8,2.3-6.4,5.3-10.2,8.3c3.4-1.8,6.6-3.6,9.1-4.9
				c1.7-0.9,3.7-0.8,5.3,0.2c1.6,1.1,2.5,2.8,2.4,4.8l0,0.4c-0.2,3.1-1.9,6-4.5,7.7l-27.4,17.8l-0.4,14.3c0,0.2-0.1,0.4-0.2,0.6
				l-4.2,7.5c-0.4,0.6-1.2,0.9-1.8,0.5c-0.6-0.4-0.9-1.2-0.5-1.8l4.1-7.2l0.4-14.7c0-0.4,0.2-0.8,0.6-1.1l28-18.2
				c1.9-1.3,3.2-3.4,3.3-5.7l0-0.4c0.1-1-0.4-1.9-1.2-2.4c-0.8-0.5-1.8-0.6-2.6-0.1c-6.5,3.5-18.3,9.8-23.1,12.6
				c-0.6,0.3-1.4,0.2-1.8-0.4c-0.4-0.6-0.2-1.4,0.3-1.8c4.8-3.6,16.3-12.9,22.7-18.1c3-2.5,4.5-6.4,3.9-10.3
				c-0.1-0.9-0.6-1.5-1.3-1.8c-0.7-0.3-1.5-0.2-2.2,0.2l-32.1,21.4c-0.6,0.4-1.3,0.3-1.8-0.3c-0.4-0.5-0.4-1.3,0.1-1.8l28.9-27.5
				c1.7-1.6,2.1-4.1,1.1-6.1l-0.7-1.4c-0.3-0.6-0.9-1-1.5-1.2c-0.7-0.2-1.3,0-1.9,0.4l-34.7,24.6c-0.4,0.3-0.9,0.3-1.4,0.1
				c-0.4-0.2-0.7-0.7-0.7-1.2l0.4-14.8c0-0.4,0.2-0.7,0.5-1l11.9-10.2c2.7-2.3,3.6-6,2.4-9.3c-0.2-0.6-0.6-1-1.2-1.1
				c-0.6-0.2-1.1-0.1-1.6,0.3l-17.6,12.9c-2.6,1.9-4.2,5-4.2,8.2v23.6l-0.3,17.6c-0.1,5.9,1.4,11.6,4.4,16.7l16.4,28.1
				c0.4,0.6,0.2,1.4-0.5,1.8C2695.6,1130.6,2695.3,1130.6,2695.1,1130.6z"/>
		</g>
	</g>
	<g>
		<path class="st1" d="M2688,1078.9c-0.4,0-0.8-0.2-1.1-0.5c-0.4-0.6-0.3-1.4,0.3-1.8l24.7-18.3c0.6-0.4,1.4-0.3,1.8,0.3
			c0.4,0.6,0.3,1.4-0.3,1.8l-24.7,18.3C2688.5,1078.8,2688.2,1078.9,2688,1078.9z"/>
	</g>
	<g>
		<path class="st1" d="M2698.3,1088.9c-0.4,0-0.9-0.2-1.1-0.6c-0.4-0.6-0.2-1.4,0.4-1.8l25.6-15.6c0.6-0.4,1.4-0.2,1.8,0.4
			c0.4,0.6,0.2,1.4-0.4,1.8l-25.6,15.6C2698.8,1088.9,2698.5,1088.9,2698.3,1088.9z"/>
	</g>
	<g>
		<path class="st1" d="M2674.7,1069c-0.3,0-0.6-0.1-0.8-0.3c-0.6-0.5-0.7-1.3-0.2-1.9l2.9-3.6c1.3-1.6,2.8-2.9,4.6-3.9l5.3-3.1
			c0.6-0.4,1.4-0.2,1.8,0.5c0.4,0.6,0.2,1.4-0.5,1.8l-5.3,3.1c-1.5,0.9-2.8,2-3.9,3.3l-2.9,3.6
			C2675.5,1068.8,2675.1,1069,2674.7,1069z"/>
	</g>
	<path class="st2" d="M2642.2,928.1l3.5-29.9c1.2-10.3,10-18,20.4-17.8l143,2.4c11.9,0.2,21.1,10.7,19.7,22.5l-3.6,30.1
		c-1.2,10.2-10,17.9-20.3,17.8l-104.2-1.3l1,15.4c0.4,5.4-6.5,8-9.8,3.8l-16.2-20.6l-13.1,0.3
		C2650.4,950.9,2640.7,940.3,2642.2,928.1z"/>
	<polygon class="st0" points="2670.1,919.4 2669.6,938.3 2682.3,923.2 2696,927 2686.6,913.3 2690.8,898.6 2677.6,905.7 
		2667.2,893.9 2668.2,910.9 2653.1,918.5 	"/>
	<polygon class="st0" points="2710.1,916.8 2720.3,909.4 2717.5,889.6 2732.8,905.4 2745.2,898.6 2738.4,914.5 2749.2,924.1 
		2733.9,923 2730.5,938.3 2724.3,919.6 	"/>
	<polygon class="st0" points="2756,919.6 2765,909.4 2761.6,889.6 2773,902.6 2791.1,895.2 2786,908.8 2800.7,917.9 2783.7,922.4 
		2778.1,939.4 2769.6,923.6 	"/>
	<g>
		<path class="st0" d="M2800.2,1148.7l-9,32.1L2800.2,1148.7z"/>
		<path class="st1" d="M2791.3,1182.1c-0.1,0-0.2,0-0.4,0c-0.7-0.2-1.1-0.9-0.9-1.6l9-32.1c0.2-0.7,0.9-1.1,1.6-0.9
			c0.7,0.2,1.1,0.9,0.9,1.6l-9,32.1C2792.4,1181.7,2791.9,1182.1,2791.3,1182.1z"/>
	</g>
	<g>
		<path class="st0" d="M2911.4,1144.5l5.3,35.5L2911.4,1144.5z"/>
		<path class="st1" d="M2916.7,1181.3c-0.6,0-1.2-0.5-1.3-1.1l-5.3-35.5c-0.1-0.7,0.4-1.4,1.1-1.5c0.7-0.1,1.4,0.4,1.5,1.1l5.3,35.5
			c0.1,0.7-0.4,1.4-1.1,1.5C2916.8,1181.3,2916.7,1181.3,2916.7,1181.3z"/>
	</g>
</g>
<g>
	<g>
		<g>
			<path class="st0" d="M3326.9,1030.1h-201.6c-4.9,0-8.8-3.9-8.8-8.8V892.8c0-4.9,3.9-8.8,8.8-8.8h201.6c4.9,0,8.8,3.9,8.8,8.8
				v128.5C3335.7,1026.1,3331.8,1030.1,3326.9,1030.1z"/>
			<path class="st1" d="M3324.4,1031.4h-196.6c-7,0-12.6-5.7-12.6-12.6V895.3c0-7,5.7-12.6,12.6-12.6h196.6c7,0,12.6,5.7,12.6,12.6
				v123.5C3337,1025.7,3331.3,1031.4,3324.4,1031.4z M3127.8,885.2c-5.5,0-10,4.5-10,10v123.5c0,5.5,4.5,10,10,10h196.6
				c5.5,0,10-4.5,10-10V895.3c0-5.5-4.5-10-10-10H3127.8z"/>
		</g>
		<g>
			<path class="st1" d="M3130.9,901.6c-3,0-5.4-2.4-5.4-5.4s2.4-5.4,5.4-5.4s5.4,2.4,5.4,5.4S3133.9,901.6,3130.9,901.6z
				 M3130.9,893.4c-1.5,0-2.8,1.3-2.8,2.8c0,1.5,1.3,2.8,2.8,2.8s2.8-1.3,2.8-2.8C3133.7,894.7,3132.5,893.4,3130.9,893.4z"/>
		</g>
		<g>
			<path class="st1" d="M3144.7,901.6c-3,0-5.4-2.4-5.4-5.4s2.4-5.4,5.4-5.4c3,0,5.4,2.4,5.4,5.4S3147.7,901.6,3144.7,901.6z
				 M3144.7,893.4c-1.5,0-2.8,1.3-2.8,2.8c0,1.5,1.3,2.8,2.8,2.8s2.8-1.3,2.8-2.8C3147.5,894.7,3146.2,893.4,3144.7,893.4z"/>
		</g>
		<g>
			<path class="st1" d="M3158.5,901.6c-3,0-5.4-2.4-5.4-5.4s2.4-5.4,5.4-5.4c3,0,5.4,2.4,5.4,5.4S3161.4,901.6,3158.5,901.6z
				 M3158.5,893.4c-1.5,0-2.8,1.3-2.8,2.8c0,1.5,1.3,2.8,2.8,2.8c1.5,0,2.8-1.3,2.8-2.8C3161.3,894.7,3160,893.4,3158.5,893.4z"/>
		</g>
	</g>
	<g>
		<g>
			<path class="st2" d="M3158.2,937.2h-19.6c-3.1,0-5.6-2.5-5.6-5.6c0-3.1,2.5-5.6,5.6-5.6h19.6c3.1,0,5.6,2.5,5.6,5.6
				C3163.8,934.8,3161.3,937.2,3158.2,937.2z M3138.6,928.7c-1.6,0-3,1.3-3,3c0,1.6,1.3,3,3,3h19.6c1.6,0,3-1.3,3-3c0-1.6-1.3-3-3-3
				H3138.6z"/>
		</g>
		<g>
			<path class="st2" d="M3175.9,937.2c-2.9,0-5.3-2.4-5.3-5.3v-0.4c0-2.9,2.4-5.3,5.3-5.3c2.9,0,5.3,2.4,5.3,5.3v0.4
				C3181.2,934.9,3178.8,937.2,3175.9,937.2z M3175.9,928.7c-1.5,0-2.8,1.2-2.8,2.8v0.4c0,1.5,1.2,2.8,2.8,2.8s2.8-1.2,2.8-2.8v-0.4
				C3178.6,929.9,3177.4,928.7,3175.9,928.7z"/>
		</g>
		<g>
			<path class="st0" d="M3180.8,959.4h119.8H3180.8z"/>
			<path class="st2" d="M3300.6,960.7h-119.8c-0.7,0-1.3-0.6-1.3-1.3c0-0.7,0.6-1.3,1.3-1.3h119.8c0.7,0,1.3,0.6,1.3,1.3
				C3301.9,960.1,3301.3,960.7,3300.6,960.7z"/>
		</g>
		<g>
			<path class="st0" d="M3180.8,971.6h119.8H3180.8z"/>
			<path class="st2" d="M3300.6,972.9h-119.8c-0.7,0-1.3-0.6-1.3-1.3c0-0.7,0.6-1.3,1.3-1.3h119.8c0.7,0,1.3,0.6,1.3,1.3
				C3301.9,972.3,3301.3,972.9,3300.6,972.9z"/>
		</g>
		<g>
			<path class="st0" d="M3180.8,983.8h43H3180.8z"/>
			<path class="st2" d="M3223.9,985.1h-43c-0.7,0-1.3-0.6-1.3-1.3c0-0.7,0.6-1.3,1.3-1.3h43c0.7,0,1.3,0.6,1.3,1.3
				C3225.2,984.5,3224.6,985.1,3223.9,985.1z"/>
		</g>
		<g>
			<path class="st0" d="M3162.6,990.7h-23.3c-2.7,0-4.9-2.2-4.9-4.9v-23.3c0-2.7,2.2-4.9,4.9-4.9h23.3c2.7,0,4.9,2.2,4.9,4.9v23.3
				C3167.5,988.5,3165.3,990.7,3162.6,990.7z"/>
			<path class="st2" d="M3161.2,992h-20.5c-4.2,0-7.6-3.4-7.6-7.6v-20.5c0-4.2,3.4-7.6,7.6-7.6h20.5c4.2,0,7.6,3.4,7.6,7.6v20.5
				C3168.8,988.5,3165.4,992,3161.2,992z M3140.6,958.7c-2.8,0-5.1,2.3-5.1,5.1v20.5c0,2.8,2.3,5.1,5.1,5.1h20.5
				c2.8,0,5.1-2.3,5.1-5.1v-20.5c0-2.8-2.3-5.1-5.1-5.1H3140.6z"/>
		</g>
	</g>
	<g>
		<path class="st0" d="M3261.6,1016.7l2.1-32.7c0.7-10.7-1.9-21.3-7.4-30.4l-27.3-45.8c-1.1-1.9-3.9-1.7-4.8,0.3l0,0
			c-1.3,3.2-1.1,6.8,0.5,9.8l8.7,16.1l-12.3-7.9l-12.6,13.7c-1.3,1.4-1,3.7,0.6,4.8l0,0l-3.2,3.4c-1,1.1-0.8,2.8,0.5,3.5l0,0
			c2.4,1.5,5.3,1.9,8.1,1.3l1.5-0.4l2.9,12.9c0.4,1.9,2.6,2.8,4.3,1.8l0.1-0.1c1.9-1.2,3.3-3.1,3.8-5.4l0.9-3.7l12,12.7l-17.6,73.4
			c1.8,16.5,17.6,27.8,33.8,24.1l90.5-20.5l-18.3-35.8l-71,6.3L3261.6,1016.7z"/>
		<g>
			<path class="st1" d="M3250,1070.2c-6,0-11.9-1.9-16.9-5.4c-6.7-4.8-11.1-12.3-12-20.5l0-0.2l0.1-0.2l17.4-72.7l-9.9-10.5
				l-0.3,1.4c-0.6,2.6-2.2,4.8-4.4,6.2l-0.1,0.1c-1.1,0.7-2.5,0.8-3.8,0.3c-1.2-0.5-2.1-1.6-2.4-2.9l-2.6-11.6l-0.3,0.1
				c-3.1,0.7-6.3,0.2-9-1.4c-0.9-0.6-1.5-1.5-1.7-2.6c-0.1-1.1,0.2-2.1,0.9-2.9l2.4-2.5c-0.5-0.6-0.8-1.4-0.9-2.2
				c-0.2-1.3,0.3-2.6,1.1-3.6l7.8-8.5c3.2-3.5,8.4-4.1,12.3-1.6l2.2,1.4l-6.4-11.8c-1.8-3.4-2-7.3-0.6-10.9c0.6-1.4,1.9-2.3,3.4-2.4
				c1.5-0.1,2.9,0.6,3.7,1.9l27.3,45.8c5.6,9.4,8.2,20.2,7.5,31.2l-2,32.4l66.2-5.8l19.4,38.1l-92.1,20.8
				C3254.3,1070,3252.2,1070.2,3250,1070.2z M3223.7,1044.2c0.9,7.4,4.8,14.2,10.9,18.5c6.1,4.4,13.9,6,21.3,4.3l88.9-20.1
				l-17.1-33.6l-70.2,6.2l-0.2-2.6l3.7-0.3l-0.6,0l2.1-32.7c0.7-10.4-1.8-20.7-7.2-29.7l-27.3-45.8c-0.3-0.5-0.7-0.7-1.3-0.7
				c-0.5,0-1,0.4-1.2,0.9c-1.2,2.8-1,6,0.4,8.7l11.1,20.5l-10.6-6.8c-2.9-1.9-6.7-1.4-9,1.2l-7.8,8.5c-0.4,0.4-0.6,1-0.5,1.5
				c0.1,0.5,0.4,1,0.8,1.3l1.3,0.8l-4.3,4.5c-0.3,0.3-0.3,0.6-0.3,0.8c0,0.2,0.1,0.5,0.5,0.7c2.1,1.3,4.7,1.7,7.1,1.1l2.8-0.7
				l3.2,14.2c0.1,0.5,0.4,0.9,0.9,1.1c0.5,0.2,1,0.1,1.4-0.1l0.1-0.1c1.7-1,2.8-2.7,3.3-4.6l1.4-6l14.1,14.9L3223.7,1044.2z"/>
		</g>
		<g>
			<g>
				<path class="st0" d="M3379.1,1130.2l57.3-96.5l0.9-7.3c-10.1-12.9-27.2-22.6-43.2-20.7l-33.5,3.8c-6.8,0.8-13.1,3.8-17.8,8.5
					l-10.9,11c-5.9,5.9-4.2,80-4.2,80L3379.1,1130.2z"/>
				<path class="st1" d="M3379.1,1131.5c-0.2,0-0.3,0-0.5-0.1l-51.5-21.3c-0.5-0.2-0.8-0.6-0.8-1.2c0-0.2-0.4-18.8-0.1-37.8
					c0.6-39,3.6-42,4.7-43.1l10.9-11c4.9-4.9,11.5-8.1,18.6-8.9l33.5-3.8c17.5-2,34.9,9.2,44.4,21.2c0.2,0.3,0.3,0.6,0.3,0.9
					l-0.9,7.3c0,0.2-0.1,0.4-0.2,0.5l-57.3,96.5C3380,1131.3,3379.5,1131.5,3379.1,1131.5z M3328.8,1108.1l49.7,20.5l56.6-95.3
					l0.8-6.5c-9.1-11.3-25.4-21.7-41.7-19.9l-33.5,3.8c-6.5,0.7-12.6,3.6-17.1,8.1l-10.9,11
					C3328.7,1033.9,3328.2,1079.6,3328.8,1108.1z"/>
			</g>
			<g>
				
					<ellipse transform="matrix(0.7071 -0.7071 0.7071 0.7071 313.0376 2692.8479)" class="st1" cx="3407.1" cy="968.6" rx="35" ry="35"/>
				
					<ellipse transform="matrix(0.8455 -0.534 0.534 0.8455 11.9747 1952.1458)" class="st1" cx="3379.1" cy="955.4" rx="23.1" ry="23.1"/>
				<path class="st1" d="M3350.1,946.2c-1,7.6,4.4,14.5,12,15.5c7.6,1,14.5-4.4,15.5-12c1-7.6-4.4-14.5-12-15.5
					C3358,933.2,3351,938.6,3350.1,946.2z"/>
				
					<ellipse transform="matrix(0.1244 -0.9922 0.9922 0.1244 2063.1992 4234.6387)" class="st1" cx="3431" cy="948.3" rx="23.6" ry="22.9"/>
				<g>
					<path class="st1" d="M3443.1,973.1c-0.5,0-1-0.3-1.2-0.8c-0.3-0.6,0-1.4,0.6-1.7c6.4-2.9,11-9.5,12-17.4
						c1.4-11.6-5.4-22-15.3-23.2c-0.7-0.1-1.2-0.7-1.1-1.4c0.1-0.7,0.7-1.2,1.4-1.1c11.3,1.4,19.2,13.1,17.5,26.1
						c-1.1,8.7-6.3,16.2-13.5,19.4C3443.4,973.1,3443.2,973.1,3443.1,973.1z"/>
				</g>
				
					<ellipse transform="matrix(0.5403 -0.8414 0.8414 0.5403 757.5463 3275.6304)" class="st1" cx="3376.9" cy="944.4" rx="31.4" ry="31.4"/>
				
					<ellipse transform="matrix(0.9019 -0.432 0.432 0.9019 -71.3184 1559.8446)" class="st1" cx="3397.9" cy="936.9" rx="31.4" ry="31.4"/>
				<g>
					<path class="st1" d="M3400.9,968.6c-1.4,0-2.7-0.1-4.1-0.3c-17.9-2.2-30.6-18.6-28.4-36.5l0,0c2.2-17.9,18.6-30.6,36.5-28.4
						c17.9,2.2,30.6,18.6,28.4,36.5C3431.2,956.5,3417.1,968.6,3400.9,968.6z M3370.9,932.1L3370.9,932.1
						c-2.1,16.5,9.7,31.6,26.2,33.7c16.5,2.1,31.6-9.7,33.7-26.2c2.1-16.5-9.7-31.6-26.2-33.7C3388.1,903.9,3373,915.6,3370.9,932.1
						z"/>
				</g>
				<g>
					<path class="st1" d="M3397.7,984c-0.1,0-0.1,0-0.2,0c-1.9-0.2-3.7-1-5.2-2.1c-0.7-0.5-1.3-1.2-1.9-1.9
						c-0.4-0.6-0.3-1.4,0.2-1.8c0.6-0.4,1.4-0.3,1.8,0.2c0.4,0.5,0.9,1,1.4,1.4c1.1,0.9,2.5,1.4,3.9,1.6c0.7,0.1,1.2,0.7,1.1,1.4
						C3398.9,983.5,3398.4,984,3397.7,984z"/>
				</g>
				<g>
					<path class="st0" d="M3362.8,1012l-0.8-17.6c-0.6-0.1-1.2-0.3-1.8-0.5c-11.4-3.8-16.7-18.8-11.8-33.5
						c4.9-14.6,18.2-23.4,29.6-19.6c9.1,3.1,14.3,13.2,13.6,24.6c2.1-1.7,4.9-2.6,7.8-2.2c5.3,0.7,9.2,5.3,8.8,10.3
						c-0.4,5.4-5.6,9.2-11.2,8.5c-1.2-0.2-2.3-0.5-3.4-1l1.5,33.9L3362.8,1012z"/>
					<path class="st1" d="M3395.1,1016.2c-0.7,0-1.3-0.5-1.3-1.2l-1.5-33.9c0-0.5,0.2-0.9,0.6-1.1c0.4-0.2,0.9-0.3,1.3-0.1
						c0.9,0.5,1.9,0.8,3,0.9c2.5,0.3,5-0.4,6.9-1.9c1.7-1.4,2.8-3.3,2.9-5.5c0.4-4.3-3.1-8.3-7.7-8.9c-2.5-0.3-5,0.4-6.9,1.9
						c-0.4,0.3-0.9,0.4-1.4,0.1c-0.5-0.2-0.7-0.7-0.7-1.2c0.7-11.1-4.4-20.5-12.7-23.3c-10.7-3.6-23.3,4.8-28,18.8
						c-2.3,6.8-2.4,13.9-0.2,20c2.1,5.9,6.1,10.2,11.2,11.9c0.6,0.2,1.2,0.3,1.7,0.4c0.6,0.1,1,0.6,1,1.2l0.8,17.6
						c0,0.7-0.5,1.3-1.2,1.3c-0.7,0-1.3-0.5-1.3-1.2l-0.7-16.6c-0.3-0.1-0.6-0.2-1-0.3c-5.9-2-10.5-6.8-12.8-13.5
						c-2.3-6.6-2.2-14.3,0.2-21.6c5.1-15.3,19.1-24.4,31.2-20.4c8.8,3,14.4,12.2,14.5,23.4c2-1,4.4-1.4,6.7-1.1
						c5.9,0.8,10.4,6,9.9,11.7c-0.2,2.8-1.6,5.4-3.9,7.2c-2.4,2-5.6,2.9-8.8,2.5c-0.6-0.1-1.2-0.2-1.8-0.4l1.4,31.9
						C3396.5,1015.6,3395.9,1016.2,3395.1,1016.2C3395.2,1016.2,3395.2,1016.2,3395.1,1016.2z"/>
				</g>
				<path class="st1" d="M3392.3,966.8c-0.2,0-0.4,0.1-0.7,0.1c-12.3,1.5-23.8-9.9-25.8-25.5c0-0.2,0-0.4-0.1-0.5
					c4.2-1.5,8.6-1.8,12.7-0.4C3388.1,943.7,3393.5,954.7,3392.3,966.8z"/>
				<g>
					<path class="st1" d="M3364.1,996c-0.6,0-1.2,0-1.9-0.1c-0.7,0-1.2-0.7-1.2-1.4c0-0.7,0.7-1.3,1.4-1.2
						c7.3,0.5,14.5-2.3,19.6-7.6c0.5-0.5,1.3-0.5,1.8,0c0.5,0.5,0.5,1.3,0,1.8C3378.6,993,3371.5,996,3364.1,996z"/>
				</g>
				<path class="st1" d="M3354.7,957c0.3,0.7-1.1,2-3.1,2.8c-2,0.8-3.8,0.9-4.1,0.2c-0.3-0.7,1.1-2,3.1-2.8
					C3352.5,956.4,3354.4,956.3,3354.7,957z"/>
				<path class="st1" d="M3373.2,962.4c-0.3,0.9-2.6,0.9-5.1,0.1s-4.3-2.3-4-3.2c0.3-0.9,2.6-0.9,5.1-0.1
					C3371.7,960.1,3373.5,961.5,3373.2,962.4z"/>
				<g>
					<path class="st1" d="M3356.8,971.6c-0.4,0-0.7-0.2-1-0.4c-1-1.2-1.3-2.8-0.8-4.3l2-6c0.2-0.7,1-1,1.6-0.8c0.7,0.2,1,1,0.8,1.6
						l-2,6c-0.2,0.6-0.1,1.3,0.4,1.8c0.5,0.5,0.4,1.3-0.1,1.8C3357.4,971.5,3357.1,971.6,3356.8,971.6z"/>
				</g>
				<g>
					<path class="st1" d="M3362.8,984.2c-2.1,0-4.2-1.5-6.1-4.4c0,0,0,0,0,0c-0.3-0.5-0.3-1-0.1-1.5c0.4-0.6,0.9-1.5,11.1-1.1
						c0.4,0,0.8,0.2,1,0.6c0.2,0.3,0.3,0.8,0.1,1.2c-0.2,0.5-2,4.8-5.6,5.2C3363.2,984.2,3363,984.2,3362.8,984.2z M3359.9,979.7
						c0.9,1.1,2.1,2,3.2,1.9c1-0.1,1.9-1,2.5-1.9C3363.4,979.6,3361.3,979.6,3359.9,979.7z"/>
				</g>
				<g>
					<path class="st1" d="M3394.7,976.3C3394.7,976.3,3394.7,976.3,3394.7,976.3c-0.8,0-1.3-0.6-1.3-1.3c0.1-2.9,1-5.2,2.7-6.7
						c2.4-2.2,5.6-2,5.7-2c0.7,0.1,1.2,0.7,1.2,1.4c-0.1,0.7-0.7,1.2-1.4,1.2c-0.1,0-2.3-0.1-3.9,1.4c-1.1,1-1.8,2.7-1.8,4.8
						C3396,975.7,3395.4,976.3,3394.7,976.3z"/>
				</g>
				<path class="st1" d="M3354.4,965.1c-0.3,1.6-1.5,2.7-2.7,2.5c-1.2-0.2-1.9-1.7-1.6-3.3s1.5-2.7,2.7-2.5
					C3354,962.1,3354.7,963.6,3354.4,965.1z"/>
				<path class="st1" d="M3367.9,967.6c-0.3,1.6-1.5,2.7-2.7,2.5c-1.2-0.2-1.9-1.7-1.6-3.3c0.3-1.6,1.5-2.7,2.7-2.5
					C3367.4,964.6,3368.1,966,3367.9,967.6z"/>
			</g>
			<g>
				<path class="st0" d="M3419.2,1068.5c-0.4,0-0.7-0.2-1-0.5l-13.3-15.9c-0.5-0.5-0.4-1.4,0.2-1.8c0.5-0.5,1.4-0.4,1.8,0.2
					l13.3,15.9c0.5,0.5,0.4,1.4-0.2,1.8C3419.8,1068.4,3419.5,1068.5,3419.2,1068.5z"/>
			</g>
			<polygon class="st1" points="3350.7,1050.5 3318.7,1053.6 3303.4,1013 3326.5,1011 3355.8,1009 			"/>
			<path class="st1" d="M3324.1,1043c1.2-5.3,3.8-10.1,7.6-14l10.9-11c4.2-4.3,9.7-7.1,15.8-8.2c-4.3,9.6-3.4,17.5,3.3,20.1
				c9.7,3.7,28-5.4,40.9-20.3c1.1-1.2,2.1-2.5,3-3.7c11.9,1.7,23.1,8,30.8,17.8l6,7l16,24.9l-23.9,30.8l-15.5-19l-18.9,97.5h-104.2
				l4-11.8c3.5-10.3,9.1-19.7,16.5-27.7l7.7-8.4L3324.1,1043z"/>
			<g>
				<path class="st0" d="M3325.4,1053.7c-0.7,0-1.2-0.5-1.3-1.2c-1.1-15.9,12.8-25,13.4-25.4c0.6-0.4,1.4-0.2,1.8,0.4
					c0.4,0.6,0.2,1.4-0.4,1.8c-0.1,0.1-13.2,8.6-12.2,23C3326.8,1053,3326.2,1053.6,3325.4,1053.7
					C3325.5,1053.7,3325.5,1053.7,3325.4,1053.7z"/>
			</g>
			<g>
				<g>
					<path class="st0" d="M3357.1,1128.4c5.7-3.3,12.7-3.4,18.6-0.4c1.5,0.4,3.1,1.1,4.5,1.8l9.2,5l64.1-25.1l-18.4-24.7l22.2-29.5
						l33.7,50.8l-0.2,0.2l1.6,2.2c9.5,13.3,3.2,32-12.4,36.8c-31.1,9.5-74.6,22.8-80.3,24.4l-0.1,0.1c-7.8,3.2-13.7,5-21.1,2.3
						l-10.7-4.4l3.7,2.3c1.7,1.1,2.5,3.3,1.7,5.2c-0.4,1-1.4,1.5-2.4,1.2l-9.4-3c-4.2-1.5-7.2-5.1-7.9-9.5l-3.5-22.9
						c-0.7-4.9,1.6-9.8,5.9-12.2L3357.1,1128.4z"/>
					<path class="st1" d="M3371.3,1178c-0.3,0-0.6,0-1-0.1l-9.4-3c-4.7-1.7-8-5.7-8.7-10.5l-3.5-22.9c-0.8-5.4,1.8-10.8,6.6-13.5
						l1.2-0.7l0,0c6.1-3.5,13.4-3.6,19.7-0.5c1.6,0.5,3.2,1.1,4.7,1.9l8.7,4.7l62-24.3l-17.4-23.4c-0.3-0.5-0.3-1.1,0-1.5l22.2-29.5
						c0.3-0.3,0.6-0.5,1.1-0.5c0.4,0,0.8,0.2,1,0.6l33.7,50.8c0.2,0.2,0.2,0.5,0.2,0.8l1.1,1.6c4.8,6.7,6,15,3.4,22.8
						c-2.6,7.8-8.6,13.6-16.5,16c-33.1,10.1-73.5,22.4-80.1,24.3c-0.1,0.1-0.2,0.1-0.3,0.2c-7.2,3-13.8,5.3-22,2.3l-3.6-1.5
						c0.4,1.2,0.4,2.5-0.1,3.8C3373.9,1177.2,3372.6,1178,3371.3,1178z M3357.8,1129.5l-1.2,0.7c-3.8,2.2-6,6.6-5.3,10.9l3.5,22.9
						c0.6,3.9,3.3,7.2,7,8.5l9.4,2.9c0.3,0.1,0.7-0.1,0.9-0.4c0.5-1.3,0-2.9-1.2-3.6l-3.7-2.3c-0.6-0.4-0.8-1.1-0.5-1.7
						c0.3-0.6,1-0.9,1.6-0.6l10.7,4.4c6.6,2.3,11.9,1.1,19.9-2.2c0.1-0.1,0.3-0.2,0.5-0.3c5.6-1.6,46.8-14.2,80.3-24.4
						c7.1-2.2,12.5-7.4,14.8-14.4c2.4-7,1.3-14.4-3.1-20.4l-1.6-2.2c-0.2-0.3-0.3-0.6-0.2-0.9l-32.3-48.6l-20.5,27.3l17.8,23.9
						c0.2,0.3,0.3,0.7,0.2,1.1c-0.1,0.4-0.4,0.7-0.8,0.8l-64.1,25.1c-0.4,0.1-0.7,0.1-1.1-0.1l-9.2-5c-1.3-0.7-2.8-1.3-4.3-1.7
						c-0.1,0-0.2-0.1-0.2-0.1C3369.6,1126.3,3363.1,1126.5,3357.8,1129.5L3357.8,1129.5z"/>
				</g>
				<g>
					<path class="st1" d="M3350,1142.6c-0.4,0-0.9-0.2-1.1-0.7c-0.3-0.6-0.1-1.4,0.5-1.8l11.1-6.3c0.6-0.4,1.4-0.1,1.8,0.5
						c0.3,0.6,0.1,1.4-0.5,1.8l-11.1,6.3C3350.4,1142.6,3350.2,1142.6,3350,1142.6z"/>
				</g>
				<g>
					<path class="st1" d="M3351.6,1151.4c-0.5,0-0.9-0.2-1.1-0.7c-0.3-0.6-0.1-1.4,0.5-1.7l10.5-5.5c0.6-0.3,1.4-0.1,1.7,0.5
						c0.3,0.6,0.1,1.4-0.5,1.7l-10.5,5.5C3352,1151.3,3351.8,1151.4,3351.6,1151.4z"/>
				</g>
				<g>
					<path class="st1" d="M3353,1159.9c-0.5,0-0.9-0.2-1.1-0.7c-0.3-0.6-0.1-1.4,0.5-1.7l10-5.4c0.6-0.3,1.4-0.1,1.7,0.5
						c0.3,0.6,0.1,1.4-0.5,1.7l-10,5.4C3353.4,1159.8,3353.2,1159.9,3353,1159.9z"/>
				</g>
			</g>
		</g>
		<g>
			<path class="st1" d="M3250,966.4l-0.6-0.2c-5.5-2.1-10-6.1-12.7-11.4l-2.3-4.7l-10.9-5.7c-1.8-0.9-2.8-2.8-2.6-4.8
				c0.1-1.4,0.9-2.7,2.1-3.5c1.2-0.8,2.6-1.1,4-0.7l21.8,4.9l-0.6,2.5l-21.8-4.9c-0.7-0.2-1.4,0-1.9,0.3c-0.5,0.4-0.9,1-1,1.6
				c-0.1,0.9,0.4,1.8,1.2,2.3l11.6,6.1l2.7,5.5c2.3,4.7,6.3,8.3,11.2,10.2l0.6,0.2L3250,966.4z"/>
		</g>
		<g>
			<path class="st1" d="M3212.2,946.3c-1.1,0-2.2-0.1-3.3-0.3l0.5-2.5c3.8,0.8,7.7-0.1,10.9-2.3l1-0.7l1.5,2.1l-1,0.7
				C3219,945.2,3215.6,946.3,3212.2,946.3z"/>
		</g>
		<g>
			<path class="st1" d="M3216.6,953.7l-1.1-2.3l0.6-0.3c3.7-1.8,6.9-4.3,9.7-7.3l1.9,1.7c-3,3.3-6.5,6-10.5,7.9L3216.6,953.7z"/>
		</g>
		<g>
			
				<rect x="3225.7" y="949.7" transform="matrix(0.9701 -0.2425 0.2425 0.9701 -135.008 811.1469)" class="st1" width="2.6" height="8.5"/>
		</g>
	</g>
</g>
</svg>
