<?xml version="1.0" encoding="utf-8"?>
<!-- Generator: Adobe Illustrator 26.3.1, SVG Export Plug-In . SVG Version: 6.00 Build 0)  -->
<svg version="1.1" id="sv" xmlns="http://www.w3.org/2000/svg" xmlns:xlink="http://www.w3.org/1999/xlink" x="0px" y="0px"
	 viewBox="0 0 410.3 366.7" style="enable-background:new 0 0 410.3 366.7;" xml:space="preserve">
<style type="text/css">
	.st0{fill:#FEB000;}
	.st1{fill:#020202;}
	.st2{fill:#FFFFFF;}
</style>
<g>
	<g>
		<path class="st0" d="M222.2,163.4l-0.2-2.8c4-0.2,11.1-1.3,13-5.4c1-2.2-0.3-4.8-1.8-7.5c-1.6-2.8-3.8-5.4-6.4-7.4
			c-1.5-1.2-2.8-2.1-4.1-2.7l1.2-2.5c1.5,0.7,3.1,1.7,4.7,3c2.9,2.3,5.2,5.1,7.1,8.2c1.4,2.5,3.6,6.3,1.9,10
			C235.2,161.6,227.9,163.1,222.2,163.4z"/>
	</g>
	<g>
		<ellipse class="st0" cx="218.5" cy="162.1" rx="6.7" ry="3.3"/>
	</g>
	<g>
		<circle class="st0" cx="207.3" cy="129.3" r="21.2"/>
	</g>
	<g>
		<path class="st1" d="M212.3,137.6c0,0-11.6,21.2-8.5,25c3,3.8,10.2,17.1-14.3,30.3C165,206.1,42.7,237.1,42.7,237.1
			s-32.6-37.2-6.5-53.5c26.1-16.3,29.3-14,18.6-38.2c-10.7-24.2,24.2-7,26.5-25.6c2.3-18.6-2.8-38.2,32.6-37.7c0,0-16-24.3,9.8-37.2
			c23.1-11.6,38.5,17.1,38.5,17.1s19.2-4.3,36.1,4.1c3,1.5,5.9,3.3,8.7,5.7c4.7,4.1,8.9,9.6,11.9,17
			C233.5,124.7,212.3,137.6,212.3,137.6z"/>
	</g>
	<g>
		<path class="st2" d="M126.5,171c0,0-24.1-16.1-46.9,7.8c-11.6,12.2-22.6,25-33,38.3c-9.7,12.3-19.6,25.1-26.5,39.3
			c-5.4,11-6.2,26.5-2.3,38.2c6.4,18.8,28.1,20.5,45,21.2c9.5,0.4,19.8,0.8,29.1-1.6l56.7-23.5c0,0,2.5,14.2,28.8,12.7
			s75.1,0,75.1,0L225,272.7c0,0-21.8-70.2-26.6-78.7c-4.9-8.5-18.4-21.8-34.7-21.8S126.5,171,126.5,171z"/>
		<path d="M73.6,317.4c-3.8,0-7.4-0.1-11-0.3c-14.7-0.6-39.3-1.5-46.3-22.1c-4.1-12.2-3.2-28,2.4-39.2c7.2-14.7,18-28.5,26.7-39.5
			c11.2-14.3,22-26.8,33.1-38.4c12.2-12.8,24.8-14.3,33.2-13.3c8,0.9,13.8,4.2,15.2,5.1c2.8,0.2,21.9,1.2,36.8,1.2
			c16.8,0,30.7,13.4,35.9,22.5c4.8,8.3,24.9,73.1,26.7,78.7l29.2,32.9l-3.2-0.1c-0.5,0-49.1-1.5-75,0c-22.1,1.2-28.2-8.3-29.7-12.2
			l-55.4,22.9l-0.1,0C86.2,317,79.9,317.4,73.6,317.4z M107.5,167c-7.9,0-17.5,2.8-27,12.7c-11,11.5-21.7,23.9-32.9,38.2
			c-8.6,10.9-19.3,24.5-26.4,39c-5.1,10.5-6.1,25.7-2.2,37.1c5.8,17.3,25.6,19.5,43.7,20.2c9.6,0.4,19.5,0.8,28.6-1.5l58.2-24.1
			l0.3,1.7c0.1,0.5,2.8,12.9,27.3,11.5c22.1-1.2,60.6-0.4,72-0.1l-25.3-28.5l-0.1-0.3c-0.2-0.7-21.8-70.2-26.5-78.4
			c-4.7-8.2-17.9-21.1-33.5-21.1c-16.1,0-37.1-1.3-37.3-1.3l-0.4,0l-0.3-0.2C125.2,171.8,117.8,167,107.5,167z"/>
	</g>
	<g>
		
			<rect x="63.4" y="241.6" transform="matrix(0.489 -0.8723 0.8723 0.489 -162.7713 208.1133)" class="st1" width="65.7" height="2.8"/>
	</g>
	<g>
		
			<rect x="138" y="186.4" transform="matrix(7.407933e-03 -1 1 7.407933e-03 -133.7028 409.4403)" class="st1" width="2.8" height="171.3"/>
	</g>
	<g>
		<path class="st1" d="M85,317.2c-0.7-0.3-17.6-8.6-20.9-23c-1.7-7.4,0.5-15.1,6.6-22.7l2.2,1.7c-5.5,6.9-7.6,13.8-6.1,20.3
			c3,13.1,19.2,21.1,19.3,21.1L85,317.2z"/>
	</g>
	<g>
		
			<rect x="157.3" y="251.7" transform="matrix(0.4987 -0.8668 0.8668 0.4987 -129.9042 281.5909)" class="st1" width="42.3" height="2.8"/>
	</g>
	<g>
		
			<rect x="198.9" y="283" transform="matrix(0.8944 -0.4472 0.4472 0.8944 -110.0592 120.5551)" class="st1" width="2.8" height="20.8"/>
	</g>
	<g>
		
			<rect x="210.6" y="271.6" transform="matrix(0.8924 -0.4513 0.4513 0.8924 -107.3066 126.6741)" class="st1" width="2.8" height="33.5"/>
	</g>
	<g>
		
			<rect x="225.6" y="271.3" transform="matrix(0.8748 -0.4845 0.4845 0.8748 -111.19 146.0563)" class="st1" width="2.8" height="33.8"/>
	</g>
	<g>
		<path class="st1" d="M192.9,303.9c0-0.1-3.7-6-7.8-9c-3.5-2.5-9,2.2-9.1,2.2l-1.8-2.1c0.3-0.3,7.3-6.1,12.5-2.3
			c4.6,3.3,8.4,9.6,8.6,9.8L192.9,303.9z"/>
	</g>
	<g>
		<path class="st2" d="M122.4,170.1c0,0,40.2-60.5,40.2-60.5s5.6,4.8,13.7-6.2s20.1-18.9,32.9-17.3c0,0,16.7,8.2,8.2,45.4
			c-8.4,37.2-34.6,33.5-43.4,30.5c0,0-8.6,16.3-10.2,18.7c-2.3,3.4-5.7,6.3-9.4,8.1c-2.9,1.4-6.1,2-9.4,1.7
			c-5.9-0.5-10.5-4.3-14.4-8.5C128.9,180.3,120.6,172.9,122.4,170.1z"/>
		<path d="M146.5,192c-0.6,0-1.1,0-1.7-0.1c-6.8-0.6-11.7-5.1-15.3-8.9c-0.3-0.3-0.7-0.7-1.1-1.2c-4.7-4.7-9.2-9.5-7.2-12.5h0
			c0.1-0.2,2.2-3.4,40.2-60.5l0.9-1.3l1.2,1c0,0,1.2,0.9,3.1,0.7c1.8-0.2,4.8-1.6,8.5-6.7c9.2-12.7,22-19.4,34.2-17.8l0.2,0l0.2,0.1
			c0.7,0.4,17.6,9.2,9,47c-3.3,14.5-9.6,24.5-18.7,29.6c-10.3,5.7-20.9,3.6-25.3,2.3c-1.9,3.6-8.4,15.7-9.8,17.8
			c-2.4,3.6-6,6.7-10,8.6C152.3,191.4,149.4,192,146.5,192z M163.1,111.5c-5.4,8.1-39.4,59.2-39.5,59.4l0,0c-0.2,0.3-0.4,1.9,6.8,9
			c0.5,0.5,1,1,1.2,1.2c3.2,3.5,7.7,7.5,13.5,8c2.9,0.3,5.9-0.3,8.6-1.6c3.5-1.7,6.8-4.4,8.9-7.6c1.2-1.9,7.2-13,10.2-18.6l0.6-1.1
			l1.1,0.4c3.1,1,13.9,4,24.2-1.7c8.4-4.7,14.3-14.1,17.4-27.8c7.6-33.6-5.6-42.7-7.3-43.7c-11.1-1.3-22.8,5-31.4,16.7
			c-3.5,4.8-7,7.4-10.5,7.8C165.2,112.3,163.9,111.9,163.1,111.5z"/>
	</g>
	<g>
		<path class="st1" d="M202.6,111.7c-0.4,0-0.8-0.2-1.1-0.5c-5-6.1-15.1-4.5-15.2-4.5c-0.8,0.1-1.5-0.4-1.6-1.2
			c-0.1-0.8,0.4-1.5,1.1-1.6c0.5-0.1,11.7-1.9,17.8,5.5c0.5,0.6,0.4,1.5-0.2,2C203.2,111.6,202.9,111.7,202.6,111.7z"/>
	</g>
	<g>
		<path class="st1" d="M207,135.2c-0.6,0-1.2-0.4-1.4-1.1c-0.1-0.6-3.4-13.9,2.4-19.5c2.5-2.5,6.2-3.1,11-1.8c0.7,0.2,1.2,1,1,1.7
			c-0.2,0.7-1,1.2-1.7,1c-3.8-1-6.6-0.6-8.3,1.1c-3.8,3.8-2.5,13.5-1.6,16.9c0.2,0.7-0.3,1.5-1,1.7
			C207.2,135.2,207.1,135.2,207,135.2z"/>
	</g>
	<g>
		<path class="st1" d="M192.3,146.1c-1.1,0-2.3-0.3-3.4-0.8l0,0c-6.7-3-8.2-12.6-7.4-15.8c0.5-1.9,1.8-2,2.2-1.9
			c1.3,0.1,6.7,2.5,16.2,7.1c0.8,0.4,1.4,1,1.6,1.9c0.3,0.8,0.2,1.7-0.2,2.5C199,143.6,195.8,146.1,192.3,146.1z M190,142.8
			c4.2,1.9,7.2-1.7,8.9-5c0.1-0.1,0-0.3,0-0.3c0-0.1-0.1-0.2-0.2-0.2c-8.4-4-12.8-6-14.6-6.6c-0.1,1-0.1,3.3,0.8,5.8
			C185.6,138.2,187,141.5,190,142.8L190,142.8z"/>
	</g>
	<g>
		<path class="st1" d="M173.3,162.5c-0.2,0-0.3,0-0.5-0.1c-13.2-5-17.1-22.2-17.3-23c-0.2-0.8,0.3-1.5,1.1-1.7
			c0.7-0.2,1.5,0.3,1.7,1.1c0,0.2,3.8,16.5,15.5,21c0.7,0.3,1.1,1.1,0.8,1.8C174.4,162.1,173.8,162.5,173.3,162.5z"/>
	</g>
	<g>
		
			<ellipse transform="matrix(0.5477 -0.8367 0.8367 0.5477 -8.6617 212.1369)" class="st1" cx="191.9" cy="114.1" rx="4.3" ry="3.1"/>
	</g>
	<g>
		<ellipse transform="matrix(0.5477 -0.8367 0.8367 0.5477 -6.5333 233.8486)" class="st1" cx="213" cy="123" rx="3.5" ry="2.3"/>
	</g>
	<g>
		<path class="st0" d="M207,71.6c-29.8-7-50.2,25.4-50.4,25.8l-4-2.4c0.2-0.3,18.1-28.9,45.7-29C201.4,67.4,204.3,69.3,207,71.6z"/>
	</g>
	<g>
		<circle class="st0" cx="146.1" cy="113.5" r="22.5"/>
	</g>
	<g>
		<path class="st1" d="M165.8,314.1l202-0.7l26.5-97.1c1.4-5.1-1.9-10.4-7.2-11.3l-92.7-16c-7.2-1.2-14.1,3.2-15.8,10.3l-26.2,102.2
			l-74.7,0.1c-3.7-0.1-7.1,2-8.6,5.4L165.8,314.1z"/>
	</g>
</g>
</svg>
